<?xml version="1.0" encoding="utf-8"?>
<!-- Generator: Adobe Illustrator 25.0.1, SVG Export Plug-In . SVG Version: 6.00 Build 0)  -->
<svg version="1.1" id="Layer_1" xmlns="http://www.w3.org/2000/svg" xmlns:xlink="http://www.w3.org/1999/xlink" x="0px" y="0px"
	 viewBox="0 0 512 512" style="enable-background:new 0 0 512 512;" xml:space="preserve">
<style type="text/css">
	.st0{fill:#F1E5D7;stroke:#171717;stroke-miterlimit:100;}
	.st1{fill:none;stroke:#171717;stroke-miterlimit:100;}
	.st2{fill:#90B4D6;stroke:#171717;stroke-miterlimit:100;}
	.st3{fill:#E1EAF1;}
	.st4{fill:#8FB3D5;}
	.st5{fill:#FEF4CC;}
	.st6{fill:#EFE3D5;}
	.st7{fill:#67C2D7;}
	.st8{fill:#90B4D6;}
	.st9{fill:#FFFFFF;}
	.st10{fill:#283033;}
	.st11{fill:#020203;}
	.st12{fill:#8CD2EF;}
	.st13{fill:#FBD2BC;}
	.st14{fill:#F8BD9D;}
	.st15{fill:#B5D1E3;}
	.st16{fill:#6FC9ED;}
	.st17{fill:#F8BD9C;}
	.st18{fill:#F18C9E;}
	.st19{opacity:0.6;fill:#FFFFFF;enable-background:new    ;}
	.st20{fill:#EEECED;}
	.st21{fill:#F8F6F7;}
	.st22{fill:#E3E0E3;}
	.st23{fill:#D5CFD4;}
	.st24{fill:#CFEBF8;}
	.st25{fill:#ACDDF2;}
</style>
<g>
	<path class="st3" d="M434,478.35c-10.39-1.93-18.03-8.11-25.29-15.43c-34.53-34.81-69.31-69.38-103.89-104.14
		c-2.32-2.33-3.76-2.56-6.55-0.8c-29.43,18.64-61.71,27.14-96.41,25.73c-33.34-1.35-63.72-11.95-90.87-31.41
		c-30.28-21.71-51.23-50.43-62.68-85.81c-10.28-31.78-11.03-63.98-1.83-96.18c11.95-41.8,36.3-74.51,73.06-97.76
		c29.14-18.44,61.12-27.06,95.55-25.77c33.66,1.26,64.26,11.9,91.7,31.48c25.52,18.21,44.54,41.81,56.91,70.51
		c11.95,27.72,16.23,56.72,12.49,86.84c-3.11,25.03-11.26,48.2-24.83,69.44c-1.59,2.49-1.35,3.81,0.73,5.88
		c34.85,34.69,69.52,69.56,104.43,104.2c7.31,7.25,13.49,14.9,15.42,25.29c0,2.81,0,5.62,0,8.43c-0.97,13.05-8.04,21.72-19.45,27.41
		c-3.24,1.62-6.78,1.08-10.06,2.1C439.62,478.35,436.81,478.35,434,478.35z"/>
	<path class="st4" d="M360.56,212.55c1.59,81.94-63.31,151.54-146.43,154.32C130.2,369.69,58.95,303.86,57.22,218
		c-1.65-81.64,62.81-152.58,148.92-154.37C287.76,61.94,358.47,126.44,360.56,212.55z"/>
	<path class="st4" d="M455.07,445.33c-0.32,6.11-3.33,11.26-9.35,14.3c-6.03,3.05-11.97,2.44-17.47-1.52
		c-1.36-0.98-2.57-2.18-3.76-3.37c-23.47-23.44-46.89-46.92-70.43-70.28c-2.19-2.17-2.51-3.27,0.03-5.39
		c6.81-5.67,13-12.02,18.78-18.74c1.66-1.94,2.66-2.38,4.77-0.26c23.76,23.94,47.64,47.76,71.5,71.6
		C452.76,435.29,455.04,439.47,455.07,445.33z"/>
	<path class="st5" d="M339.05,321.9c1,0.87,1.65,1.37,2.22,1.94c6.76,6.74,13.46,13.53,20.29,20.19c1.45,1.41,1.45,2.2,0.1,3.69
		c-6.5,7.18-13.36,14.01-20.54,20.51c-1.4,1.27-2.14,1.1-3.37-0.16c-6.79-6.91-13.64-13.75-20.53-20.55
		c-1.24-1.22-1.55-2.02-0.02-3.3c7.43-6.24,14.26-13.09,20.54-20.48C338.19,323.23,338.55,322.62,339.05,321.9z"/>
	<path class="st6" d="M343.76,215.28c-0.02,74.09-60.65,134.77-134.81,134.89c-74.17,0.12-135.28-61.06-135-135.13
		c0.29-74.26,61.01-134.83,135.02-134.68C283.15,80.51,343.78,141.2,343.76,215.28z"/>
	<path class="st7" d="M208.78,97.22c64.78-0.09,117.9,52.92,118.11,117.86c0.21,64.86-53.3,118.38-118.18,118.22
		c-64.92-0.17-117.94-53.27-117.9-118.07C90.86,150.38,143.91,97.31,208.78,97.22z"/>
	<path class="st6" d="M212.55,113.98c42.2,3.73,72.8,24.04,90.02,63.37c2.45,5.59,0.8,10.49-3.84,12.43
		c-4.73,1.98-9.1-0.18-11.59-5.92c-11.55-26.57-31.31-43.5-59.38-50.68c-5.17-1.32-10.46-1.97-15.8-2.16
		c-7.59-0.27-11.66-3.34-11.47-8.75C200.66,116.81,204.86,113.96,212.55,113.98z"/>
	<path class="st6" d="M301.46,223.64c-4.4-0.09-8.26-4.05-8.23-8.42c0.03-4.55,4.24-8.56,8.74-8.33c4.41,0.23,8.18,4.28,8.02,8.63
		C309.83,219.92,305.82,223.74,301.46,223.64z"/>
</g>
</svg>
