<?xml version="1.0" encoding="utf-8"?>
<!-- Generator: Adobe Illustrator 25.0.1, SVG Export Plug-In . SVG Version: 6.00 Build 0)  -->
<svg version="1.1" id="Layer_1" xmlns="http://www.w3.org/2000/svg" xmlns:xlink="http://www.w3.org/1999/xlink" x="0px" y="0px"
	 viewBox="0 0 512 512" style="enable-background:new 0 0 512 512;" xml:space="preserve">
<style type="text/css">
	.st0{fill:#FFFFFF;}
</style>
<g>
	<g>
		<g>
			<g>
				<g>
					<g>
						<g id="XMLID_31_">
							<path class="st0" d="M374.7,194.9l-22.3,125.4c-0.4,2.2-1.2,4.2-2.3,5.9c-4.8,7.2-15.2,8.7-21.9,3.4v0
								c-1.8-1.4-3.4-3.4-4.5-5.9l-20.8-60.9l-28.6-54.8l11.7-1.5l60.1-4.9c0.9-0.1,1.7-0.2,2.6-0.4L374.7,194.9L374.7,194.9
								L374.7,194.9z"/>
							<path class="st0" d="M230.9,207.9l-30,58.5l-19.4,57.2c-1.1,2.5-2.6,4.5-4.4,5.9c-6.7,5.3-17.1,3.9-21.9-3.4
								c-1.1-1.6,2-10.2,1.6-12.4l-26.2-118.9l25.1,6.5L230.9,207.9z"/>
						</g>
					</g>
					<path class="st0" d="M187,307.7c3.6-9.2,7.1-19,10.2-29.6c-1.4,0.6-0.8,1.9-1.6,2.8c-1.4,1.5-2.5,3.2-2.6,5.2
						c-0.1,1.1-2.2,1.5-0.5,3.2c0.1,0.1,0.1,0.2,0,0.2c-4.1,1.2-1.3,4.8-2.6,7c-1.4,2.4-2.2,5-3,7.6
						C186.6,305.2,184.7,305.7,187,307.7z"/>
					<path class="st0" d="M299.3,256.2c-0.1-0.4-0.1-0.8-0.4-1c-2.1-1.5-2.6-3.7-3.9-5.6c-0.1-0.2-0.4-0.3-0.3-0.6
						c0.5-3-3-4.1-3.1-6.9c0-0.3-0.4-0.5-0.7-0.6c-1.3-0.7-1.8-1.9-1.7-3.3c0.2-2.6-0.9-4.6-1.7-6.8c-0.6-1.8-2-3.2-1.5-5.5
						c0.1-0.3-0.1-0.6-0.2-0.8c-1.5-2.4-1.3-5.4-2.5-7.9c-0.1-0.1-0.3-0.3-0.1-0.4c2.1-1.8,0.2-2-0.5-2.6c-1.4-1.4-2.1-3-2.4-4.8
						c-0.1-0.6-0.3-1.1-0.5-1.6l-0.9,0.5c0.8,16.9,10.7,34.9,20.7,48.8C299.6,256.8,299.4,256.5,299.3,256.2z"/>
				</g>
				<g>
					<g>
						<g>
							<g>
								<path class="st0" d="M118.2,443.4c-0.5,0.3-1,0.6-1.4,0.8c-0.4,0.2-0.9,0.2-1.3,0.2c-0.9,0-1.9,0-2.8-0.1
									c-0.2,0-0.4,0.1-0.6,0c-1.5-0.3-3-0.1-4.4,0.2c-0.1,0-0.3,0.1-0.4,0.1c-2.2-0.2-4.2,0.4-6.3,0.7c-1,0.1-2,0.4-3,0.6
									c-0.6,0.1-1,0.6-1.5,0.8c-0.7,0.3-1.4,0.6-2.1,0.9c-1,0.5-2.2,0.9-2.5,2c-0.1,0.2-0.2,0.2-0.3,0.4c-0.5,0.6-1,1.3-0.7,2
									c0,0,0,0.1,0,0.1c-0.1,1.2,0.6,2.5,1.4,3.7c0.7,0.8,1.5,1.5,2.4,2.1c0.2,0.1,0.4,0.1,0.5,0.3c0.5,1.3,2.1,1.5,3,2.4
									c0.2,0.2,0.6,0.3,0.8,0.4c1.3,0.7,2.8,1.2,4.2,1.8c1.2,0.7,2.4,1.3,3.6,1.9c0.4,0.2,1,0.3,1.5,0.5c0.2,0,0.4,0,0.5,0.1
									c3.8,1.8,7.7,3.1,11.6,4.8c1.3,0.5,2.5,1.1,3.9,1.4c2.7,0.4,5.1,1.5,7.7,2.1c1.2,0.3,2.3,0.8,3.5,0.9
									c2.3,0.2,4.4,1.1,6.7,1.3c1.5,0.2,3,0.6,4.6,0.4c0.1,0,0.1,0,0.2,0c1.9,0.2,3.7,0.5,5.6,0.6c3.4,0.1,6.7,0.8,10.1,0.9
									c1.8,0.1,3.6-0.1,5.3-0.1c2.1,0,4.2,0,6.2-0.1c0.5,0,1.1-0.3,1.6-0.4c0.3-0.1,0.6-0.2,0.9-0.2c0.6,0,1.3,0,1.9,0
									c3.1-0.2,6.2-0.6,8.8-1.7c1.4-0.6,2.6-1.2,3.6-2c0.8-0.8,1.3-1.6,1.2-2.5c-0.3-1.5-1.4-3.7-3.4-5.3
									c-0.8-0.6-1.5-1.5-2.6-1.9c-0.5-0.1-0.7-0.6-1.1-0.9c-1.9-1.4-3.8-2.6-5.9-3.8c-1.1-0.6-2.4-1-3.6-1.6c-2.1-1-4.3-2-6.5-3
									c-1.1-0.5-2.2-1.1-3.2-1.6c-0.9-0.4-1.6-0.7-2.5-1.1c-0.3-0.1-0.6-0.2-0.5-1c0.5-0.5,0.9-0.5,1.3-0.3
									c1.2,0.4,2.4,0.5,3.8,0.4c0.5,0,0.9,0.1,1.4,0.2c1.4,0.4,2.9,0.6,4.2,1.3c1.2,0.6,2.5,1,3.8,1.5c1.9,0.8,3.8,1.6,5.7,2.5
									c1,0.5,2,1.1,3.1,1.6c0.2,0.1,0.6,0.2,0.9,0.1c0.8-0.1,1.4,0.2,2,0.6c1,0.7,2,1.4,3,2.2c0,0,0.1,0,0.1,0.1
									c1.2,1.9,3.4,3,4.5,5.5c0.5,1.2,1,2.5,1.1,4c0.1,0.7-0.1,1.5-0.1,2.3c-0.2,0.7-0.5,1.4-0.8,2.1c-1.5,2.7-3.7,4.2-5.8,5.3
									c-1.6,0.8-3.2,1.4-4.8,1.8c-0.7,0.2-1.4,0.4-2.1,0.5c-2.8,0.6-5.5,1-8.3,1.2c-1.5,0.1-3,0-4.4,0.1c-2.2,0.1-4.4,0.3-6.6,0.4
									c-0.4,0-0.7,0-1.1,0c-1.4-0.1-2.7-0.3-4.1-0.4c-1-0.1-2-0.1-3-0.1c-0.4,0-0.8,0-1.2-0.1c-2.8-0.4-5.7-0.9-8.5-1.4
									c-0.5-0.1-1-0.3-1.5-0.8c-0.3-0.3-0.6-0.4-1-0.5c-0.7-0.1-1.3-0.3-2-0.4c-2.3-0.3-4.6-0.6-7-1c-0.2,0-0.4-0.1-0.6,0
									c-1.5,0.3-3,0-4.4-0.2c-0.7-0.1-1.4,0-2.2-0.1c-1-0.1-2-0.4-3-0.7c-2.2-0.7-4.3-1.5-6.5-2.3c-0.5-0.2-1.1-0.2-1.7-0.4
									c-0.1,0-0.2,0-0.2,0c-0.7-0.8-1.6-0.9-2.4-1.2c-0.6-0.2-1.2-0.4-1.7-0.6l-3.4-1.4c-0.5-0.2-1-0.6-1.6-0.2
									c-0.4-0.4-0.7-0.8-1-1.1c-0.3-0.3-0.7-0.6-1-1c-0.5-0.6-1.1-1-1.8-1.2c-1-0.2-1.9-0.7-2.6-1.5c-0.2-0.2-0.4-0.4-0.6-0.5
									c-0.9-0.7-1.9-1.2-2.7-2.2c-0.5-0.6-1.2-1.2-1.9-1.6c-0.6-0.4-1-1-1.5-1.5c-0.6-0.5-1-1.2-1.6-1.7c-0.8-0.6-1.6-1.3-2.4-2.1
									c-0.5-0.4-0.8-1-1.2-1.5l-0.5-0.8l-0.4-1l-0.4-1l-0.1-1.1c-0.1-0.8,0-1.6,0.3-2.3c0.1-0.7,0.5-1.1,0.9-1.7
									c0.9-1.2,2-1.9,2.6-3.3c0-0.1,0.1-0.2,0.2-0.2c0.9,0,1.5-0.6,2.2-0.9c0.2-0.1,0.4-0.1,0.5-0.2c1.1-1,2.5-1.1,3.7-1.4
									c3.2-0.7,6.3-1,9.5-1.1c1.4,0,2.8,0.3,4.2,0.5c0.5,0.1,1,0.1,1.5,0.2c1,0.2,2,0.5,3,0.9C117,443,117.5,443.2,118.2,443.4z"
									/>
								<path class="st0" d="M120.8,443.4c0.3-0.1,0.6-0.1,0.8-0.2c0.8-0.2,1.5-0.3,2.3-0.4c0.4,0,0.8,0,1.2,0
									c1.2,0.1,2.4,0.2,3.7,0.5c0.5,0.1,1,0.4,1.5,0.7c0.1,0.1,0.3,0.5,0.2,0.7c-0.1,0.3-0.2,0.7-0.4,0.8c-0.3,0.1-0.6,0.2-0.8,0
									c-0.9-0.5-1.8-0.4-2.8-0.4c-1.3,0-2.6-0.1-3.8-0.6c-0.5-0.2-1-0.2-1.4-0.4c-0.2,0-0.4-0.2-0.5-0.4L120.8,443.4z"/>
							</g>
							<g>
								<path class="st0" d="M174.7,338.8c0.1,0.4,0.3,0.8,0.3,1.2c0,0.4,0,0.7-0.1,1c-0.2,0.7-0.4,1.4-0.7,2.1
									c-0.1,0.2,0,0.3-0.1,0.5c-0.6,1-0.8,2.2-0.9,3.3c0,0.1,0,0.2-0.1,0.3c-0.7,1.5-0.9,3.2-1.4,4.8c-0.2,0.8-0.4,1.6-0.6,2.3
									c-0.1,0.4-0.1,0.9-0.1,1.4c-0.1,0.6-0.2,1.2-0.4,1.8c-0.2,0.9-0.7,1.8-0.4,2.8c0,0.2-0.1,0.3-0.1,0.5
									c-0.2,0.7-0.4,1.5-0.3,2.2c0,0.1,0,0.1,0,0.2c-0.2,1.3-0.5,2.6-0.6,3.9c-0.1,0.9-0.1,1.8-0.2,2.8c0,0.2,0.1,0.4,0,0.5
									c-0.7,0.9-0.3,2.1-0.6,3.1c-0.1,0.2,0,0.5,0,0.7c-0.1,1.2,0,2.5-0.1,3.7c-0.1,1.1-0.4,2.1-0.6,3.2c-0.1,0.4,0,0.8,0,1.2
									c0,0.1,0.1,0.3,0,0.4c-0.5,3.2-1,6.5-1.8,9.7c-0.2,1-0.6,2.1-0.6,3.2c0,2.1-0.6,4.1-0.9,6.2c-0.1,0.9-0.5,1.9-0.5,2.8
									c0,1.8-0.6,3.5-0.7,5.3c-0.1,1.2-0.4,2.3-0.1,3.6c0,0,0,0.1,0,0.2c-0.1,1.5-0.4,2.9-0.4,4.4c-0.1,2.6-0.7,5.2-1,7.9
									c-0.2,1.4-0.1,2.8-0.2,4.2l-0.5,4.8c0,0.4,0.1,0.8,0.2,1.1c0,0.2,0.1,0.4,0.1,0.6c0,0.5-0.1,0.9-0.1,1.4
									c0.1,2.3,0.4,4.6,1.3,6.7c0.9,2.2,1.9,4.6,3.5,6.3c1.4,1.5,2.8,3.1,4.3,4.9c0.6,0.7,1.1,1.6,1.8,2.4
									c0.3,0.4,0.4,0.9,0.6,1.4c0.8,2.2,0.9,4.7-0.2,7c-0.6,1.2-1.5,2.4-2.7,3.1c-2.1,1.2-4.2,1.5-6.1,1.6c-1,0-2-0.1-3-0.2
									c-0.7-0.1-1.4-0.1-2.1-0.2c-0.2,0-0.5,0-0.6-0.6c0.3-0.5,0.6-0.6,0.9-0.6c0.9,0,1.9-0.2,2.8-0.7c0.3-0.2,0.7-0.2,1-0.3
									c1.1-0.1,2-0.6,3-0.7c0.9-0.1,1.7-0.6,2.4-1.1c1-0.8,1.6-1.7,1.6-2.8c0.1-0.6,0-1.4-0.2-2c-0.1-0.1-0.2-0.3-0.4-0.4
									c-0.5-0.2-0.7-0.5-0.8-0.8c-0.3-0.6-0.7-1.1-1.2-1.7c0,0,0,0,0-0.1c-0.4-1.4-1.9-2.1-2.8-3.4c-0.9-1.2-2-2.5-2.9-4
									c-0.9-1.4-1.7-2.9-2.4-4.4c-0.5-1.2-1-2.4-1.4-3.6c-0.2-0.5-0.3-1.1-0.4-1.6c-0.5-2.2-0.9-4.3-0.8-6.7
									c0-1.3,0.3-2.3,0.4-3.5c0.1-1.6,0.1-3.3,0.2-5c0-0.3,0.1-0.5,0.1-0.8c0.2-1,0.4-2,0.5-3.1c0.1-0.8,0.1-1.5,0.1-2.3
									c0-0.3,0-0.6,0.1-0.9l1.1-6.4c0.1-0.4,0.2-0.8,0.6-1.1c0.2-0.2,0.3-0.5,0.4-0.8c0.1-0.5,0.2-1,0.2-1.5
									c0.1-1.8,0.3-3.6,0.4-5.4c0-0.2,0-0.3,0-0.5c-0.3-1.1-0.2-2.2-0.2-3.4c0-0.5-0.1-1.1-0.1-1.6c0-0.8,0.1-1.6,0.3-2.3
									c0.3-1.7,0.7-3.4,1-5.1c0.1-0.4,0.1-0.9,0.1-1.3c0,0-0.1-0.1,0-0.2c0.5-0.6,0.4-1.3,0.5-2l0.2-1.4l0.5-2.7
									c0.1-0.4,0.2-0.9-0.2-1.2c0.2-0.4,0.5-0.7,0.6-0.9c0.2-0.3,0.3-0.6,0.5-0.9c0.4-0.5,0.5-1,0.5-1.5c-0.1-0.8,0.1-1.5,0.5-2.2
									c0.1-0.2,0.2-0.4,0.2-0.5c0.2-0.8,0.4-1.7,0.8-2.5c0.3-0.6,0.5-1.2,0.5-1.8c0-0.5,0.3-1,0.5-1.6c0.2-0.6,0.4-1.1,0.5-1.7
									c0.1-0.8,0.1-1.6,0.1-2.4c0.1-0.9,0.1-1.8,0.2-2.7c0.1-0.9,0.1-1.9,0.2-2.9c0-0.4,0.1-0.8,0.2-1.1c0.2-0.9,0.5-1.7-0.1-2.7
									c0,0,0-0.1,0-0.2c0.5-0.4,0.3-1,0.5-1.5c0.1-0.1,0.1-0.3,0.1-0.4c-0.2-1,0.3-1.9,0.5-2.8c0.6-2.3,1.2-4.6,2-6.8
									c0.3-1,0.9-2,1.3-2.9c0.2-0.4,0.3-0.7,0.5-1c0.4-0.7,0.9-1.4,1.3-2C174.1,339.6,174.4,339.2,174.7,338.8z"/>
								<path class="st0" d="M175.1,336.8c0-0.2,0-0.5,0-0.6c0-0.6,0-1.2,0.1-1.8c0.1-0.3,0.2-0.6,0.3-0.9c0.3-0.9,0.6-1.8,1-2.6
									c0.2-0.4,0.5-0.7,0.8-1c0.1-0.1,0.4-0.1,0.6,0c0.2,0.1,0.5,0.3,0.6,0.5c0.1,0.2,0,0.5-0.1,0.6c-0.5,0.6-0.6,1.3-0.8,2
									c-0.2,1-0.6,1.9-1.2,2.7c-0.2,0.3-0.3,0.7-0.5,1c-0.1,0.1-0.2,0.2-0.4,0.3L175.1,336.8z"/>
							</g>
							<g>
								<path class="st0" d="M135.6,437.2c0-0.4-0.1-0.7,0-1c0-0.3,0.1-0.5,0.3-0.8c0.3-0.4,0.7-0.9,1-1.3c0.1-0.1,0.1-0.2,0.2-0.3
									c0.7-0.6,1.1-1.4,1.4-2.2c0-0.1,0-0.2,0.1-0.2c0.9-1,1.3-2.2,1.9-3.3c0.3-0.5,0.6-1.1,0.8-1.7c0.1-0.3,0.1-0.7,0.2-1
									c0.1-0.5,0.3-0.9,0.5-1.3c0.3-0.7,0.7-1.3,0.5-2.1c0-0.1,0.1-0.2,0.1-0.4c0.2-0.5,0.4-1.1,0.3-1.7c0,0,0-0.1,0-0.1
									c0.2-1,0.4-2,0.5-3c0.1-0.7,0.1-1.4,0.2-2.1c0-0.1-0.1-0.3,0-0.4c0.6-0.7,0.2-1.6,0.5-2.4c0.1-0.2,0-0.4,0-0.6
									c0-1-0.1-1.9,0-2.9c0.1-0.8,0.4-1.6,0.5-2.5c0.1-0.3,0-0.6,0-1c0-0.1-0.1-0.2,0-0.3c0.4-2.5,0.9-5,1.5-7.5
									c0.2-0.8,0.5-1.6,0.5-2.5c0-1.6,0.5-3.2,0.8-4.8c0.1-0.7,0.4-1.4,0.4-2.2c0-1.4,0.5-2.7,0.6-4.1c0.1-0.9,0.4-1.8,0.1-2.8
									c0,0,0-0.1,0-0.1c0.1-1.1,0.3-2.2,0.3-3.4c0.1-2.1,0.6-4.1,0.9-6.1c0.1-1.1,0.1-2.2,0.2-3.3c0.1-1.3,0.4-2.5,0.5-3.8
									c0-0.3-0.1-0.7-0.1-1c0-0.2-0.1-0.4,0-0.6c0.1-0.4,0.3-0.8,0.3-1.2c0.3-1.9,0.8-3.8,1-5.7c0.2-2,0.6-4,0.7-6.1
									c0.1-1.7,0.4-3.3,0.5-5c0-0.7,0.3-1.4,0-2.1c-0.1-0.3,0.1-0.6,0.1-0.9c0.2-1.4,0.4-2.9,0.5-4.3c0.1-0.8-0.1-1.6,0-2.4
									c0.1-1.4,0.2-2.9,0.3-4.2c0-0.7,0.2-1.5,0.2-2.1c0-0.5,0-1,0-1.5c0-0.2-0.1-0.4,0.5-0.6c0.5,0,0.6,0.3,0.7,0.5
									c0.1,0.7,0.5,1.4,1,2.1c0.2,0.3,0.2,0.5,0.2,0.8c0.1,0.9,0.4,1.8,0.3,2.6c-0.1,0.8,0,1.6,0.1,2.4c0.1,1.2,0.1,2.5,0.1,3.7
									c0,0.7,0,1.3,0,2c0,0.2,0.1,0.4,0.3,0.5c0.4,0.4,0.4,0.8,0.4,1.1c-0.1,0.7-0.1,1.4-0.1,2c0,0,0,0,0,0.1
									c-0.6,1.2-0.2,2.4-0.4,3.6c-0.3,1.2-0.4,2.3-0.6,3.5c-0.1,1.2-0.2,2.5-0.3,3.7l-0.3,2.8l-0.1,1.2c-0.2,1.6-0.3,3.2-0.5,4.8
									c-0.1,0.9-0.4,1.7-0.4,2.6c-0.1,1.3-0.1,2.6-0.2,3.9c0,0.2,0,0.4-0.1,0.6c-0.1,0.8-0.3,1.6-0.4,2.4
									c-0.1,0.6-0.1,1.2-0.1,1.8c0,0.2,0,0.5-0.1,0.7l-1,5c-0.1,0.3-0.2,0.6-0.5,0.9c-0.2,0.2-0.3,0.4-0.4,0.6
									c-0.1,0.4-0.2,0.8-0.2,1.2c-0.1,1.4-0.2,2.8-0.3,4.2c0,0.1,0,0.2,0,0.4c0.4,0.9,0.3,1.8,0.2,2.6c0,0.4,0.1,0.9,0.1,1.3
									c0,0.6-0.1,1.2-0.2,1.8c-0.3,1.3-0.6,2.7-0.9,4c-0.1,0.3,0,0.7,0,1c0,0,0.1,0.1,0,0.1c-0.5,0.5-0.4,1-0.5,1.5l-0.2,1.1
									l-0.4,2.1c-0.1,0.3-0.2,0.6,0.2,1c-0.2,0.3-0.4,0.5-0.6,0.7c-0.2,0.2-0.3,0.5-0.5,0.7c-0.4,0.4-0.5,0.8-0.4,1.2
									c0.1,0.6-0.1,1.2-0.4,1.7c-0.1,0.1-0.2,0.3-0.2,0.4c-0.2,0.6-0.4,1.3-0.8,1.9c-0.3,0.4-0.4,0.9-0.5,1.4
									c0,0.4-0.3,0.8-0.4,1.2c-0.2,0.4-0.4,0.9-0.4,1.3c-0.1,0.6,0,1.2-0.1,1.9c-0.1,0.7-0.1,1.4-0.2,2.1
									c-0.1,0.7-0.1,1.5-0.2,2.2c0,0.3-0.1,0.6-0.2,0.9c-0.2,0.7-0.5,1.3-0.1,2.2c0,0,0,0.1,0,0.1c-0.5,0.3-0.4,0.8-0.6,1.2
									c-0.1,0.1-0.1,0.2-0.1,0.3c0.1,0.9-0.4,1.5-0.7,2.2c-0.8,1.7-1.8,3.4-2.8,4.9c-0.5,0.7-1.2,1.2-1.8,1.8
									c-0.2,0.2-0.4,0.5-0.6,0.6c-0.5,0.4-1.1,0.8-1.6,1.1C136.3,436.8,136,437,135.6,437.2z"/>
								<path class="st0" d="M134.8,438.5c0,0.2-0.1,0.3-0.1,0.5c-0.2,0.5-0.3,0.9-0.6,1.3c-0.1,0.2-0.3,0.4-0.5,0.6
									c-0.5,0.5-1,1.1-1.6,1.5c-0.2,0.2-0.6,0.2-1,0.3c-0.1,0-0.4-0.1-0.5-0.3c-0.2-0.2-0.3-0.5-0.3-0.6c0-0.2,0.1-0.4,0.3-0.4
									c0.6-0.1,0.9-0.6,1.2-1c0.4-0.6,0.9-1.1,1.7-1.5c0.3-0.1,0.5-0.4,0.7-0.5c0.1-0.1,0.3-0.1,0.4-0.1L134.8,438.5z"/>
							</g>
							<g>
								<path class="st0" d="M130.5,190.9c0.5,1.1,1,2.1,1.3,3.1c0.3,1,0.6,2,0.8,3c0.3,2.1,0.7,4.2,1,6.4c0.1,0.5,0.2,0.9,0.2,1.4
									c0.2,3.4,0.9,6.8,1.7,10.1c0.1,0.3,0.2,0.6,0.2,0.9c0.5,4.9,1.6,9.7,2.3,14.6c0.3,2.4,0.7,4.7,1.1,7.1
									c0.2,1.3,0.6,2.6,0.9,3.9c0.4,1.8,0.7,3.6,1,5.4c0.4,2.8,0.6,5.5,1.6,8.2c0.2,0.4,0.2,0.9,0.2,1.4c0.3,2.2,0.6,4.4,1.3,6.5
									c0.1,0.1,0.1,0.3,0.1,0.5c0.7,3.8,1.5,7.7,2.2,11.5c0.6,2.6,1.2,5.3,1.8,7.9c0.1,0.5,0.4,0.9,0.3,1.4
									c-0.1,3.2,1.2,6.1,1.6,9.2c0.1,0.7,0.3,1.4,0.5,2.1c0.8,3.5,1.8,6.9,2.5,10.5c0.6,3.1,1,6.3,1.6,9.4
									c0.2,1.2,0.5,2.3,0.8,3.5c0.1,0.4,0.2,0.8,0.3,1.1c0.4,2,1.2,3.7,2.4,5.3c1.2,1.5,2.8,2.6,4.6,3.5c3.6,1.5,8,1.4,11.4-0.6
									c2.3-1.2,4.1-3.2,5.1-5.9c2.1-5.8,4.8-11.3,7.3-16.9c1.1-2.6,2.4-5,3.4-7.6c1.8-5,4.3-9.6,6.2-14.5c1.3-3.2,2.9-6.4,3.8-9.8
									c0-0.1,0.1-0.3,0.2-0.5c1.6-4,3.4-7.9,4.9-11.9c2.8-7.3,6.2-14.3,9.3-21.5c1.6-3.8,3.1-7.7,4.7-11.5l5.8-13.4
									c0.5-1.2,0.8-2.4,1.2-3.6c0.2-0.7,0.4-1.4,0.8-2c0.6-1.4,1.4-2.7,2-4.1l4.6-10l2.3-5l1.1-2.5l0.5-1.2
									c0.1-0.2,0.1-0.4,0.2-0.6c0.1-0.9-0.3-1.9-1.1-2.4c-0.2-0.1-0.4-0.2-0.6-0.3c-0.2-0.1-0.4-0.1-1-0.2l-2.9-0.4
									c-3.8-0.5-7.6-1.1-11.5-1.5c-6.4-0.7-12.6-1.8-19-2.5c-2.6-0.3-5.2-0.9-7.8-0.9c-1.2,0-2.4-0.4-3.5-0.6
									c-5.4-0.8-10.9-1.6-16.3-2.4l-9-1.1c-5.4-0.8-10.9-1.6-16.3-2.5c-2.7-0.4-5.4-1-8.2-1.5c-2.1-0.4-4.1-0.7-6.1-1.1
									c-0.7-0.1-1.4-0.2-1.7-1c0.8-0.5,1.8-0.5,2.7-0.4c2.8,0.3,5.6,0.4,8.3,0.2c1-0.1,2.1,0,3.1,0.1c3.2,0.3,6.5,0.4,9.7,1
									c3,0.5,6,0.7,9,1l13.8,1.5c2.5,0.3,5.1,0.6,7.6,0.8c0.6,0.1,1.3,0,1.9-0.1c1.4-0.3,2.8-0.2,4.2,0l7.6,0.9c0.1,0,0.2,0,0.2,0
									c4.4,1.2,9,1.1,13.5,1.9c4.4,0.8,8.8,1.4,13.2,2l6.9,0.9l1.7,0.2c0.7,0.1,1.7,0.3,2.5,0.7c1.6,0.7,3,2,3.8,3.6
									c0.6,1.2,0.9,2.6,0.9,3.9c0,0.7-0.1,1.4-0.3,2l-0.3,0.9l-0.2,0.6l-2.1,4.9l-1.8,4.1l-7.1,16.7c-1.3,3-2.8,5.9-4,8.9
									c-1.8,4.5-3.6,9-5.4,13.5l-0.9,2.2c-1.2,2.8-2.5,5.5-3.7,8.3c-0.9,2-1.7,4.1-2.5,6.2l-1,2.4l-7.9,17.4c-0.5,1.1-1,2.1-1.9,3
									c-0.5,0.5-0.9,1.3-1.2,2c-0.6,1.4-1.2,2.8-1.8,4.2l-5.9,14.6c-0.2,0.4-0.4,0.9-0.5,1.4c-0.7,3.2-1.9,6.2-3.1,9.3
									c-0.6,1.5-1,3-1.5,4.5c-0.8,2.1-1.7,4.3-2.6,6.4l-1.6,3.5c-0.5,1.2-1,2.3-1.8,3.7c-1.4,2.7-3.6,5.1-6.3,6.6
									c-1.3,0.9-2.7,1.5-4.1,2.1c-0.2,0.1-0.4,0.2-0.5,0.2c-2.4,0.2-4.7,0.5-7.1,0.3c-1.6-0.2-3.2-0.5-4.7-1.1
									c-3-1.2-5.7-3.2-7.7-5.8c-0.4-0.6-0.8-1.3-1.3-1.9c-0.4-0.6-0.7-1.1-1.2-1.5c-0.4-1.4-0.4-2.5-0.5-3.5c-0.1-1.1-0.1-2-0.1-3
									c0.1-1.6-0.1-3.2-0.6-4.7c-0.6-2.2-1-4.4-1-6.6c0-0.5-0.1-1.1-0.1-1.7c-0.4-2.5-0.7-5-0.8-7.6c-0.1-1.8-0.3-3.6-0.7-5.4
									c-0.3-1.5-0.4-3.1-0.6-4.7c-0.2-1.7-0.4-3.5-0.7-5.2c-0.4-2.3-1.1-4.5-1.6-6.7c-0.6-2.6-1.1-5.1-1.7-7.7
									c-0.6-2.7-1.2-5.4-1.9-8.1c-0.2-1.1-0.5-2.2-0.7-3.3c-0.4-2.6-0.8-5.2-2.1-7.5c-0.1-0.1-0.1-0.3-0.1-0.5
									c0.2-1.6-0.4-3.1-0.6-4.7c0-0.4-0.1-0.8-0.2-1.2c-1-2.6-1.1-5.4-1.6-8.2c-1.1-6.9-2.2-13.7-3.1-20.6
									c-0.4-3.1-0.6-6.2-0.9-9.3c-0.1-1.1-0.3-2.2-0.3-3.3c-0.1-2.2-0.2-4.6-0.3-6.9C130.5,193.7,130.5,192.4,130.5,190.9z"/>
								<path class="st0" d="M129.3,185.1c-0.2-0.6-0.4-1.2-0.5-1.7c-0.5-1.7-0.9-3.4-1.4-5c-0.2-0.9-0.4-1.9-0.5-2.8
									c-0.2-1.4-0.6-2.7-0.5-4.2c0.1-1.4,0.9-2.8,2-3.6c1-0.7,2.2-0.8,3.2-0.6c0.3,0.1,0.6,0.5,0.5,0.7c-0.1,0.3-0.4,0.7-0.6,0.8
									c-0.4,0.2-0.7,0.3-1,0.3c-1.4,0.1-2.3,1.7-2.1,2.9c0.1,0.6,0.2,1.3,0.4,1.9l0.4,2.2c0.2,1.4,0.4,2.9,0.4,4.4
									c0,1.1,0.2,2.2,0.3,3.3c0,0.4-0.1,0.9-0.1,1.3L129.3,185.1z"/>
							</g>
						</g>
						<g>
							<path class="st0" d="M224.6,207.5c-0.3,0.1-0.5,0.2-0.8,0.3c-0.2,0-0.5,0.1-0.7,0c-0.5-0.1-0.9-0.2-1.4-0.2
								c-0.1,0-0.2,0-0.3,0c-0.7-0.3-1.5-0.3-2.2-0.4c-0.1,0-0.1,0-0.2,0c-1.1-0.3-2.1-0.3-3.2-0.6c-0.5-0.1-1-0.2-1.6-0.3
								c-0.3,0-0.6,0-0.9,0c-0.4,0-0.8-0.1-1.2-0.1c-0.6-0.1-1.2-0.3-1.8-0.2c-0.1,0-0.2,0-0.3-0.1c-0.5-0.1-1-0.2-1.5-0.1
								c0,0-0.1,0-0.1,0c-0.9-0.1-1.7-0.2-2.6-0.2c-0.6,0-1.2,0-1.8-0.1c-0.1,0-0.2,0.1-0.3,0c-0.6-0.4-1.4-0.1-2-0.3
								c-0.1,0-0.3,0-0.5,0c-0.8,0-1.6,0-2.4,0c-0.7,0-1.4-0.2-2.1-0.3c-0.3,0-0.5,0-0.8,0c-0.1,0-0.2,0-0.3,0
								c-2.1-0.3-4.2-0.5-6.4-1c-0.7-0.1-1.4-0.4-2.1-0.4c-1.4,0-2.7-0.4-4-0.6c-0.6-0.1-1.2-0.3-1.8-0.3c-1.2,0-2.3-0.4-3.4-0.4
								c-0.8-0.1-1.5-0.3-2.3-0.1c0,0-0.1,0-0.1,0c-0.9-0.1-1.9-0.2-2.8-0.3c-1.7-0.1-3.4-0.5-5.1-0.7c-0.9-0.1-1.8-0.1-2.7-0.2
								c-1.1-0.1-2.1-0.3-3.2-0.5c-0.3,0-0.6,0-0.8,0c-0.2,0-0.3,0-0.5,0c-0.3-0.1-0.6-0.2-1-0.2c-1.6-0.3-3.2-0.6-4.8-0.8
								c-1.7-0.2-3.4-0.6-5.1-0.7c-1.4-0.1-2.8-0.4-4.2-0.6c-0.6-0.1-1.1-0.2-1.7-0.1c-0.3,0-0.5-0.1-0.8-0.1
								c-1.2-0.2-2.4-0.4-3.6-0.6c-0.7-0.1-1.3-0.1-2-0.2c-1.2-0.2-2.4-0.4-3.6-0.6c-0.6-0.1-1.2-0.3-1.8-0.5
								c-0.4-0.1-0.9-0.2-1.3-0.3c-0.1,0-0.3,0-0.3-0.4c0.2-0.3,0.4-0.3,0.6-0.3c0.6,0.1,1.2,0,1.9-0.2c0.2-0.1,0.5-0.1,0.7,0
								c0.7,0.1,1.4,0,2.2,0.1c0.6,0.1,1.3,0.1,2,0.2c1,0.1,2,0.2,3,0.2c0.6,0,1.1,0.1,1.7,0.1c0.1,0,0.3,0,0.4-0.1
								c0.3-0.2,0.6-0.2,0.9-0.2c0.6,0.1,1.1,0.1,1.7,0.2c0,0,0,0,0.1,0c0.9,0.4,2,0.2,3,0.5c1,0.2,1.9,0.4,2.9,0.5
								c1,0.1,2,0.3,3,0.4c0.8,0.1,1.5,0.2,2.3,0.3c0.3,0,0.7,0.1,1,0.1c1.3,0.2,2.6,0.3,4,0.5c0.7,0.1,1.4,0.3,2.1,0.4
								c1.1,0.1,2.1,0.2,3.2,0.3c0.2,0,0.4,0,0.5,0.1c0.7,0.1,1.3,0.2,2,0.3c0.5,0.1,1,0.1,1.5,0.1c0.2,0,0.4,0,0.6,0.1
								c1.4,0.2,2.8,0.5,4.1,0.7c0.3,0,0.5,0.1,0.7,0.4c0.1,0.1,0.3,0.2,0.5,0.2c0.3,0.1,0.7,0.1,1,0.1c1.1,0.1,2.3,0.2,3.5,0.3
								c0.1,0,0.2,0,0.3,0c0.7-0.2,1.4-0.2,2.2-0.1c0.4,0,0.7-0.1,1.1,0c0.5,0,1,0.1,1.5,0.1c1.1,0.2,2.2,0.4,3.3,0.6
								c0.3,0,0.6,0,0.8,0c0,0,0.1,0,0.1,0c0.4,0.3,0.9,0.2,1.3,0.3c0.3,0,0.6,0.1,0.9,0.1c0.6,0.1,1.2,0.2,1.8,0.3
								c0.3,0,0.6,0.1,0.8-0.1c0.2,0.1,0.4,0.3,0.6,0.4c0.2,0.1,0.4,0.2,0.6,0.3c0.3,0.2,0.7,0.3,1,0.3c0.5-0.1,1,0,1.4,0.3
								c0.1,0.1,0.2,0.1,0.4,0.1c0.6,0.1,1.1,0.2,1.6,0.5c0.4,0.2,0.8,0.3,1.2,0.3c0.4,0,0.7,0.2,1,0.3c0.4,0.1,0.8,0.2,1.1,0.3
								c0.5,0,1,0,1.5,0c0.6,0,1.2,0,1.7,0.1c0.6,0,1.2,0,1.9,0c0.2,0,0.5,0,0.7,0.1c0.6,0.1,1.1,0.2,1.7-0.1c0,0,0.1,0,0.1,0
								c0.3,0.3,0.7,0.1,1,0.2c0.1,0,0.2,0.1,0.3,0c0.6-0.2,1.2,0.1,1.8,0.2c1.5,0.2,3,0.5,4.5,0.8c0.7,0.1,1.3,0.4,2,0.6
								c0.2,0.1,0.5,0.1,0.7,0.2c0.5,0.2,1,0.4,1.4,0.6C224.1,207.2,224.3,207.3,224.6,207.5z"/>
							<path class="st0" d="M226,207.6c0.1,0,0.3-0.1,0.4-0.1c0.4,0,0.8-0.1,1.2-0.1c0.2,0,0.4,0,0.6,0.1c0.6,0.1,1.2,0.2,1.8,0.3
								c0.2,0.1,0.5,0.2,0.7,0.4c0.1,0,0.1,0.2,0.1,0.4c0,0.2-0.1,0.4-0.2,0.4c-0.1,0.1-0.3,0.1-0.4,0c-0.4-0.3-0.9-0.2-1.4-0.2
								c-0.6,0-1.3-0.1-1.9-0.4c-0.2-0.1-0.5-0.1-0.7-0.2c-0.1,0-0.2-0.1-0.2-0.2C225.9,207.7,225.9,207.6,226,207.6z"/>
						</g>
					</g>
					<g>
						<g>
							<g>
								<path class="st0" d="M386.9,442c0.5-0.3,1-0.6,1.4-0.8c0.5-0.2,0.9-0.2,1.4-0.2c1,0,1.9,0.1,2.9,0.2c0.2,0,0.4,0,0.6,0
									c1.5,0.5,3,0.4,4.6,0.5c0.1,0,0.3,0,0.4,0c2.1,0.6,4.4,0.6,6.5,1.3c1.1,0.3,2.1,0.6,3.1,1c0.6,0.1,1.2,0.2,1.8,0.4
									c0.8,0.2,1.6,0.6,2.4,1.1c1.2,0.7,2,1.7,3.4,2.4c0.2,0.1,0.3,0.4,0.5,0.6c0.7,1,1.1,2.2,1.5,3.4c0,0.1,0,0.2,0,0.3
									c0.3,2.3-0.8,4.2-1.7,5.9c-0.8,1.1-1.5,2.2-2.4,3.2c-0.1,0.2-0.2,0.5-0.4,0.5c-1.5,0.5-2.2,2-3.5,2.6
									c-0.3,0.1-0.5,0.4-0.8,0.6c-1.2,1.1-2.5,2.2-3.9,3.1c-1.2,0.8-2.6,1.2-3.9,1.9c-0.5,0.2-0.9,0.6-1.4,0.9
									c-0.2,0.1-0.3,0.2-0.4,0.3c-4,1.8-8.2,3.4-12.4,4.4c-1.4,0.3-2.8,0.5-4.1,1.1c-2.6,1-5.3,1.5-8,2c-1.2,0.3-2.5,0.3-3.7,0.7
									c-2.2,0.8-4.6,0.8-6.9,1.4c-1.5,0.4-3.1,0.4-4.6,1.1c-0.1,0-0.1,0-0.2,0c-1.9,0.4-3.8,0.6-5.7,0.9c-3.5,0.7-7,0.6-10.5,0.7
									c-1.9,0.1-3.7,0.3-5.6,0.4c-2.2,0-4.4-0.1-6.6-0.3c-0.6,0-1.2,0.1-1.8,0.1c-0.3,0-0.7,0.1-1,0c-0.7-0.1-1.4-0.4-2-0.5
									c-3.4-0.6-6.6-1.6-10-2.9c-1.8-0.7-3.5-1.7-5.1-3.2c-1.5-1.6-2.9-4-2.8-6.6c0.1-2.1,1-3.8,2-5.2c1-1.4,2.1-2.5,3.2-3.5
									c0.9-0.8,2-1.5,2.8-2.4c0.4-0.4,0.9-0.6,1.4-0.9c2.2-1.3,4.5-2.4,6.7-3.5c1.2-0.6,2.4-1.3,3.6-1.9c2.3-0.9,4.6-1.8,7-2.5
									c1.2-0.3,2.4-0.5,3.6-0.8c0.9-0.2,1.8-0.4,2.7-0.6c0.3-0.1,0.6-0.2,1,0.4c-0.1,0.7-0.5,0.9-0.9,1.1c-1.2,0.4-2.2,1-3.2,2
									c-0.3,0.3-0.8,0.5-1.2,0.7c-1.3,0.5-2.5,1.4-3.9,1.8c-1.3,0.4-2.4,1.1-3.6,1.7c-1.8,0.9-3.5,1.9-5.2,2.9
									c-0.9,0.6-1.9,1.1-2.7,1.8c-0.2,0.2-0.4,0.4-0.5,0.7c-0.2,0.7-0.7,1.1-1.1,1.5c-0.8,0.6-1.6,1.3-2.4,1.9c0,0,0,0-0.1,0.1
									c-1.7,0.7-2.5,2.4-3.3,3.5c-0.8,1.1-1.1,2-0.6,2.9c0.5,0.9,1.7,1.9,3.2,2.6c1.2,0.5,2.5,1,3.9,1.4c0.6,0.1,1.1,0.4,1.8,0.5
									c2.4,0.5,5,0.9,7.5,1.1c1.4,0.1,2.8,0.4,4.2,0.4c2.1,0.1,4.2-0.1,6.2-0.3c0.4,0,0.7,0,1,0c1.3,0,2.6,0,3.9,0
									c1-0.1,1.9-0.2,2.9-0.4c0.4,0,0.8-0.1,1.1-0.1c2.8-0.1,5.5-0.3,8.3-0.6c0.5,0,1,0,1.6,0.3c0.3,0.2,0.7,0.2,1.1,0.2
									c0.7,0,1.3-0.2,2-0.3c2.2-0.5,4.5-1,6.7-1.6c0.2,0,0.4-0.1,0.6-0.2c1.2-0.9,2.6-1.3,3.9-1.7c0.6-0.2,1.2-0.6,1.9-0.8
									c1-0.3,1.9-0.6,2.9-0.9c2.1-0.5,4.3-1,6.4-1.6c0.5-0.1,1-0.4,1.5-0.6c0.1,0,0.1-0.1,0.2-0.1c1,0.2,1.7-0.3,2.5-0.6l1.6-0.6
									l3.3-1.2c0.5-0.2,1.1-0.3,1.1-1c0.5,0,1,0,1.4,0c0.4,0,0.9-0.1,1.3,0c0.8,0.1,1.4-0.2,2-0.6c0.7-0.7,1.6-1,2.6-1.2
									c0.2,0,0.5-0.1,0.7-0.2c1-0.5,2-0.9,3.1-1.2c0.8-0.2,1.5-0.6,2.1-1.1c0.5-0.5,1.2-0.7,1.8-1c0.7-0.4,1.3-0.8,1.9-1.3
									c0.7-0.7,1.2-1.6,1.7-2.4c0.3-0.5,0.5-1,0.7-1.4l0.3-0.7l0.1-0.7l0.1-0.7l-0.1-0.7c0-0.5-0.2-0.9-0.4-1.2
									c-0.1-0.3-0.5-0.6-0.6-0.9c-0.5-0.7-1.2-1.5-2.5-1.2c-0.1,0-0.1,0-0.1-0.1c-0.2-0.7-1-0.6-1.5-1c-0.1-0.1-0.3-0.2-0.4-0.2
									c-1.2,0.1-2.1-0.6-3.2-0.9c-2.7-0.8-5.6-1.4-8.6-2c-1.3-0.2-2.6-0.7-4-1c-0.5-0.1-1-0.1-1.4-0.3c-0.9-0.3-2-0.6-3-1
									C388.2,442.4,387.6,442.2,386.9,442z"/>
								<path class="st0" d="M384.3,442.2c-0.3,0.1-0.5,0.2-0.8,0.3c-0.8,0.2-1.6,0.4-2.3,0.6c-0.4,0.1-0.8,0.1-1.2,0.1
									c-1.2,0-2.5,0.2-3.7,0.2c-0.5,0-1.1-0.2-1.6-0.4c-0.1,0-0.4-0.4-0.4-0.6c0-0.3,0.1-0.8,0.2-0.9c0.2-0.2,0.5-0.3,0.8-0.2
									c1,0.3,1.9,0.1,2.9-0.1c1.3-0.2,2.6-0.3,3.9,0.1c0.5,0.1,1,0.1,1.5,0.2c0.2,0,0.4,0.2,0.6,0.3L384.3,442.2L384.3,442.2z"/>
							</g>
							<g>
								<path class="st0" d="M331.5,338.5c0.3,0.3,0.6,0.6,0.8,0.9c0.2,0.3,0.4,0.6,0.5,1c0.2,0.7,0.3,1.4,0.5,2.1
									c0,0.2,0.1,0.3,0.1,0.5c0,1.2,0.4,2.3,0.7,3.4c0,0.1,0.1,0.2,0.1,0.3c0.1,1.7,0.7,3.3,0.9,5c0.1,0.8,0.2,1.6,0.4,2.4
									c0.1,0.5,0.3,0.9,0.4,1.3c0.2,0.6,0.3,1.2,0.4,1.8c0.1,0.9,0.1,1.9,0.6,2.8c0.1,0.1,0.1,0.3,0.1,0.5
									c0.1,0.8,0.2,1.5,0.5,2.2c0,0,0,0.1,0,0.2c0.3,1.3,0.6,2.6,0.9,3.9c0.2,0.9,0.5,1.8,0.7,2.7c0,0.2,0.2,0.3,0.1,0.5
									c-0.2,1.1,0.5,2.1,0.5,3.1c0,0.2,0.1,0.5,0.2,0.7c0.4,1.2,0.8,2.3,1,3.5c0.2,1.1,0.3,2.1,0.5,3.2c0.1,0.4,0.2,0.8,0.3,1.2
									c0,0.1,0.1,0.2,0.1,0.4c0.5,3.3,1,6.5,1.3,9.8c0.1,1.1,0.1,2.2,0.4,3.2c0.5,2,0.6,4.1,0.8,6.2c0.1,0.9,0.1,1.9,0.3,2.8
									c0.5,1.8,0.4,3.6,0.7,5.3c0.2,1.2,0.2,2.4,0.7,3.5c0,0,0,0.1,0,0.2c0.2,1.5,0.4,2.9,0.6,4.3c0.5,2.6,0.5,5.3,0.8,7.9
									c0.2,1.4,0.4,2.8,0.6,4.2c0.2,1.6,0.2,3.3,0.3,5c0,0.4,0.2,1,0.2,1.4c0,0.3,0.1,0.6,0.1,0.8c-0.1,0.5-0.2,1.2-0.3,1.6
									c-0.4,2.7-1.3,5.2-2.2,7.7c-1,2.6-2.5,4.9-4.3,7.3c-1.4,1.9-3.1,3.2-4.4,4.8c-0.5,0.6-1.1,1.2-1.3,2c0,0.3-0.4,0.6-0.5,0.9
									c-0.7,1.3-0.8,2.9-0.3,4.1c0.3,0.6,0.9,1.1,1.5,1.5c1.2,0.8,2.9,1.3,4.6,1.6c0.9,0.1,1.8,0.4,2.7,0.5
									c0.7,0.1,1.4,0.1,2.1,0.2c0.2,0,0.5,0,0.6,0.5c-0.2,0.4-0.6,0.5-0.9,0.5c-1,0-1.9,0.2-2.9,0.6c-0.4,0.1-0.7,0.1-1.1,0.1
									c-1.1,0-2.3,0-3.5-0.3c-1-0.3-2.2-0.6-3.2-1.2c-1.6-0.9-3-2.7-3.3-4.6c-0.2-1.1-0.1-2.1,0-3.1c0-0.2,0-0.5,0-0.8
									c-0.2-0.6,0-1.2,0.3-1.8c0.5-1,1-1.8,1.6-2.6l0.1-0.1c1.4-1.1,2.1-2.5,3.3-3.5c1.1-1,2.1-2,2.8-3.1c0.8-1.2,1.5-2.5,2.1-3.9
									c0.4-1,0.8-2.1,1.1-3.1l0.4-1.4c0.4-1.8,0.7-3.8,0.6-5.6c0-1,0-2.1-0.1-3.2c-0.2-1.6-0.5-3.2-0.7-4.9c0-0.3-0.1-0.5-0.1-0.8
									c-0.1-1-0.1-2.1-0.2-3.1c-0.1-0.8-0.2-1.5-0.4-2.2c0-0.3-0.1-0.6-0.1-0.9l-0.5-6.5c0-0.4,0-0.8,0.2-1.2
									c0.1-0.3,0.2-0.5,0.2-0.8c0-0.5-0.1-1-0.2-1.5c-0.3-1.7-0.6-3.5-0.9-5.3c0-0.2,0-0.3-0.1-0.5c-0.6-1-0.8-2.1-1-3.2
									c-0.1-0.5-0.4-1-0.5-1.6c-0.2-0.8-0.3-1.5-0.4-2.3c-0.2-1.7-0.4-3.5-0.5-5.2c0-0.4-0.2-0.8-0.3-1.3c0,0-0.1-0.1-0.1-0.1
									c0.2-0.7,0-1.4-0.1-2l-0.2-1.4l-0.4-2.7c-0.1-0.4,0-0.9-0.5-1.1c0.1-0.4,0.2-0.8,0.3-1.1c0.1-0.3,0.1-0.7,0.2-1
									c0.2-0.6,0.1-1.1-0.1-1.6c-0.3-0.7-0.4-1.5-0.3-2.2c0-0.2,0-0.4,0-0.6c-0.1-0.9-0.2-1.7-0.1-2.6c0.1-0.6,0-1.2-0.1-1.9
									c-0.1-0.5-0.1-1.1-0.1-1.6c0-0.6,0-1.2-0.2-1.8c-0.2-0.8-0.5-1.5-0.7-2.3c-0.2-0.9-0.5-1.7-0.7-2.6
									c-0.3-0.9-0.6-1.8-0.8-2.7c-0.1-0.4-0.2-0.7-0.3-1.1c-0.2-0.9-0.2-1.8-1-2.5c0,0-0.1-0.1-0.1-0.1c0.2-0.6-0.1-1.1-0.2-1.6
									c0-0.1,0-0.3-0.1-0.4c-0.5-0.8-0.5-1.8-0.7-2.7c-0.4-2.3-0.8-4.5-1.2-6.9c-0.2-1-0.1-2.1-0.2-3.2c0-0.4-0.1-0.8-0.1-1.1
									c0-0.7,0-1.6,0-2.4C331.4,339.5,331.5,339,331.5,338.5z"/>
								<path class="st0" d="M330.9,336.6c-0.1-0.2-0.2-0.4-0.3-0.5c-0.3-0.5-0.6-1.1-0.9-1.6c-0.1-0.3-0.2-0.6-0.3-0.9
									c-0.3-0.9-0.6-1.8-0.8-2.7c-0.1-0.4,0-0.8,0-1.3c0-0.1,0.2-0.3,0.4-0.4c0.2-0.1,0.5-0.1,0.6,0c0.2,0.1,0.3,0.4,0.3,0.6
									c0,0.8,0.3,1.5,0.6,2.1c0.4,0.9,0.7,1.9,0.7,2.9c0,0.4,0.1,0.8,0.1,1.1c0,0.1-0.1,0.3-0.1,0.5L330.9,336.6z"/>
							</g>
							<g>
								<path class="st0" d="M380.1,463.9c0-0.2,0-0.5,0.1-0.6c0-0.1,0.1-0.2,0.2-0.2c0.2,0,0.3,0,0.5-0.1c0,0,0.1-0.1,0.1,0
									c0.3,0.2,0.6,0,0.8-0.2c0,0,0-0.1,0.1,0c0.5,0.1,0.7-0.2,1.1-0.2c0.2,0,0.4,0,0.5-0.1c0.1,0,0.1-0.2,0.2-0.3
									c0.1-0.1,0.2-0.1,0.4-0.2c0.2,0,0.5,0,0.5-0.4c0-0.1,0.1,0,0.1,0c0.2,0,0.4,0,0.4-0.3c0,0,0,0,0,0c0.2-0.2,0.4-0.3,0.6-0.6
									c0.1-0.1,0.2-0.4,0.3-0.5c0,0,0-0.1,0-0.1c0.4,0.2,0.2-0.4,0.5-0.4c0.1,0,0-0.1,0-0.1c0-0.3,0-0.6,0-0.8
									c0.1-0.2,0.2-0.3,0.3-0.4c0,0,0-0.1,0-0.2c0,0-0.1-0.1,0-0.1c0.1-0.4,0.2-0.7,0.5-1.5c0.1-0.2,0.3-0.4,0.1-0.5
									c-0.3-0.3,0-0.7-0.1-1c0-0.1,0.1-0.4-0.1-0.5c-0.3-0.2-0.2-0.6-0.4-0.8c-0.1-0.1-0.2-0.4-0.6-0.3c0,0,0,0,0,0
									c-0.2-0.2-0.4-0.4-0.6-0.5c-0.5-0.1-0.7-0.7-1.2-1c-0.2-0.2-0.6-0.2-0.8-0.3c-0.3-0.2-0.6-0.4-0.9-0.6c-0.1,0-0.2,0-0.3,0
									c-0.1,0-0.1,0-0.2,0c-0.1-0.1-0.1-0.2-0.2-0.3c-0.5-0.4-0.9-0.8-1.4-1c-0.6-0.2-1-0.7-1.7-1c-0.5-0.2-0.9-0.7-1.4-0.9
									c-0.2-0.1-0.3-0.4-0.6-0.3c-0.1,0-0.1-0.2-0.2-0.2c-0.3-0.3-0.6-0.7-0.9-1c-0.2-0.2-0.5-0.2-0.6-0.4c-0.3-0.3-0.6-0.7-0.9-1
									c-0.1-0.2-0.2-0.4-0.3-0.6c-0.1-0.2-0.2-0.3-0.3-0.5c0,0-0.1-0.1,0.2-0.5c0.3-0.3,0.4-0.3,0.5-0.3c0.2,0.1,0.5,0.1,0.9-0.1
									c0.1-0.1,0.2,0,0.3,0c0.2,0.1,0.6,0.1,0.7,0.3c0.1,0.2,0.4,0.2,0.6,0.3l1,0.5c0.2,0.1,0.3,0.2,0.5,0.3c0,0,0.1,0,0.3-0.1
									c0.3-0.2,0.4-0.2,0.5-0.1c0.1,0.1,0.3,0.2,0.5,0.3l0,0c0,0.6,0.5,0.4,0.7,0.6c0.2,0.3,0.5,0.5,0.7,0.7
									c0.3,0.2,0.6,0.3,0.9,0.5l0.7,0.3l0.3,0.2c0.4,0.2,0.9,0.4,1.3,0.6c0.2,0.1,0.4,0.4,0.7,0.5c0.4,0.2,0.8,0.3,1.2,0.4
									c0.1,0,0.1,0.1,0.2,0.1c0.2,0.2,0.4,0.4,0.6,0.5c0.2,0.1,0.4,0.2,0.5,0.3c0.1,0,0.1,0.1,0.2,0.1c0.4,0.4,0.8,0.9,1.1,1.5
									c0.1,0.1,0.1,0.2-0.1,0.5c-0.1,0.2-0.1,0.3-0.1,0.3c0.1,0.1,0.1,0.2,0.2,0.3c0.3,0.4,0.7,0.7,1,1.2c0,0,0,0.1,0.1,0.1
									c0.5,0.1,0.7,0.4,0.9,0.8c0.1,0.1,0.3,0.3,0.4,0.4c0.1,0.2,0.2,0.5,0.2,0.7c0,0.5-0.1,1.1-0.1,1.6c0,0.1,0.1,0.3,0.1,0.4
									c0,0,0.1,0,0,0c-0.4,0.2-0.2,0.4-0.3,0.6c0,0.1,0,0.3-0.1,0.4c0,0.3-0.1,0.5-0.3,0.8c-0.1,0.1-0.2,0.2,0.2,0.5
									c-0.2,0.1-0.4,0.1-0.5,0.1c-0.1,0-0.2,0.1-0.4,0.1c-0.3,0-0.4,0.1-0.4,0.3c0,0.3-0.1,0.5-0.4,0.5c-0.1,0-0.1,0-0.2,0.1
									c-0.2,0.1-0.4,0.3-0.7,0.3c-0.2,0-0.4,0.1-0.5,0.2c-0.1,0.1-0.3,0.1-0.4,0.2c-0.1,0.1-0.3,0.1-0.4,0.2
									c-0.1,0.1-0.2,0.4-0.3,0.6c-0.1,0.2-0.3,0.4-0.4,0.6c-0.1,0.2-0.3,0.4-0.5,0.6c-0.1,0.1-0.1,0.1-0.2,0.2
									c-0.2,0.1-0.4,0.1-0.4,0.8c0,0,0,0.1,0,0c-0.3-0.2-0.3,0-0.4,0c0,0-0.1,0-0.1,0c-0.1,0.4-0.4,0.3-0.6,0.4
									c-0.6,0.1-1.1,0.3-1.8,0.3c-0.3,0-0.6-0.2-0.9-0.3c-0.1,0-0.2,0-0.3-0.1c-0.2-0.1-0.5-0.3-0.7-0.4
									C380.4,464.2,380.3,464,380.1,463.9z"/>
								<path class="st0" d="M379.7,464.1c0,0.1-0.1,0.1-0.1,0.2c-0.1,0.2-0.2,0.3-0.3,0.5c-0.1,0.1-0.1,0.1-0.2,0.1
									c-0.2,0-0.4,0.1-0.7,0.1c-0.1,0-0.2-0.2-0.4-0.3c0,0-0.1-0.3-0.2-0.4c-0.1-0.2-0.1-0.5-0.1-0.6c0-0.1,0-0.2,0.1-0.1
									c0.2,0.2,0.4,0.1,0.5,0c0.2-0.1,0.4-0.2,0.7,0c0.1,0.1,0.2,0.1,0.3,0.1c0,0,0.1,0.1,0.2,0.2L379.7,464.1z"/>
							</g>
							<g>
								<path class="st0" d="M368.6,437.8c-0.3-0.1-0.7-0.2-1-0.4c-0.2-0.1-0.5-0.4-0.6-0.6c-0.3-0.5-0.6-1-0.9-1.5
									c-0.1-0.1-0.2-0.2-0.2-0.3c-0.2-0.9-0.8-1.7-1.3-2.4c0-0.1-0.1-0.1-0.1-0.2c-0.4-1.3-1.2-2.4-1.6-3.7
									c-0.2-0.6-0.4-1.2-0.7-1.8c-0.1-0.3-0.4-0.6-0.5-1c-0.2-0.5-0.4-0.9-0.5-1.4c-0.2-0.7-0.2-1.5-0.7-2.1
									c-0.1-0.1-0.1-0.2-0.1-0.4c-0.1-0.6-0.2-1.2-0.5-1.7c0,0,0-0.1,0-0.1c-0.3-1-0.5-2-0.8-3c-0.2-0.6-0.4-1.4-0.7-2.1
									c0-0.1-0.2-0.2-0.1-0.4c0.3-0.9-0.4-1.6-0.4-2.4c0-0.2-0.1-0.4-0.2-0.5c-0.3-0.9-0.7-1.8-0.9-2.7c-0.2-0.8-0.2-1.7-0.4-2.5
									c0-0.3-0.2-0.6-0.3-0.9c0-0.1-0.1-0.2-0.1-0.3c-0.4-2.5-0.9-5.1-1.1-7.7c-0.1-0.9,0-1.7-0.3-2.5c-0.5-1.6-0.5-3.2-0.7-4.8
									c-0.1-0.7,0-1.5-0.2-2.2c-0.4-1.4-0.3-2.8-0.6-4.1c-0.2-0.9-0.2-1.9-0.7-2.7c0,0,0-0.1,0-0.1c-0.2-1.1-0.3-2.3-0.6-3.4
									c-0.5-2-0.5-4.1-0.7-6.2c-0.1-1.1-0.4-2.2-0.6-3.2c-0.1-1.3-0.3-2.6-0.4-3.8c0-0.3-0.2-0.6-0.3-1c-0.1-0.2-0.1-0.4-0.1-0.5
									c0-0.4,0-0.8,0-1.2c-0.1-2-0.1-3.9-0.3-5.8c-0.3-2-0.2-4.1-0.5-6.1c-0.3-1.7-0.2-3.4-0.4-5.1c-0.1-0.7,0-1.4-0.3-2.1
									c-0.1-0.3,0-0.6,0-1c0-1.5,0-3,0-4.4c0-0.8-0.1-1.6-0.1-2.4c0-1.5,0.1-3,0.3-4.5c0.1-0.8,0.2-1.5,0.5-2.2
									c0.2-0.6,0.3-1.1,0.5-1.7c0.1-0.2,0.1-0.4,0.6-0.4c0.4,0.3,0.4,0.6,0.4,0.8c-0.1,0.7-0.1,1.5,0.3,2.2
									c0.1,0.3,0.2,0.5,0.2,0.8c0,0.9,0.2,1.7,0.1,2.5c-0.1,0.8,0.1,1.6,0.1,2.4c0.1,1.2,0.2,2.4,0.3,3.6c0.1,0.7,0.1,1.3,0.2,2
									c0,0.2,0.1,0.3,0.3,0.5c0.4,0.3,0.5,0.7,0.5,1.1c0.1,0.6,0.1,1.3,0.2,2c0,0,0,0,0,0.1c-0.3,1.2,0.2,2.4,0.2,3.6
									c0,1.2,0,2.4,0.1,3.5c0.1,1.2,0.2,2.4,0.4,3.6l0.3,2.8l0.1,1.2l0.5,4.8c0.1,0.9,0.1,1.7,0.2,2.6c0.2,1.3,0.4,2.5,0.7,3.8
									c0,0.2,0.1,0.4,0.1,0.6c0.1,0.8,0.1,1.6,0.2,2.4c0.1,0.6,0.2,1.2,0.3,1.7c0,0.2,0.1,0.5,0.1,0.7l0.4,5c0,0.3,0,0.6-0.2,1
									c-0.1,0.2-0.2,0.4-0.2,0.6c0,0.4,0.1,0.8,0.1,1.2c0.3,1.4,0.6,2.7,0.9,4.1c0,0.1,0,0.2,0.1,0.4c0.5,0.8,0.7,1.6,0.9,2.5
									c0.1,0.4,0.3,0.8,0.4,1.2c0.2,0.6,0.3,1.2,0.4,1.8c0.1,1.3,0.3,2.7,0.4,4c0,0.3,0.2,0.6,0.3,1c0,0,0.1,0.1,0,0.1
									c-0.3,0.6,0,1.1,0.1,1.6l0.2,1l0.3,2.1c0,0.3,0,0.7,0.5,0.8c-0.1,0.3-0.2,0.6-0.3,0.9c-0.1,0.3-0.1,0.5-0.2,0.8
									c-0.2,0.5-0.2,0.9,0,1.3c0.3,0.5,0.4,1.1,0.2,1.8c0,0.1,0,0.3,0,0.5c0,0.7,0.1,1.3,0,2c-0.1,0.5,0,1,0.1,1.5
									c0.1,0.4,0,0.8,0.1,1.3c0,0.5,0,0.9,0.1,1.4c0.2,0.6,0.4,1.2,0.6,1.7c0.2,0.7,0.5,1.3,0.7,2c0.2,0.7,0.5,1.4,0.8,2.1
									c0.1,0.3,0.2,0.5,0.3,0.8c0.2,0.6,0.3,1.3,1,1.8c0,0,0.1,0.1,0.1,0.1c-0.2,0.5,0.2,0.8,0.2,1.2c0,0.1,0,0.2,0.1,0.3
									c0.6,0.5,0.6,1.3,0.9,2c0.6,1.7,1.3,3.3,2,5c0.3,0.7,0.5,1.6,0.8,2.3c0.1,0.3,0.2,0.5,0.3,0.8c0.1,0.6,0.3,1.2,0.5,1.9
									C368.4,437,368.5,437.4,368.6,437.8z"/>
								<path class="st0" d="M369.6,439c0.1,0.1,0.3,0.2,0.4,0.3c0.4,0.3,0.8,0.6,1.1,0.8c0.2,0.1,0.4,0.4,0.5,0.5
									c0.5,0.5,0.9,1,1.5,1.6c0.2,0.2,0.3,0.6,0.4,0.9c0,0.1-0.1,0.4-0.2,0.5c-0.2,0.1-0.4,0.3-0.5,0.3c-0.2,0-0.4-0.1-0.4-0.3
									c-0.2-0.6-0.7-0.9-1.2-1.3c-0.6-0.5-1.2-1.1-1.5-2c-0.1-0.3-0.3-0.5-0.4-0.8c0-0.1,0-0.3,0-0.4L369.6,439z"/>
							</g>
							<g>
								<path class="st0" d="M376,191.2c0.1,1.2,0.2,2.3,0.2,3.3c0,1-0.1,2.1-0.3,3.1c-0.4,2.1-0.8,4.2-1.3,6.3
									c-0.1,0.5-0.1,1-0.2,1.4c-1,3.3-1.5,6.7-1.9,10.1c0,0.3,0,0.6-0.1,0.9c-1.2,4.8-1.8,9.7-2.9,14.5c-0.5,2.3-1,4.7-1.4,7
									c-0.2,1.3-0.3,2.7-0.5,4c-0.3,1.8-0.6,3.6-1,5.4c-0.5,2.7-1.4,5.4-1.3,8.2c0,0.5-0.2,0.9-0.3,1.4c-0.4,2.2-1,4.4-1,6.6
									c0,0.2,0,0.3-0.1,0.5c-0.6,3.9-1.2,7.7-1.9,11.6c-0.4,2.7-0.7,5.4-1.1,8c-0.1,0.5,0,1-0.2,1.4c-1.1,2.9-0.9,6.1-1.7,9.1
									c-0.2,0.7-0.2,1.4-0.2,2.1c-0.4,3.6-0.8,7.1-1.3,10.7c-0.5,3.1-1.2,6.3-1.8,9.4c-0.2,1.2-0.3,2.4-0.4,3.5
									c-0.1,0.4,0,0.8-0.1,1.2c-0.6,2.8-1.8,5.6-3.6,7.9c-1.9,2.3-4.3,4.1-7,5.2c-5.4,2.2-11.8,1.8-16.6-1.5
									c-3.2-2.1-5.4-5.4-6.9-8.6c-2.7-5.5-4.8-11.3-7.2-17c-1.1-2.6-2-5.2-3.2-7.7c-2.4-4.7-4-9.7-6.2-14.5
									c-1.5-3.2-2.6-6.5-4.5-9.5c-0.1-0.1-0.1-0.3-0.2-0.4c-1.7-3.9-3.4-7.9-5.2-11.8c-3.4-7.1-6-14.4-9.1-21.6
									c-1.6-3.8-3.5-7.5-5.1-11.3l-5.6-13.4c-0.5-1.2-1.2-2.2-1.7-3.4c-0.3-0.6-0.7-1.3-0.9-1.9c-0.5-1.4-1-2.9-1.5-4.3l-4.1-10.2
									l-2.1-5.1l-1.1-2.5l-0.5-1.3c-0.2-0.6-0.4-1.3-0.5-2c-0.4-3,1.1-6,3.6-7.6c0.6-0.4,1.3-0.7,2-0.9c0.7-0.2,1.5-0.3,1.9-0.3
									l2.9-0.3c3.8-0.5,7.7-0.9,11.5-1.5c6.3-1,12.7-1.5,19-2.4c2.6-0.4,5.2-0.5,7.8-1.2c1.1-0.3,2.4-0.2,3.6-0.4
									c5.5-0.6,11-1.2,16.4-1.8l9-1.3c5.5-0.6,10.9-1.2,16.4-1.8c2.8-0.3,5.5-0.4,8.3-0.6c2.1-0.2,4.1-0.4,6.2-0.5
									c0.7-0.1,1.4-0.2,1.9,0.5c-0.6,0.7-1.6,0.9-2.5,1.1c-2.8,0.4-5.5,1-8.1,1.9c-1,0.3-2,0.5-3,0.7c-3.2,0.5-6.4,1.3-9.7,1.6
									c-3,0.2-6,0.9-9,1.3l-13.7,2.1c-2.5,0.4-5,0.8-7.6,1.1c-0.6,0.1-1.2,0.3-1.8,0.6c-1.3,0.7-2.6,0.9-4.1,1.1l-7.6,1.1
									c-0.1,0-0.2,0-0.2,0c-4.6,0-9,1.2-13.5,1.6c-4.5,0.4-8.9,0.9-13.3,1.4l-6.9,0.9l-1.7,0.2c-0.5,0.1-0.6,0.1-0.9,0.2
									c-0.5,0.2-0.9,0.6-1.1,1.1c-0.2,0.4-0.3,0.8-0.3,1.1c0,0.2,0,0.4,0.1,0.6l0.1,0.3l0.3,0.6l2.1,4.8l1.8,4.2l7.1,16.7
									c1.3,3,2.4,6.1,3.7,9.1c2,4.4,4,8.9,6,13.3l0.9,2.2c1.1,2.8,2.3,5.6,3.4,8.4c0.9,2,1.8,4.1,2.8,6.1l1,2.4l7.1,17.8
									c0.5,1.1,0.8,2.2,0.9,3.4c0,0.8,0.3,1.5,0.6,2.3c0.5,1.4,1.1,2.8,1.8,4.2l6.5,14.4c0.2,0.4,0.4,0.9,0.6,1.3
									c1.8,2.7,3.2,5.7,4.6,8.6c0.7,1.4,1.5,2.8,2.2,4.2c1,2.1,1.9,4.2,2.8,6.3l1.4,3.5c0.5,1.2,1,2.5,1.4,3.3
									c0.9,1.9,2.2,3.4,3.9,4.5c0.8,0.6,1.8,0.9,2.8,1.1c0.1,0,0.3,0,0.4,0c1.3,1,3.1,0.8,4.7,0.7c1.1-0.2,2.2-0.4,3.2-0.8
									c2-0.8,3.8-2.1,5.2-3.8c0.3-0.4,0.6-0.8,0.8-1.2c0.2-0.4,0.2-0.9,0.1-1.3c0.7-0.7,1-1.4,1.3-2.1c0.4-0.6,0.6-1.7,1-2.5
									c0.6-1.5,1-3,1.1-4.6c0.1-2.2,0.6-4.4,1.3-6.5c0.2-0.5,0.3-1.1,0.4-1.6c0.5-2.5,1.1-5,1.9-7.4c0.6-1.7,1-3.5,1.2-5.4
									c0.2-1.6,0.7-3.1,1.1-4.6c0.4-1.7,0.9-3.4,1.1-5.1c0.4-2.3,0.5-4.6,0.8-6.9c0.3-2.6,0.7-5.2,1-7.8c0.4-2.8,0.7-5.5,1.1-8.3
									c0.1-1.1,0.3-2.2,0.5-3.3c0.5-2.6,1.1-5.2,0.6-7.8c0-0.1,0-0.3,0-0.5c0.8-1.4,0.7-3.1,1.1-4.6c0.1-0.4,0.2-0.8,0.2-1.2
									c0-2.8,0.8-5.5,1.3-8.2c1.3-6.8,2.7-13.6,4.1-20.4c0.6-3,1.6-6,2.4-9c0.3-1.1,0.5-2.2,0.8-3.2c0.7-2.1,1.4-4.4,2.1-6.6
									C375.1,193.8,375.6,192.6,376,191.2z"/>
								<path class="st0" d="M376.9,185.3c0-0.6,0.1-1.2,0.1-1.8c0.1-1.8,0.3-3.5,0.4-5.2c0.1-0.9,0.3-1.9,0.5-2.8
									c0.2-1.4,0.6-2.8,0.6-4.1c-0.1-1.4-0.8-2.6-1.8-3.6c-0.9-0.8-1.9-1.4-3.2-1.7c-0.3-0.1-0.8-0.4-0.8-0.6
									c0-0.3,0.4-0.8,0.9-0.9c0.8-0.2,1.8,0,2.6,0.4c2.6,1.4,4.5,4.1,4.5,7.1c0,1.1-0.2,1.7-0.3,2.5l-0.4,2.2
									c-0.3,1.4-0.7,2.9-1.1,4.2c-0.4,1.1-0.5,2.2-0.9,3.2c-0.1,0.4-0.4,0.8-0.5,1.2L376.9,185.3z"/>
							</g>
						</g>
						<g>
							<path class="st0" d="M280.4,206.7c0.2-0.2,0.4-0.4,0.7-0.5c0.2-0.1,0.4-0.2,0.6-0.2c0.5-0.1,0.9-0.1,1.4-0.1
								c0.1,0,0.2,0,0.3,0c0.8,0.1,1.5-0.1,2.2-0.2c0.1,0,0.1,0,0.2,0c1.1,0,2.2-0.2,3.2-0.3c0.5,0,1-0.1,1.6-0.1
								c0.3,0,0.6-0.2,0.9-0.2c0.4-0.1,0.8-0.1,1.2-0.2c0.6-0.1,1.2,0,1.8-0.3c0.1,0,0.2,0,0.3,0c0.5,0,1,0,1.5-0.3c0,0,0.1,0,0.1,0
								c0.9-0.1,1.7-0.3,2.5-0.4c0.6-0.1,1.2-0.3,1.8-0.4c0.1,0,0.2-0.1,0.3-0.1c0.7,0.2,1.3-0.2,2-0.2c0.2,0,0.3-0.1,0.5-0.1
								c0.8-0.2,1.5-0.4,2.3-0.6c0.7-0.1,1.4-0.1,2.1-0.2c0.3,0,0.5-0.1,0.8-0.2c0.1,0,0.2-0.1,0.2-0.1c2.1-0.3,4.2-0.6,6.4-0.7
								c0.7,0,1.4,0,2.1-0.2c1.3-0.3,2.7-0.3,4-0.5c0.6-0.1,1.2,0,1.8-0.2c1.1-0.3,2.3-0.2,3.4-0.4c0.8-0.1,1.5-0.1,2.3-0.5
								c0,0,0.1,0,0.1,0c0.9-0.1,1.9-0.2,2.8-0.5c1.7-0.4,3.4-0.4,5.1-0.6c0.9-0.1,1.8-0.3,2.7-0.5c1.1-0.1,2.1-0.2,3.2-0.4
								c0.3,0,0.5-0.2,0.8-0.2c0.1,0,0.3-0.1,0.5-0.1c0.3,0,0.7,0,1,0c1.6-0.1,3.2-0.2,4.8-0.4c1.7-0.2,3.4-0.3,5.1-0.6
								c1.4-0.2,2.8-0.3,4.2-0.5c0.6-0.1,1.2-0.1,1.7-0.3c0.2-0.1,0.5,0,0.8,0c1.2-0.1,2.4-0.2,3.6-0.3c0.7-0.1,1.3-0.2,2-0.3
								c1.2-0.1,2.4-0.2,3.6-0.3c0.6,0,1.2,0,1.8,0c0.5,0,0.9,0,1.4,0c0.1,0,0.3,0,0.5,0.3c-0.1,0.3-0.3,0.4-0.5,0.4
								c-0.6,0.1-1.2,0.3-1.8,0.7c-0.2,0.1-0.4,0.2-0.7,0.2c-0.7,0.1-1.4,0.4-2.1,0.4c-0.7,0-1.3,0.2-2,0.3c-1,0.2-2,0.4-3,0.5
								c-0.5,0.1-1.1,0.2-1.7,0.3c-0.1,0-0.3,0.1-0.4,0.2c-0.3,0.3-0.6,0.4-0.9,0.4c-0.5,0.1-1.1,0.2-1.7,0.3c0,0,0,0,0,0
								c-1-0.2-2,0.3-3,0.3c-1,0-2,0.1-2.9,0.2c-1,0.1-2,0.3-3,0.4c-0.8,0.1-1.5,0.2-2.3,0.3c-0.3,0-0.7,0.1-1,0.1
								c-1.3,0.2-2.6,0.4-4,0.5c-0.7,0.1-1.4,0.1-2.1,0.2c-1.1,0.2-2.1,0.4-3.2,0.6c-0.2,0-0.4,0.1-0.5,0.1c-0.7,0.1-1.3,0.1-2,0.2
								c-0.5,0.1-1,0.2-1.5,0.3c-0.2,0-0.4,0.1-0.6,0.1c-1.4,0.1-2.8,0.2-4.2,0.3c-0.3,0-0.5,0-0.8-0.2c-0.2-0.1-0.4-0.1-0.5-0.1
								c-0.3,0-0.7,0.1-1,0.1c-1.1,0.2-2.3,0.4-3.4,0.6c-0.1,0-0.2,0-0.3,0.1c-0.7,0.4-1.4,0.5-2.1,0.7c-0.3,0.1-0.7,0.2-1,0.3
								c-0.5,0.1-1,0.2-1.5,0.2c-1.1,0.1-2.2,0.2-3.4,0.3c-0.3,0-0.5,0.1-0.8,0.2c0,0-0.1,0-0.1,0c-0.5-0.2-0.9,0-1.3,0
								c-0.3,0-0.6,0.1-0.9,0.1c-0.6,0.1-1.2,0.1-1.8,0.2c-0.3,0-0.6,0-0.7,0.3c-0.3-0.1-0.5-0.2-0.7-0.2c-0.2-0.1-0.4-0.1-0.6-0.2
								c-0.4-0.1-0.7-0.1-1,0c-0.5,0.2-1,0.2-1.5,0.1c-0.1,0-0.2,0-0.4,0c-0.6,0-1.1,0.1-1.7,0c-0.4-0.1-0.8-0.1-1.2,0
								c-0.3,0.1-0.7,0-1.1,0c-0.4,0-0.8,0-1.2,0c-0.5,0.1-1,0.3-1.5,0.4c-0.6,0.1-1.1,0.3-1.7,0.4c-0.6,0.1-1.2,0.3-1.8,0.4
								c-0.2,0.1-0.5,0.1-0.7,0.1c-0.6,0.1-1.2,0.1-1.6,0.6c0,0-0.1,0.1-0.1,0c-0.4-0.2-0.7,0-1,0c-0.1,0-0.2,0-0.3,0
								c-0.6,0.3-1.2,0.2-1.8,0.3c-1.5,0.1-3,0.3-4.6,0.3c-0.7,0-1.4-0.1-2.1-0.1c-0.2,0-0.5,0-0.7,0c-0.5-0.1-1-0.2-1.5-0.3
								C281,206.9,280.7,206.8,280.4,206.7z"/>
							<path class="st0" d="M279.1,207c-0.1,0.1-0.2,0.1-0.4,0.2c-0.4,0.1-0.7,0.3-1.1,0.4c-0.2,0.1-0.4,0.1-0.6,0.1
								c-0.6,0.1-1.2,0.1-1.8,0.2c-0.3,0-0.5-0.1-0.8-0.2c-0.1,0-0.2-0.2-0.2-0.3c0-0.2,0-0.4,0.1-0.4c0.1-0.1,0.3-0.1,0.4-0.1
								c0.5,0.1,1,0,1.4-0.1c0.6-0.1,1.3-0.2,1.9-0.1c0.2,0.1,0.5,0,0.7,0.1c0.1,0,0.2,0.1,0.3,0.1
								C279.1,206.8,279.1,206.9,279.1,207z"/>
						</g>
					</g>
				</g>
				<g>
					<path class="st0" d="M142.9,207.8c0.1,0.2,0.2,0.4,0.2,0.5c0.1,0.2,0.1,0.4,0.1,0.5c0.1,0.4,0.1,0.8,0.2,1.1c0,0.1,0,0.2,0,0.2
						c0,0.6,0.1,1.2,0.3,1.8c0,0.1,0,0.1,0,0.2c0.1,0.9,0.3,1.7,0.4,2.6c0.1,0.4,0.1,0.8,0.2,1.2c0,0.2,0.1,0.5,0.2,0.7
						c0.1,0.3,0.1,0.6,0.2,1c0.1,0.5,0.1,1,0.3,1.4c0,0.1,0,0.2,0,0.2c0.1,0.4,0.1,0.8,0.2,1.2c0,0,0,0.1,0,0.1
						c0.1,0.7,0.2,1.4,0.4,2c0.1,0.5,0.2,0.9,0.3,1.4c0,0.1,0.1,0.2,0.1,0.2c0,0.6,0.2,1.1,0.2,1.6c0,0.1,0.1,0.2,0.1,0.4
						c0.1,0.6,0.3,1.2,0.4,1.9c0.1,0.5,0.2,1.1,0.2,1.7c0,0.2,0.1,0.4,0.1,0.6c0,0.1,0.1,0.1,0.1,0.2c0.3,1.7,0.6,3.4,0.8,5.1
						c0.1,0.6,0.1,1.1,0.2,1.7c0.2,1.1,0.3,2.1,0.5,3.2c0.1,0.5,0.1,1,0.2,1.5c0.2,0.9,0.3,1.8,0.4,2.8c0.1,0.6,0.2,1.2,0.4,1.8
						c0,0,0,0.1,0,0.1c0.1,0.8,0.2,1.5,0.4,2.2c0.3,1.4,0.4,2.7,0.6,4.1c0.1,0.7,0.3,1.4,0.4,2.2c0.1,0.9,0.2,1.7,0.4,2.5
						c0,0.2,0.1,0.4,0.2,0.6c0,0.1,0.1,0.2,0.1,0.4c0,0.3,0,0.5,0.1,0.8c0.2,1.3,0.3,2.6,0.5,3.9c0.2,1.4,0.4,2.7,0.6,4
						c0.2,1.1,0.3,2.2,0.5,3.4c0.1,0.5,0.1,0.9,0.2,1.4c0.1,0.2,0.1,0.4,0.1,0.6c0.1,1,0.3,1.9,0.4,2.9c0.1,0.5,0.2,1,0.3,1.6
						c0.1,1,0.3,1.9,0.4,2.9c0.1,0.5,0.1,1,0.1,1.5c0,0.4,0.1,0.7,0.1,1.1c0,0.1,0,0.2-0.1,0.3c-0.1-0.1-0.2-0.3-0.2-0.4
						c-0.1-0.5-0.2-1-0.4-1.4c-0.1-0.2-0.1-0.4-0.1-0.5c-0.1-0.6-0.3-1.1-0.3-1.7c-0.1-0.5-0.2-1-0.3-1.6c-0.1-0.8-0.3-1.6-0.4-2.4
						c-0.1-0.4-0.2-0.9-0.2-1.3c0-0.1-0.1-0.2-0.1-0.3c-0.1-0.2-0.2-0.5-0.2-0.7c-0.1-0.5-0.2-0.9-0.2-1.3c0,0,0,0,0,0
						c0-0.8-0.3-1.6-0.4-2.4c-0.1-0.8-0.2-1.6-0.3-2.4c-0.1-0.8-0.3-1.6-0.4-2.4c-0.1-0.6-0.2-1.2-0.3-1.8c0-0.3-0.1-0.5-0.1-0.8
						c-0.2-1.1-0.4-2.1-0.5-3.2c-0.1-0.6-0.1-1.1-0.2-1.7c-0.1-0.9-0.3-1.7-0.5-2.5c0-0.1-0.1-0.3-0.1-0.4c-0.1-0.5-0.1-1.1-0.2-1.6
						c-0.1-0.4-0.1-0.8-0.2-1.2c0-0.1-0.1-0.3-0.1-0.5c-0.1-1.1-0.3-2.2-0.5-3.4c0-0.2,0-0.4,0-0.6c0-0.1,0-0.3,0-0.4
						c0-0.3-0.1-0.5-0.1-0.8c-0.2-0.9-0.3-1.8-0.5-2.7c0-0.1,0-0.2-0.1-0.2c-0.2-0.5-0.3-1.1-0.4-1.7c-0.1-0.3-0.1-0.5-0.2-0.8
						c-0.1-0.4-0.2-0.8-0.2-1.2c-0.1-0.9-0.2-1.8-0.4-2.7c0-0.2-0.1-0.4-0.1-0.7c0,0,0-0.1,0-0.1c0-0.4-0.1-0.7-0.1-1.1
						c0-0.2-0.1-0.5-0.1-0.7c-0.1-0.5-0.1-1-0.2-1.4c0-0.2-0.1-0.4-0.2-0.6c0-0.2,0-0.4,0-0.5c0-0.2,0-0.3,0-0.5
						c0-0.3,0-0.6-0.1-0.8c-0.1-0.4-0.2-0.8-0.2-1.2c0-0.1,0-0.2,0-0.3c-0.1-0.4-0.1-0.9-0.1-1.4c0-0.3,0-0.6-0.1-1
						c-0.1-0.3-0.1-0.6-0.1-0.8c0-0.3-0.1-0.6-0.1-0.9c-0.1-0.4-0.2-0.8-0.3-1.2c-0.1-0.5-0.2-0.9-0.3-1.4c-0.1-0.5-0.2-1-0.3-1.5
						c0-0.2-0.1-0.4-0.1-0.6c-0.1-0.5-0.1-0.9-0.4-1.3c0,0,0-0.1,0-0.1c0.1-0.3-0.1-0.6-0.1-0.8c0-0.1,0-0.1,0-0.2
						c-0.2-0.5-0.2-1-0.3-1.5c-0.2-1.2-0.3-2.4-0.5-3.6c-0.1-0.5-0.1-1.1-0.1-1.6c0-0.2,0-0.4-0.1-0.6c0-0.4,0-0.8,0-1.2
						C142.8,208.3,142.9,208.1,142.9,207.8z"/>
					<path class="st0" d="M142.7,206.8c0-0.1-0.1-0.2-0.1-0.3c-0.1-0.3-0.2-0.6-0.2-0.9c0-0.2-0.1-0.3-0.1-0.5
						c-0.1-0.5-0.1-1-0.2-1.5c0-0.2,0-0.4,0-0.6c0-0.1,0.1-0.1,0.1-0.1c0.1,0,0.2,0,0.2,0.1c0.1,0.1,0.1,0.2,0.1,0.3
						c0,0.4,0.1,0.8,0.1,1.1c0.1,0.5,0.2,1,0.2,1.6c0,0.2,0,0.4,0,0.6C142.8,206.6,142.8,206.7,142.7,206.8
						C142.7,206.8,142.7,206.8,142.7,206.8z"/>
				</g>
				<g>
					<path class="st0" d="M139.1,409.7c0-0.1-0.1-0.3-0.1-0.4c0-0.1,0-0.3,0-0.4c0-0.3,0.1-0.5,0.2-0.8c0-0.1,0-0.1,0-0.2
						c0.1-0.4,0.2-0.8,0.2-1.3c0,0,0-0.1,0-0.1c0.2-0.6,0.2-1.2,0.4-1.8c0.1-0.3,0.1-0.6,0.2-0.9c0-0.2,0-0.3,0-0.5
						c0-0.2,0.1-0.5,0.1-0.7c0.1-0.3,0.2-0.7,0.1-1c0-0.1,0-0.1,0-0.2c0.1-0.3,0.1-0.5,0.1-0.8c0,0,0,0,0-0.1c0.1-0.5,0.1-1,0.2-1.5
						c0-0.3,0.1-0.7,0.1-1c0-0.1,0-0.1,0-0.2c0.2-0.4,0.1-0.8,0.2-1.2c0-0.1,0-0.2,0-0.3c0-0.5,0-0.9,0.1-1.4
						c0.1-0.4,0.2-0.8,0.2-1.2c0-0.1,0-0.3,0-0.5c0,0,0-0.1,0-0.1c0.2-1.2,0.4-2.4,0.6-3.6c0.1-0.4,0.2-0.8,0.2-1.2
						c0.1-0.8,0.2-1.5,0.4-2.3c0.1-0.4,0.2-0.7,0.2-1c0.1-0.7,0.2-1.3,0.3-2c0.1-0.4,0.2-0.9,0.1-1.3c0,0,0,0,0-0.1
						c0.1-0.5,0.2-1.1,0.2-1.6c0.1-1,0.3-2,0.5-2.9c0.1-0.5,0.1-1,0.2-1.6c0.1-0.6,0.2-1.2,0.3-1.8c0-0.2,0-0.3,0-0.5
						c0-0.1,0-0.2,0-0.3c0-0.2,0.1-0.4,0.1-0.6c0.2-0.9,0.4-1.8,0.5-2.7c0.1-1,0.4-1.9,0.5-2.9c0.1-0.8,0.3-1.6,0.4-2.4
						c0.1-0.3,0.1-0.6,0.1-1c0-0.1,0.1-0.3,0.1-0.4c0.1-0.7,0.3-1.4,0.4-2c0.1-0.4,0.1-0.8,0.2-1.1c0.1-0.7,0.3-1.4,0.4-2
						c0.1-0.3,0.2-0.7,0.3-1c0.1-0.2,0.1-0.5,0.2-0.8c0-0.1,0-0.2,0.2-0.2c0.1,0.1,0.1,0.2,0.1,0.4c-0.1,0.4-0.1,0.7,0,1.1
						c0,0.1,0,0.3,0,0.4c-0.1,0.4,0,0.8-0.1,1.2c-0.1,0.4-0.1,0.8-0.2,1.1c-0.1,0.6-0.1,1.2-0.2,1.7c0,0.3-0.1,0.6-0.1,1
						c0,0.1,0,0.2,0,0.2c0.1,0.2,0.1,0.4,0,0.5c-0.1,0.3-0.1,0.6-0.1,1c0,0,0,0,0,0c-0.2,0.5-0.2,1.1-0.3,1.7
						c-0.1,0.5-0.2,1.1-0.3,1.7c-0.1,0.6-0.2,1.1-0.3,1.7c-0.1,0.4-0.1,0.9-0.2,1.3c0,0.2-0.1,0.4-0.1,0.6c-0.1,0.8-0.2,1.5-0.4,2.3
						c-0.1,0.4-0.2,0.8-0.2,1.2c-0.1,0.6-0.2,1.2-0.2,1.8c0,0.1,0,0.2-0.1,0.3c-0.1,0.4-0.2,0.8-0.2,1.1c-0.1,0.3-0.1,0.6-0.1,0.8
						c0,0.1,0,0.2-0.1,0.3c-0.2,0.8-0.3,1.6-0.5,2.4c0,0.1-0.1,0.3-0.2,0.4c-0.1,0.1-0.1,0.2-0.1,0.3c0,0.2-0.1,0.4-0.1,0.6
						c-0.1,0.7-0.2,1.3-0.2,2c0,0.1,0,0.1,0,0.2c0.1,0.4,0,0.8,0,1.2c0,0.2,0,0.4,0,0.6c0,0.3-0.1,0.6-0.1,0.9
						c-0.1,0.6-0.2,1.3-0.4,1.9c0,0.2,0,0.3-0.1,0.5c0,0,0,0,0,0.1c-0.1,0.2-0.1,0.5-0.2,0.7c0,0.2-0.1,0.3-0.1,0.5
						c-0.1,0.3-0.1,0.7-0.2,1c0,0.2-0.1,0.3,0,0.4c-0.1,0.1-0.1,0.2-0.2,0.4c-0.1,0.1-0.1,0.2-0.1,0.3c-0.1,0.2-0.1,0.4-0.1,0.6
						c0,0.3-0.1,0.6-0.2,0.8c0,0.1-0.1,0.1-0.1,0.2c-0.1,0.3-0.1,0.6-0.3,0.9c-0.1,0.2-0.1,0.4-0.2,0.7c0,0.2-0.1,0.4-0.2,0.6
						c-0.1,0.2-0.1,0.4-0.1,0.6c0,0.3,0,0.6-0.1,0.9c0,0.3-0.1,0.7-0.1,1c0,0.4-0.1,0.7-0.1,1c0,0.1,0,0.3-0.1,0.4
						c-0.1,0.3-0.1,0.6,0,1c0,0,0,0,0,0.1c-0.1,0.2-0.1,0.4-0.1,0.6c0,0,0,0.1,0,0.1c0,0.4-0.1,0.7-0.1,1c-0.2,0.9-0.3,1.7-0.5,2.6
						c-0.1,0.4-0.2,0.8-0.3,1.1c0,0.1-0.1,0.3-0.1,0.4c-0.1,0.3-0.2,0.5-0.3,0.8C139.3,409.4,139.2,409.6,139.1,409.7z"/>
					<path class="st0" d="M139,410.5c0,0.1,0,0.1,0,0.2c0,0.2,0,0.4,0,0.7c0,0.1,0,0.2-0.1,0.4c-0.1,0.4-0.1,0.7-0.2,1
						c0,0.1-0.1,0.3-0.2,0.4c0,0-0.1,0.1-0.2,0.1c-0.1,0-0.1-0.1-0.1-0.1c0-0.1,0-0.2,0-0.2c0.1-0.2,0.1-0.5,0.2-0.8
						c0-0.4,0.1-0.7,0.2-1.1c0.1-0.1,0.1-0.3,0.1-0.4C138.9,410.6,138.9,410.5,139,410.5C139,410.5,139,410.5,139,410.5z"/>
				</g>
				<g>
					<path class="st0" d="M362.1,212.8c0,0.2,0.1,0.4,0.1,0.6c0,0.2,0,0.3,0,0.5c-0.1,0.4-0.1,0.7-0.2,1.1c0,0.1,0,0.2,0,0.2
						c-0.2,0.5-0.2,1.1-0.3,1.7c0,0,0,0.1,0,0.2c-0.2,0.8-0.3,1.6-0.5,2.4c-0.1,0.4-0.1,0.8-0.2,1.2c0,0.2,0,0.4-0.1,0.7
						c0,0.3-0.1,0.6-0.1,0.9c-0.1,0.4-0.2,0.9-0.2,1.4c0,0.1,0,0.2,0,0.2c-0.1,0.4-0.2,0.7-0.1,1.1c0,0,0,0.1,0,0.1
						c-0.1,0.6-0.2,1.3-0.3,1.9c-0.1,0.4-0.1,0.9-0.1,1.3c0,0.1,0,0.2,0,0.2c-0.2,0.5-0.1,1-0.3,1.5c0,0.1,0,0.2,0,0.4
						c0,0.6-0.1,1.2-0.2,1.8c-0.1,0.5-0.2,1-0.3,1.6c0,0.2,0,0.4,0,0.6c0,0.1,0,0.1,0,0.2c-0.3,1.6-0.5,3.2-0.8,4.8
						c-0.1,0.5-0.2,1-0.3,1.6c-0.1,1-0.3,2-0.5,3c-0.1,0.5-0.2,0.9-0.2,1.4c-0.1,0.9-0.3,1.7-0.4,2.6c-0.1,0.6-0.2,1.1-0.2,1.7
						c0,0,0,0,0,0.1c-0.1,0.7-0.2,1.4-0.3,2.1c-0.1,1.3-0.4,2.5-0.6,3.8c-0.1,0.7-0.2,1.4-0.3,2c-0.1,0.8-0.3,1.6-0.4,2.4
						c0,0.2,0,0.4,0,0.6c0,0.1,0,0.2,0,0.4c0,0.2-0.1,0.5-0.2,0.7c-0.2,1.2-0.5,2.4-0.7,3.6c-0.2,1.3-0.5,2.5-0.6,3.8
						c-0.1,1-0.4,2.1-0.5,3.1c-0.1,0.4-0.2,0.9-0.2,1.3c0,0.2-0.1,0.4-0.1,0.6c-0.2,0.9-0.3,1.8-0.5,2.7c-0.1,0.5-0.1,1-0.2,1.5
						c-0.2,0.9-0.3,1.8-0.5,2.7c-0.1,0.5-0.2,0.9-0.3,1.3c-0.1,0.3-0.1,0.7-0.2,1c0,0.1,0,0.2-0.2,0.3c-0.1-0.1-0.1-0.3-0.1-0.5
						c0.1-0.5,0.1-0.9,0-1.4c0-0.2,0-0.3,0-0.5c0.1-0.5,0.1-1.1,0.2-1.6c0.1-0.5,0.1-1,0.2-1.5c0.1-0.8,0.2-1.5,0.3-2.3
						c0.1-0.4,0.1-0.8,0.2-1.2c0-0.1,0-0.2,0-0.3c-0.1-0.2,0-0.5,0-0.7c0.1-0.4,0.1-0.8,0.2-1.2c0,0,0,0,0,0
						c0.2-0.7,0.2-1.5,0.4-2.2c0.2-0.7,0.3-1.5,0.4-2.2c0.1-0.8,0.2-1.5,0.4-2.3c0.1-0.6,0.2-1.1,0.3-1.7c0-0.2,0.1-0.5,0.1-0.7
						c0.2-1,0.3-2,0.5-3c0.1-0.5,0.2-1.1,0.3-1.6c0.1-0.8,0.2-1.6,0.3-2.4c0-0.1,0-0.3,0.1-0.4c0.1-0.5,0.2-1,0.3-1.5
						c0.1-0.4,0.1-0.7,0.1-1.1c0-0.1,0-0.3,0.1-0.4c0.2-1,0.4-2.1,0.6-3.1c0-0.2,0.1-0.4,0.2-0.5c0.1-0.1,0.1-0.2,0.1-0.4
						c0-0.2,0.1-0.5,0.1-0.7c0.1-0.9,0.2-1.7,0.4-2.6c0-0.1,0-0.2,0-0.2c0-0.5,0-1.1,0.1-1.6c0-0.3,0-0.5,0-0.8
						c0-0.4,0.1-0.8,0.2-1.1c0.1-0.8,0.3-1.7,0.5-2.5c0-0.2,0-0.4,0.1-0.6c0,0,0-0.1,0-0.1c0.1-0.3,0.2-0.6,0.2-1
						c0-0.2,0.1-0.4,0.1-0.7c0.1-0.4,0.1-0.9,0.2-1.3c0-0.2,0.1-0.4,0-0.6c0.1-0.2,0.1-0.3,0.2-0.5s0.1-0.3,0.2-0.4
						c0.1-0.2,0.2-0.5,0.2-0.8c0-0.4,0.1-0.7,0.2-1.1c0-0.1,0.1-0.2,0.1-0.3c0.1-0.4,0.2-0.8,0.3-1.2c0.1-0.3,0.2-0.6,0.2-0.9
						c0-0.3,0.1-0.5,0.2-0.8c0.1-0.3,0.1-0.6,0.2-0.9c0-0.4,0.1-0.8,0.1-1.1c0-0.4,0.1-0.9,0.1-1.3c0-0.5,0.1-0.9,0.1-1.4
						c0-0.2,0-0.4,0.1-0.5c0.1-0.4,0.2-0.9,0.1-1.3c0,0,0-0.1,0-0.1c0.1-0.2,0.1-0.5,0.2-0.8c0-0.1,0-0.1,0-0.2
						c0-0.5,0.1-0.9,0.2-1.4c0.2-1.1,0.4-2.3,0.6-3.4c0.1-0.5,0.3-1,0.4-1.5c0-0.2,0.1-0.4,0.1-0.5c0.1-0.4,0.2-0.7,0.4-1.1
						C362,213.2,362.1,213,362.1,212.8z"/>
					<path class="st0" d="M362.3,211.8c0-0.1,0-0.2,0-0.3c0-0.3,0-0.6,0-0.9c0-0.2,0-0.3,0.1-0.5c0.1-0.5,0.1-0.9,0.2-1.4
						c0-0.2,0.1-0.4,0.2-0.6c0,0,0.1-0.1,0.1-0.1c0.1,0,0.1,0.1,0.1,0.1c0,0.1,0,0.2,0,0.3c-0.1,0.3-0.2,0.7-0.2,1
						c0,0.5-0.1,1-0.3,1.4c-0.1,0.2-0.1,0.4-0.1,0.5C362.4,211.7,362.4,211.7,362.3,211.8C362.3,211.8,362.3,211.8,362.3,211.8z"/>
				</g>
				<g>
					<path class="st0" d="M389.5,478.8c0.1-0.1,0.2-0.2,0.3-0.2s0.2-0.1,0.3-0.1c0.2,0,0.4-0.1,0.6-0.1c0,0,0.1,0,0.1,0
						c0.4,0,0.7-0.1,1-0.2c0,0,0.1,0,0.1,0c0.5,0,0.9-0.3,1.4-0.4c0.3-0.1,0.5-0.1,0.7-0.2c0,0,0.3-0.1,0.4-0.2
						c0.2-0.1,0.3-0.1,0.5-0.2c0.3-0.1,0.5-0.1,0.8-0.3c0,0,0.1,0,0.1,0c0.2-0.1,0.4-0.1,0.6-0.3c0,0,0,0,0,0
						c0.4-0.1,0.6-0.3,1.1-0.5c0.2-0.1,0.5-0.2,0.7-0.4c0,0,0.1-0.1,0.1-0.1c0.3,0,0.5-0.3,0.9-0.4c0.1,0,0.1-0.1,0.2-0.1
						c0.3-0.2,0.7-0.4,0.9-0.5c0.3-0.1,0.6-0.3,0.9-0.4c0.1,0,0.2-0.1,0.3-0.2c0,0,0.1-0.1,0.1-0.1c0.8-0.4,1.3-0.7,2.6-1.3
						c0.3-0.1,0.6-0.2,0.8-0.4c0.5-0.4,1-0.6,1.6-0.9c0.2-0.1,0.5-0.2,0.7-0.4c0.9-0.6,0.8-0.5,1.3-0.9c0.3-0.2,0.6-0.4,0.8-0.6
						c0,0,0,0,0,0c0.4-0.2,0.7-0.5,1-0.8c0.6-0.5,1.2-0.9,1.9-1.4c0.2-0.2,0.7-0.6,0.9-0.8c0.4-0.3,0.8-0.6,1.1-0.9
						c0.1-0.1,0.2-0.2,0.2-0.3c0-0.1,0.1-0.1,0.1-0.2c0.1-0.1,0.3-0.2,0.4-0.3c0.5-0.5,1.1-0.9,1.6-1.4c0.5-0.5,1.1-1,1.6-1.6
						c0.6-0.6,0.8-0.9,1.3-1.4c0.2-0.2,0.4-0.4,0.5-0.6c0-0.1,0.2-0.2,0.2-0.2c0.4-0.4,0.8-0.9,1.1-1.2c0.2-0.2,0.4-0.5,0.5-0.7
						c0.3-0.4,0.6-0.8,1-1.3c0.1-0.1,0.4-0.4,0.6-0.6c0.1-0.2,0.2-0.3,0.4-0.5c0,0,0.1-0.1,0.2-0.1c0.1,0.1,0,0.2,0,0.3
						c-0.2,0.2-0.3,0.5-0.4,0.8c0,0.1-0.1,0.2-0.1,0.3c-0.2,0.3-0.3,0.6-0.5,0.8c-0.2,0.2-0.3,0.5-0.5,0.7l-0.8,1.1
						c-0.1,0.2-0.3,0.4-0.5,0.6c0,0-0.1,0.1-0.1,0.2c0,0.2-0.1,0.3-0.2,0.4c-0.1,0.2-0.3,0.4-0.5,0.6c0,0,0,0,0,0
						c-0.4,0.3-0.6,0.7-0.9,1c-0.5,0.5-0.7,0.7-1,0.9c-0.4,0.4-0.6,0.7-1,1c-0.2,0.3-0.5,0.5-0.8,0.8l-0.3,0.3
						c-0.5,0.4-0.9,0.8-1.3,1.2c-0.2,0.2-0.5,0.4-0.8,0.6c-0.3,0.3-0.7,0.7-1.1,1c-0.1,0.1-0.1,0.1-0.2,0.1
						c-0.2,0.2-0.5,0.4-0.7,0.5c-0.1,0.1-0.4,0.3-0.5,0.4c-0.1,0.1-0.1,0.1-0.2,0.2c-0.5,0.4-1,0.8-1.6,1.1
						c-0.1,0.1-0.2,0.1-0.4,0.1c-0.1,0-0.2,0-0.2,0.1c-0.1,0.1-0.3,0.2-0.4,0.2c-0.4,0.3-0.8,0.6-1.3,1c0,0-0.1,0-0.1,0.1
						c-0.2,0.3-0.5,0.5-0.7,0.6c-0.1,0.1-0.3,0.3-0.4,0.3c-0.2,0.1-0.4,0.3-0.6,0.4c-0.4,0.3-0.9,0.5-1.4,0.7
						c-0.1,0.1-0.2,0.1-0.3,0.2c0,0,0,0,0,0c-0.2,0-0.4,0.1-0.5,0.2l-0.4,0.2c-0.2,0.1-0.5,0.2-0.7,0.4c-0.1,0.1-0.2,0.1-0.3,0.2
						c-0.1,0-0.2,0-0.3,0c-0.1,0-0.2,0-0.3,0c-0.2,0-0.3,0.1-0.5,0.2c-0.2,0.1-0.4,0.2-0.6,0.3c-0.1,0-0.1,0-0.2,0
						c-0.2,0.1-0.5,0.2-0.7,0.2c-0.2,0-0.4,0.1-0.5,0.2c-0.1,0.1-0.3,0.1-0.5,0.1c-0.2,0-0.3,0.1-0.5,0.2c-0.1,0.1-0.4,0.2-0.6,0.4
						c-0.3,0.1-0.5,0.2-0.7,0.4c-0.2,0.1-0.5,0.3-0.8,0.4c-0.1,0.1-0.2,0.1-0.3,0.1c-0.2,0.1-0.5,0.2-0.7,0.4c0,0,0,0,0,0
						c-0.2,0-0.3,0.1-0.5,0.1c0,0-0.1,0-0.1,0c-0.2,0.2-0.5,0.2-0.8,0.3c-0.7,0.2-1.3,0.4-2,0.5c-0.3,0.1-0.6,0.1-0.9,0.1
						c-0.1,0-0.2,0-0.3,0c-0.2,0-0.5,0-0.7,0C389.8,478.8,389.7,478.8,389.5,478.8z"/>
					<path class="st0" d="M388.9,479c-0.1,0-0.1,0.1-0.2,0.1c-0.2,0.1-0.4,0.1-0.5,0.2c-0.1,0-0.2,0-0.3,0.1c-0.2,0-0.4,0.1-0.8,0.2
						c-0.1,0-0.2,0-0.4,0c0,0-0.1-0.1-0.1-0.1c0-0.1,0-0.1,0-0.2c0,0,0.1-0.1,0.2-0.1c0.2,0,0.4,0,0.6-0.1c0.3-0.1,0.6-0.1,0.9-0.1
						c0.1,0,0.2,0,0.3,0C388.8,478.8,388.9,478.9,388.9,479L388.9,479z"/>
				</g>
			</g>
			<g>
				<g>
					<g>
						<g>
							<path class="st0" d="M251,117.3c0,18.1,1,36.2,2.7,54.3c0.4,3.5,0.5,7.1,0.5,10.4c0,1.4-0.5,2.9-0.9,2.7
								c-0.4-0.2-1.2-2.1-1.5-3.7c-0.6-3.4-1.1-7.1-1.5-10.7c-1.7-17.1-2.6-34.3-2.9-51.6c-0.4-19.3,0.4-38.7,2.1-57.9
								c0.8-8.6,2-16.5,3.6-24.3c0.1-0.7,0.6-1.3,0.8-1.2c0.2,0.1,0.4,1,0.4,1.6c-0.8,9.7-1.8,19.5-2.2,29.2
								C251.3,83.1,250.6,100.1,251,117.3z"/>
						</g>
						<g>
							<path class="st0" d="M227,115.9c3.5,12.6,6.2,25.4,8.2,38.2c0.4,2.5,0.6,5.1,0.6,7.4c0,1-0.5,2.1-0.9,2
								c-0.4-0.1-1.2-1.4-1.5-2.5c-0.6-2.4-1.2-5-1.6-7.5c-2.1-12-4.6-23.9-8-35.6c-3.9-13.1-8.8-26-15.1-38
								c-2.8-5.3-5.4-10.4-8.1-15.3c-0.2-0.4-0.2-1-0.1-1.1c0.2-0.1,0.8,0.2,1.1,0.6c4.4,5.5,7.9,11.6,11.4,17.7
								C219,92.4,223.3,104.1,227,115.9z"/>
						</g>
						<g>
							<path class="st0" d="M208.1,133.2c4,8.3,7.2,17,9.3,26c0.4,1.8,0.5,3.6,0.6,5.2c0,0.7-0.5,1.5-0.9,1.5
								c-0.4,0-1.2-0.9-1.5-1.6c-0.6-1.6-1.1-3.4-1.5-5.1c-2.2-8.2-5-16.2-8.9-23.8c-4.3-8.5-9.8-16.4-16.1-23.5
								c-2.8-3.1-5.4-6.2-7.9-9.2c-0.2-0.3-0.2-0.7-0.1-0.9c0.1-0.1,0.7-0.1,0.9,0.1c3.9,3,7.4,6.5,10.9,10
								C199.2,118.1,204,125.5,208.1,133.2z"/>
						</g>
					</g>
					<g>
						<g>
							<path class="st0" d="M281.2,117.5c-4.2,12.2-7.5,24.7-10.4,37.3c-0.5,2.4-1.3,4.9-2.1,7.1c-0.4,1-1.2,1.8-1.5,1.6
								c-0.4-0.2-0.6-1.7-0.5-2.9c0.3-2.5,0.7-5.1,1.2-7.6c2.6-12,5.9-23.9,9.6-35.6c4.2-13.1,9.2-26.1,15.4-38.5
								c2.8-5.5,6-10.4,9.9-14.7c0.3-0.4,0.9-0.5,1.1-0.4s0,0.8-0.2,1.2c-3.8,5.8-7,12.1-9.7,18.4
								C289.3,94.6,284.8,105.9,281.2,117.5z"/>
						</g>
						<g>
							<path class="st0" d="M299.4,135.9c-4.5,7.7-8.2,16-11.1,24.5c-0.5,1.7-1.2,3.3-2,4.8c-0.3,0.6-1.2,1.1-1.5,1
								c-0.4-0.2-0.6-1.3-0.5-2.1c0.2-1.8,0.7-3.6,1.2-5.4c2.7-8.3,6.3-16.3,10.5-23.9c4.6-8.6,10.2-16.7,16.5-24.2
								c2.8-3.3,5.9-6.1,9.4-8.3c0.3-0.2,0.8-0.1,0.9,0s0,0.7-0.2,0.9c-3.4,3.5-6.6,7.2-9.4,11.2
								C308.2,121.4,303.4,128.4,299.4,135.9z"/>
						</g>
					</g>
				</g>
				<g>
					<path class="st0" d="M170.9,94.2c0.1,0-0.1,0,0.1,0l0.6-0.1l1-0.1c0.4-0.1,0.9-0.2,0.9,0.3l0.7,1.6l0.2,0.6l0,0.1
						c0,0.1,0.1,0.3,0.1,0.3l0.2-0.3l0.9-2.7l2.9-0.4l1.2-0.2l0.5-0.1c0.2,0,0.4,0,0.5-0.1l-0.4-0.3c-0.2-0.2-1.5-1.3-2.3-2
						c-0.4-0.3-0.6-0.9-0.4-1c0.2-0.1,0.9,0.1,1.4,0.4c0.6,0.3,1.1,0.7,1.7,1c1,0.7,2.1,1.4,3.1,2.2l0.9,0.7c0,0,0.1,0.1,0.1,0.1
						l-0.1,0l-0.3,0.1l-0.6,0.1l-2.3,0.4l-3.1,0.5l-1.2,0.2c-0.2,0-0.4,0.1-0.3,0.1c0,0-0.1,0-0.1,0l-0.6,2l-1.2,4l-0.1,0.5
						c-0.1,0-0.1-0.3-0.2-0.4l-0.4-1l-0.8-1.9l-1.1-2.6c0-0.1-0.1-0.2-0.2-0.1l-1,0.1l-2.9,0.4c-0.4,0.1-1,0.2-1.4,0.2l0.9-1.2
						l2.7-3.6c0-0.4-1.4-3.4-2.9-7.2c1.1,0.5,2.2,1.1,3.3,1.6l2.2,0.9l1.3,0.7c0,0,0.1-0.1,0.1-0.1L175,87l1.2-1.2
						c0.5-0.5,1-0.9,1.5-1.3l1.4-1.1l0.7-0.5c0.1,0.1-0.1,0.5-0.1,0.8l-0.4,1.7l-0.5,1.9c-0.4,1.4-0.6,1.8-0.9,2.5
						c-0.1,0.2-0.3,0.4-0.4,0.4c-0.1,0-0.2-0.4-0.1-0.6l0.5-2.3l0.2-0.9l0.1-0.4c0-0.1,0-0.1-0.1,0l-0.2,0.2c-0.5,0.5-0.9,1-1.3,1.3
						c-0.4,0.4-0.9,1.2-2,2.1l-1-0.5l-0.7-0.3l-1.3-0.5c-0.6-0.2-0.5-0.2-0.6-0.2l-0.2,0c0,0.1,0.1,0.2,0.1,0.2
						c0.1,0.1,0-0.1,0.3,0.6l0.6,1.4L172,91c0.1,0.5,0.7,1,0.2,1.4C171.1,93.9,170.7,94.5,170.9,94.2
						C170.8,94.3,170.9,94.2,170.9,94.2z"/>
				</g>
				<g>
					<path class="st0" d="M250.8,21.4C250.8,21.5,250.7,21.4,250.8,21.4l0.6,0.5l0.8,0.6c0.3,0.3,0.8,0.5,0.4,0.9l-0.7,1.6l-0.2,0.5
						l0,0c0,0.1-0.2,0.2-0.2,0.3l0.4-0.1l2.6-1.2l2.3,1.8l0.9,0.7l0.4,0.3c0.1,0.1,0.3,0.2,0.4,0.3l0-0.5c0-0.2-0.1-2-0.1-3.1
						c0-0.5,0.3-1.1,0.5-1c0.2,0.1,0.6,0.7,0.7,1.3c0.1,0.6,0.3,1.3,0.4,1.9c0.2,1.3,0.4,2.5,0.5,3.8l0.1,1.1c0,0,0,0.1,0,0.1
						l-0.1-0.1l-0.2-0.2l-0.5-0.4l-1.8-1.4l-2.5-1.9l-0.9-0.7c-0.2-0.1-0.3-0.2-0.3-0.2c0,0,0,0-0.1,0l-1.9,0.9l-3.8,1.9l-0.5,0.2
						c-0.1,0,0.1-0.3,0.2-0.4l0.4-1l0.9-1.9l1.2-2.6c0.1-0.1,0.1-0.2-0.1-0.2l-0.8-0.7l-2.2-1.8c-0.3-0.3-0.8-0.6-1-0.9l1.4-0.2
						l4.4-0.5c0.3-0.2,1.5-3.3,3.3-7.1c0.3,1.1,0.7,2.4,1.1,3.5l0.8,2.3l0.4,1.4c0,0,0.1,0,0.1,0l0.9,0l1.7,0.1c0.7,0,1.4,0.1,2,0.2
						l1.7,0.3l0.9,0.2c0,0.1-0.5,0.3-0.7,0.4l-1.5,0.9l-1.7,0.9c-1.3,0.7-1.7,0.8-2.4,1.1c-0.2,0.1-0.5,0.1-0.6,0
						c0-0.1,0.2-0.4,0.4-0.5l2-1.3l0.8-0.5l0.3-0.2c0.1,0,0,0-0.1-0.1l-0.3,0c-0.7,0-1.3,0-1.9,0c-0.6,0-1.5,0.2-2.9-0.1l-0.3-1.1
						l-0.2-0.7l-0.5-1.3c-0.2-0.6-0.2-0.5-0.3-0.6l-0.1-0.1c0,0.1-0.1,0.2-0.1,0.2c-0.1,0.1,0.1-0.1-0.2,0.6l-0.6,1.4l-0.3,0.7
						c-0.3,0.4-0.2,1.2-0.9,1.1C251.3,21.4,250.6,21.4,250.8,21.4C250.8,21.4,250.8,21.4,250.8,21.4z"/>
				</g>
				<g>
					<path class="st0" d="M336.3,94.8c0-0.3-1.7-1.5-0.6-2.6l0.8-1.7l0.4-0.8c0.1-0.2,0.1-0.1,0.1-0.2c0-0.1,0.1-0.2,0.1-0.3
						l-0.2,0.1l-0.1,0l-0.6,0.2c-0.5,0.2-0.9,0.4-1.4,0.6l-0.8,0.4c-0.3,0.1-0.8,0.7-1.1,0.2l-1.9-2.1l-0.4-0.5l-0.3-0.3
						c-0.1,0,0,0.1,0,0.2c0.1,0.5,0,0.8,0.2,2.2c0,0.5-0.2,1.1-0.4,1c-0.2,0-0.6-0.7-0.8-1.2l-0.1-0.4l-0.2-0.8l-0.5-1.9
						c-0.3-1.3-0.4-2.2-0.6-3.3c1.2,0.8,2.5,1.9,3.8,3.3l1.4,1.5l0.5,0.5c0,0,0,0,0.1-0.1l0.6-0.3l1.4-0.6c0.3-0.1,1.4-0.5,2.2-0.9
						l2.6-1.2l-2.3,5.1l-0.7,1.6c-0.3,0.7-0.2,0.3,0,0.7l2.1,2.9c0.4,0.6,1,1.3,1.3,1.8l-2.2-0.3l-3-0.5c-0.1-0.1-0.3,0.6-0.9,1.8
						c-0.6,1.3-1.3,3-1.9,4.1l-1.2-4.5l-0.4-1.4l-0.2-0.5c0,0,0-0.1,0-0.1l-2.1-0.4c-1.2-0.2-2.3-0.4-3.4-0.6l-2-0.4L325,94
						c1.2-0.7,2.4-1.5,2.8-1.8c0.6-0.3,1.3-0.7,1.9-1.1c0.2-0.1,0.5-0.1,0.6,0s-0.1,0.4-0.3,0.6l-3.6,2.7c0.5,0.1,1.2,0.2,1.7,0.2
						l2.6,0.3l0.8,0.1l0.5,0.1c0.2,0,0.1,0.3,0.2,0.4l0.4,1.4l0.2,0.6c0.1,0.2,0.1,0.4,0.1,0.4l0.1,0.2c0,0.1,0.1,0.2,0.1,0l0-0.2
						c0-0.1-0.1,0.1,0.1-0.4l0.5-1.2c0.2-0.3,0.3-0.7,0.5-1l1.1,0.2l1.3,0.2h0c0,0,0,0,0,0h0L336.3,94.8z"/>
				</g>
			</g>
			<g>
				<path class="st0" d="M111.4,235.8c1.7-5.1,8.7-9.1,8.7-9.1c-6.8-2.4-8.6-9.4-8.6-9.4s-1.9,7-8.7,9.3
					C102.8,226.5,109.8,230.6,111.4,235.8z"/>
				<path class="st0" d="M111.4,235.8c1.7-5.1,8.7-9.1,8.7-9.1c-6.8-2.4-8.6-9.4-8.6-9.4s-1.9,7-8.7,9.3
					C102.8,226.5,109.8,230.6,111.4,235.8z"/>
			</g>
			<g>
				<path class="st0" d="M318.1,156.4c1.7-5.1,8.7-9.1,8.7-9.1c-6.8-2.4-8.6-9.4-8.6-9.4s-1.9,7-8.7,9.3
					C309.5,147.2,316.5,151.2,318.1,156.4z"/>
				<path class="st0" d="M318.1,156.4c1.7-5.1,8.7-9.1,8.7-9.1c-6.8-2.4-8.6-9.4-8.6-9.4s-1.9,7-8.7,9.3
					C309.5,147.2,316.5,151.2,318.1,156.4z"/>
			</g>
			<g>
				<path class="st0" d="M389.1,353.7c1.7-5.1,8.7-9.1,8.7-9.1c-6.8-2.4-8.6-9.4-8.6-9.4s-1.9,7-8.7,9.3
					C380.6,344.5,387.5,348.5,389.1,353.7z"/>
				<path class="st0" d="M389.1,353.7c1.7-5.1,8.7-9.1,8.7-9.1c-6.8-2.4-8.6-9.4-8.6-9.4s-1.9,7-8.7,9.3
					C380.6,344.5,387.5,348.5,389.1,353.7z"/>
			</g>
			<g>
				<path class="st0" d="M194.4,403.1c1.7-5.1,8.7-9.1,8.7-9.1c-6.8-2.4-8.6-9.4-8.6-9.4s-1.9,7-8.7,9.3
					C185.9,393.9,192.9,398,194.4,403.1z"/>
				<path class="st0" d="M194.4,403.1c1.7-5.1,8.7-9.1,8.7-9.1c-6.8-2.4-8.6-9.4-8.6-9.4s-1.9,7-8.7,9.3
					C185.9,393.9,192.9,398,194.4,403.1z"/>
			</g>
		</g>
	</g>
	<g>
		<path class="st0" d="M209.2,226.3c0,0,0.1-0.2,0.1-0.2c0-0.1-0.1-0.3-0.1-0.3c-0.1,0.1-0.1,0.3-0.1,0.4
			C209.2,226.3,209.2,226.4,209.2,226.3z"/>
		<path class="st0" d="M186.8,234c0.8,0.2,1.6,0.6,2.4,0.2c0.1-0.1,0.3-0.9,0.3-1.4c0-0.5-0.2-1.3-0.3-1.3c-0.8,0.2-1.6,0.6-2.4,0.9
			C186.8,232.9,186.8,233.4,186.8,234z"/>
		<path class="st0" d="M191.3,233.8c0.5,0.1,1,0.3,1.5,0.2c0.4-0.1,0.9,1,1.4-0.8C193.3,233.3,192.3,231.7,191.3,233.8z"/>
		<path class="st0" d="M204.1,235.1c0.2-0.6,0.4-1,0.6-1.5c-0.9-0.1-1.8-2.4-2.6-0.2c0.4,0.7,0.9,1.1,1.2,2.1
			C203.6,236.4,203.8,236,204.1,235.1z"/>
		<path class="st0" d="M190.6,233.7c0.1,0.2,0.1,0.7,0.2,0.7c0.1-0.1,0.3-0.4,0.4-0.6c-0.2-0.1-0.3-0.2-0.5-0.3
			C190.7,233.5,190.7,233.7,190.6,233.7z"/>
		<path class="st0" d="M202.5,222.8c0.6,0,1.3-0.4,1.9-0.6c0-0.5,0-1,0-1.5c-0.4-0.2-0.8-0.5-1.2-0.5c-2.4,0-4.7,0.1-7.1,0
			c-1.2,0-2.5-0.4-3.7-0.5c-0.4,0-0.7,0.1-1.1,0.3c-0.1,0-0.2,0.7-0.2,1c0,0.4,0.1,1,0.2,1.1c0.2,0.2,0.4,0.2,0.5,0.1
			c0.9-0.7,1.7-2.1,2.6,0.2c0.2,0.5,0.6-0.1,0.8-0.5c0.4-0.7,0.8-0.5,1.2,0c0.4,0.5,0.8,0.8,1.2,0.8
			C199.3,223,200.9,222.9,202.5,222.8z"/>
		<path class="st0" d="M214.9,233.4c0.1-0.1,0.2-0.2,0.3-0.3c-0.1-0.2-0.2-0.5-0.3-0.5c-0.1,0-0.1,0.4-0.2,0.6
			C214.8,233.3,214.9,233.3,214.9,233.4z"/>
		<path class="st0" d="M210.2,221.5c-1.4-0.1-2.9-1.9-4.2,0.7C207.4,222.3,208.8,223.5,210.2,221.5z"/>
		<path class="st0" d="M212.4,233.4c0.3,0.1,0.5,0.1,0.8,0.1c0,0,0-0.6,0-0.6c-0.2-0.3-0.5-0.5-0.8-0.7c0,0-0.1,0.1-0.3,0.4
			C212.3,233.1,212.4,233.4,212.4,233.4z"/>
		<path class="st0" d="M164.6,238.6c0.5,0.1,1.1,0.2,1.6,0.3c0-0.1,0-0.2,0-0.3c-0.5-0.1-1.1-0.2-1.6-0.3
			C164.6,238.4,164.6,238.5,164.6,238.6z"/>
		<polygon class="st0" points="170.2,221.9 170.3,221.8 170.2,221.6 		"/>
		<path class="st0" d="M159.7,218c0.6,1.3,0.9,1.8,1.1,2.3c0.1,0.1,0.2-0.1,0.2-0.1c-0.1-0.4-0.1-1.1-0.2-1.2
			C160.6,218.6,160.3,218.5,159.7,218z"/>
		<path class="st0" d="M166.5,220.7c-0.3,0.1-0.6,0.3-0.9,0.4c0,0.3,0,0.5,0,0.8c0.3-0.1,0.6-0.3,0.9-0.4
			C166.5,221.2,166.5,220.9,166.5,220.7z"/>
		<polygon class="st0" points="143.1,207.1 142.9,206.9 142.9,207.5 		"/>
		<path class="st0" d="M176.9,221.5c1.7-0.1,3.3-0.1,4.9-0.2C179.6,219.5,177.7,219.8,176.9,221.5z"/>
		<path class="st0" d="M182.8,234.5c0.4,0.3,0.6,0.4,0.8,0.4c0.1,0,0.1-0.1,0.2-0.1c-0.1-0.2-0.1-0.5-0.2-0.5
			C183.4,234.3,183.2,234.4,182.8,234.5z"/>
		<path class="st0" d="M185.7,220.2c-0.6-0.1-1.1-0.3-1.6-0.3c-0.2,0-0.3,0.4-0.9,1C184.3,222.7,185,221.7,185.7,220.2z"/>
		<polygon class="st0" points="172.4,220.7 172.3,220.8 172.4,221 		"/>
		<path class="st0" d="M174,221.7c0.3,0,0.7,0,1-0.1c0-0.1,0-0.3,0-0.4c-0.3-0.1-0.7-0.1-1-0.2C174,221.2,174,221.5,174,221.7z"/>
	</g>
	<g>
		<path class="st0" d="M340.4,277.1c0.2,0,0.4,0,0.6,0.1c0.4-1.3,0.9-2.6,1.3-3.9c-0.2,0-0.4-0.1-0.6-0.1
			C341.3,274.4,340.9,275.7,340.4,277.1z"/>
		<path class="st0" d="M342.7,259.3c0-0.1,0-0.3,0-0.5c-0.4,0-0.8,0-1.1,0.1c-0.1,0,0.2,0.3,0.4,0.5
			C342.2,259.4,342.5,259.3,342.7,259.3z"/>
		<polygon class="st0" points="343.4,268.6 343.5,269.1 344.1,268.9 		"/>
		<path class="st0" d="M333.7,319.1c0.3,0.1,0.6,0.2,1,0.3c0-0.1,0.1-0.3,0-0.4c0,0-0.4-0.1-0.7-0.2
			C333.9,318.8,333.8,319,333.7,319.1z"/>
		<path class="st0" d="M336.3,301.5c-0.3-1.5-0.6-2.9-0.9-4.4C332.8,298.3,332.3,299.6,336.3,301.5z"/>
		<path class="st0" d="M356.9,209.5c0.1-0.3,0.1-0.6,0.1-0.9c-0.3-0.1-0.7-0.2-0.8-0.1c-0.2,0.3-0.3,0.5-0.4,0.8
			C356.2,209.3,356.9,209.5,356.9,209.5z"/>
		<path class="st0" d="M355,214.5c-4.2,4.7-4.7,6.1-3.3,10C352.9,220.8,353.9,217.6,355,214.5z"/>
		<path class="st0" d="M349.5,237.8c-0.2-1.1-0.7-2.3-1.1-3.4c-0.4-0.1-0.8-0.2-1.2-0.2c-0.3,1-0.9,1.9-0.9,3c0,0.4,1.4,1.1,2.1,1.7
			C348.9,238.5,349.6,238.2,349.5,237.8z"/>
		<polygon class="st0" points="349.2,229.1 349.7,229.5 349.8,229.1 		"/>
	</g>
	<g>
		<path class="st0" d="M210.1,186.2c-0.1,0-0.1,0-0.1,0c0,0,0,0,0,0c0,0,0,0,0,0c0,0,0,0-0.1,0l0,0c0,0-0.1,0-0.1,0c0,0,0,0,0,0
			c0,0,0,0,0,0c-0.1,0-0.2,0-0.2-0.1c0,0-0.1,0-0.1,0c0,0,0,0-0.1,0c-0.1,0-0.1,0-0.2,0c-0.1-0.1-0.2-0.1-0.3-0.2
			c0,0-0.1-0.1-0.1-0.1c0,0,0,0,0,0c0,0,0-0.1-0.1-0.1c0,0,0,0,0,0c0-0.1,0-0.1,0-0.1c0,0,0,0,0-0.1c0,0,0-0.1,0-0.1
			c0,0,0-0.1,0-0.1c0,0,0-0.1,0-0.1c0,0,0-0.1,0-0.1c0,0,0-0.1,0-0.1c0,0,0-0.1,0-0.1c0,0,0-0.1,0-0.1c0,0,0,0,0,0c0,0,0-0.1,0-0.1
			c0,0,0,0,0-0.1c0,0,0,0,0-0.1c0,0,0,0,0-0.1c0,0,0.1,0,0.1,0c0,0,0.1-0.1,0.1-0.1l0.1-0.1c0,0,0.1,0,0.1-0.1h0c0,0,0,0,0.1,0
			c0.1-0.1,0.1-0.1,0.2-0.1c0,0,0.1,0,0.1,0c0,0,0.1,0,0.1,0c0.1,0,0.1,0,0.2,0c0,0,0,0,0,0c0.1,0,0.2,0,0.3,0c0,0,0.1,0,0.1,0
			c0,0,0,0,0,0c0,0,0.1,0,0.1,0c0.1,0,0.2,0.1,0.3,0.1c0,0,0,0,0,0c0,0,0.1,0.1,0.1,0.1c0,0,0.1,0.1,0.1,0.1c0,0,0,0,0,0
			c0.1,0.1,0.1,0.1,0.1,0.2c0,0,0.1,0.1,0.1,0.1c0.1,0.1,0.1,0.2,0.1,0.3c0,0,0,0,0,0.1c0,0.1,0,0.1,0,0.2c0,0.1,0,0.2,0,0.2
			c0,0.1,0,0.2-0.1,0.2c0,0,0,0.1-0.1,0.1c0,0,0,0.1-0.1,0.1l0,0c0,0-0.1,0.1-0.1,0.1c0,0,0,0-0.1,0c0,0,0,0,0,0
			c0,0-0.1,0.1-0.1,0.1c0,0-0.1,0-0.1,0.1c0,0-0.1,0-0.1,0c-0.1,0-0.1,0-0.1,0.1C210.2,186.2,210.1,186.2,210.1,186.2
			C210.1,186.2,210.1,186.2,210.1,186.2z"/>
		<path class="st0" d="M221.3,185.7c-0.1,0-0.1,0-0.1,0c0,0,0,0,0,0c0,0,0,0,0,0c0,0,0,0-0.1,0l0,0c0,0-0.1,0-0.1,0c0,0,0,0,0,0
			c0,0,0,0,0,0c-0.1,0-0.2,0-0.2-0.1c0,0-0.1,0-0.1,0c0,0,0,0-0.1,0c-0.1,0-0.1,0-0.2,0c-0.1-0.1-0.2-0.1-0.3-0.2
			c0,0-0.1-0.1-0.1-0.1c0,0,0,0,0,0c0,0,0-0.1-0.1-0.1c0,0,0,0,0,0c0-0.1,0-0.1,0-0.1c0,0,0,0,0-0.1c0,0,0-0.1,0-0.1
			c0,0,0-0.1,0-0.1s0-0.1,0-0.1c0,0,0-0.1,0-0.1c0,0,0-0.1,0-0.1c0,0,0-0.1,0-0.1c0,0,0-0.1,0-0.1c0,0,0,0,0,0c0,0,0-0.1,0-0.1
			c0,0,0,0,0-0.1c0,0,0,0,0-0.1c0,0,0,0,0-0.1c0,0,0.1,0,0.1,0c0,0,0.1-0.1,0.1-0.1l0.1-0.1c0,0,0.1,0,0.1-0.1h0c0,0,0,0,0.1,0
			c0.1-0.1,0.1-0.1,0.2-0.1c0,0,0.1,0,0.1,0c0,0,0.1,0,0.1,0c0.1,0,0.1,0,0.2,0c0,0,0,0,0,0c0.1,0,0.2,0,0.3,0c0,0,0.1,0,0.1,0
			c0,0,0,0,0,0c0,0,0.1,0,0.1,0c0.1,0,0.2,0.1,0.3,0.1c0,0,0,0,0,0c0,0,0.1,0.1,0.1,0.1c0,0,0.1,0.1,0.1,0.1c0,0,0,0,0,0
			c0.1,0.1,0.1,0.1,0.1,0.2c0,0,0.1,0.1,0.1,0.1c0.1,0.1,0.1,0.2,0.1,0.3c0,0,0,0,0,0.1c0,0.1,0,0.1,0,0.2c0,0.1,0,0.2,0,0.2
			c0,0.1,0,0.2-0.1,0.2c0,0,0,0.1-0.1,0.1c0,0,0,0.1-0.1,0.1l0,0c0,0-0.1,0.1-0.1,0.1c0,0,0,0-0.1,0c0,0,0,0,0,0
			c0,0-0.1,0.1-0.1,0.1c0,0-0.1,0-0.1,0.1c0,0-0.1,0-0.1,0c-0.1,0-0.1,0-0.1,0.1C221.4,185.7,221.4,185.7,221.3,185.7
			C221.3,185.7,221.3,185.7,221.3,185.7z"/>
		<path class="st0" d="M216,183.6C216,183.5,215.9,183.5,216,183.6c-0.1,0-0.1,0-0.1,0h0c0,0,0,0,0,0l0,0c0,0-0.1,0-0.1,0
			c0,0,0,0,0,0l0,0c-0.1,0-0.1,0-0.1,0c0,0-0.1,0-0.1,0c0,0,0,0,0,0c0,0-0.1,0-0.1,0c-0.1,0-0.1-0.1-0.2-0.1c0,0-0.1,0-0.1-0.1
			c0,0,0,0,0,0c0,0,0,0,0,0l0,0c0,0,0-0.1,0-0.1c0,0,0,0,0,0c0,0,0-0.1,0-0.1s0-0.1,0-0.1c0,0,0,0,0-0.1c0,0,0,0,0-0.1c0,0,0,0,0,0
			c0,0,0,0,0-0.1c0,0,0-0.1,0-0.1c0,0,0,0,0,0c0,0,0,0,0-0.1c0,0,0,0,0,0c0,0,0,0,0,0c0,0,0,0,0,0c0,0,0,0,0,0c0,0,0,0,0.1-0.1l0,0
			c0,0,0,0,0.1-0.1l0,0c0,0,0,0,0,0c0.1,0,0.1-0.1,0.2-0.1c0,0,0.1,0,0.1,0c0,0,0,0,0.1,0c0,0,0.1,0,0.1,0c0,0,0,0,0,0
			c0.1,0,0.1,0,0.2,0c0,0,0,0,0.1,0c0,0,0,0,0,0c0,0,0,0,0,0c0.1,0,0.1,0,0.2,0.1c0,0,0,0,0,0c0,0,0,0,0.1,0c0,0,0.1,0,0.1,0.1
			c0,0,0,0,0,0c0,0,0.1,0.1,0.1,0.1c0,0,0,0.1,0.1,0.1c0,0.1,0.1,0.1,0.1,0.2c0,0,0,0,0,0.1c0,0,0,0.1,0,0.1c0,0.1,0,0.1,0,0.2
			c0,0,0,0.1,0,0.2c0,0,0,0,0,0.1c0,0,0,0,0,0.1l0,0c0,0,0,0.1-0.1,0.1c0,0,0,0-0.1,0c0,0,0,0,0,0c0,0,0,0-0.1,0c0,0,0,0-0.1,0
			c0,0-0.1,0-0.1,0c0,0-0.1,0-0.1,0C216.1,183.6,216.1,183.6,216,183.6C216,183.6,216,183.6,216,183.6z"/>
		<path class="st0" d="M214.3,189.1C214.3,189.1,214.3,189.1,214.3,189.1c-0.1,0-0.1,0-0.1,0h0c0,0,0,0,0,0l0,0c0,0-0.1,0-0.1,0
			c0,0,0,0,0,0l0,0c-0.1,0-0.1,0-0.1,0c0,0-0.1,0-0.1,0c0,0,0,0,0,0c0,0-0.1,0-0.1,0c-0.1,0-0.1-0.1-0.2-0.1c0,0-0.1,0-0.1-0.1v0
			c0,0,0,0,0,0l0,0c0,0,0-0.1,0-0.1c0,0,0,0,0,0c0,0,0-0.1,0-0.1s0-0.1,0-0.1c0,0,0,0,0-0.1c0,0,0,0,0-0.1c0,0,0,0,0,0
			c0,0,0,0,0-0.1c0,0,0-0.1,0-0.1c0,0,0,0,0,0c0,0,0,0,0-0.1c0,0,0,0,0,0c0,0,0,0,0,0c0,0,0,0,0,0c0,0,0,0,0,0c0,0,0,0,0.1-0.1l0,0
			c0,0,0,0,0.1-0.1l0,0c0,0,0,0,0,0c0.1,0,0.1-0.1,0.2-0.1c0,0,0.1,0,0.1,0c0,0,0,0,0.1,0c0,0,0.1,0,0.1,0c0,0,0,0,0,0
			c0.1,0,0.1,0,0.2,0c0,0,0,0,0.1,0c0,0,0,0,0,0c0,0,0,0,0.1,0c0.1,0,0.1,0,0.2,0.1c0,0,0,0,0,0c0,0,0,0,0.1,0c0,0,0.1,0,0.1,0.1
			c0,0,0,0,0,0c0,0,0.1,0.1,0.1,0.1c0,0,0,0.1,0.1,0.1c0,0.1,0.1,0.1,0.1,0.2c0,0,0,0,0,0.1c0,0,0,0.1,0,0.1c0,0,0,0.1,0,0.2
			c0,0,0,0.1,0,0.2c0,0,0,0,0,0.1c0,0,0,0,0,0.1l0,0c0,0,0,0.1-0.1,0.1c0,0,0,0-0.1,0c0,0,0,0,0,0c0,0,0,0-0.1,0c0,0,0,0-0.1,0
			c0,0-0.1,0-0.1,0c0,0-0.1,0-0.1,0C214.5,189.2,214.4,189.1,214.3,189.1C214.4,189.1,214.4,189.1,214.3,189.1z"/>
		<path class="st0" d="M221.4,190.4C221.3,190.4,221.3,190.4,221.4,190.4c-0.1,0-0.1,0-0.1,0h0c0,0,0,0,0,0l0,0c0,0-0.1,0-0.1,0
			c0,0,0,0,0,0l0,0c-0.1,0-0.1,0-0.1-0.1c0,0-0.1,0-0.1,0c0,0,0,0,0,0c0,0-0.1,0-0.1,0c-0.1,0-0.1-0.1-0.2-0.1c0,0-0.1,0-0.1-0.1
			c0,0,0,0,0,0c0,0,0,0,0,0l0,0c0,0,0-0.1,0-0.1c0,0,0,0,0,0c0,0,0-0.1,0-0.1s0-0.1,0-0.1c0,0,0-0.1,0-0.1c0,0,0,0,0-0.1
			c0,0,0,0,0-0.1c0,0,0,0,0-0.1c0,0,0-0.1,0-0.1c0,0,0,0,0,0c0,0,0-0.1,0-0.1c0,0,0,0,0-0.1c0,0,0,0,0,0c0,0,0,0,0-0.1c0,0,0,0,0,0
			c0,0,0-0.1,0.1-0.1l0,0c0,0,0,0,0.1-0.1l0,0c0,0,0,0,0,0c0.1,0,0.1-0.1,0.2-0.1c0,0,0.1,0,0.1,0c0,0,0,0,0.1,0c0,0,0.1,0,0.1,0
			c0,0,0,0,0,0c0.1,0,0.1,0,0.2,0c0,0,0,0,0.1,0c0,0,0,0,0,0c0,0,0,0,0,0c0.1,0,0.1,0,0.2,0.1c0,0,0,0,0,0c0,0,0,0,0.1,0.1
			c0,0,0.1,0,0.1,0.1c0,0,0,0,0,0c0,0.1,0.1,0.1,0.1,0.1c0,0,0,0.1,0.1,0.1c0,0.1,0.1,0.1,0.1,0.2c0,0,0,0,0,0c0,0,0,0.1,0,0.1
			c0,0.1,0,0.1,0,0.2c0,0.1,0,0.1,0,0.2c0,0,0,0.1,0,0.1c0,0,0,0,0,0.1l0,0c0,0,0,0-0.1,0.1c0,0,0,0-0.1,0c0,0,0,0,0,0
			c0,0,0,0-0.1,0.1c0,0,0,0-0.1,0c0,0-0.1,0-0.1,0c0,0-0.1,0-0.1,0C221.5,190.5,221.4,190.5,221.4,190.4
			C221.4,190.4,221.4,190.4,221.4,190.4z"/>
		<path class="st0" d="M226.4,188.4C226.4,188.4,226.3,188.4,226.4,188.4c-0.1,0-0.1,0-0.1,0h0c0,0,0,0,0,0l0,0c0,0-0.1,0-0.1,0
			c0,0,0,0,0,0l0,0c-0.1,0-0.1,0-0.1,0c0,0-0.1,0-0.1,0c0,0,0,0,0,0c0,0-0.1,0-0.1,0c-0.1,0-0.1-0.1-0.2-0.1c0,0-0.1,0-0.1-0.1v0
			c0,0,0,0,0,0l0,0c0,0,0-0.1,0-0.1c0,0,0,0,0,0c0,0,0-0.1,0-0.1s0-0.1,0-0.1c0,0,0,0,0-0.1c0,0,0,0,0-0.1c0,0,0,0,0,0
			c0,0,0,0,0-0.1c0,0,0-0.1,0-0.1c0,0,0,0,0,0c0,0,0,0,0-0.1c0,0,0,0,0,0c0,0,0,0,0,0c0,0,0,0,0,0c0,0,0,0,0,0c0,0,0,0,0.1-0.1l0,0
			c0,0,0,0,0.1-0.1l0,0c0,0,0,0,0,0c0.1,0,0.1-0.1,0.2-0.1c0,0,0.1,0,0.1,0c0,0,0,0,0.1,0c0,0,0.1,0,0.1,0c0,0,0,0,0,0
			c0.1,0,0.1,0,0.2,0c0,0,0,0,0.1,0c0,0,0,0,0,0c0,0,0,0,0,0c0.1,0,0.1,0,0.2,0.1c0,0,0,0,0,0c0,0,0,0,0.1,0c0,0,0.1,0,0.1,0.1
			c0,0,0,0,0,0c0,0,0.1,0.1,0.1,0.1c0,0,0,0.1,0.1,0.1c0,0.1,0.1,0.1,0.1,0.2c0,0,0,0,0,0.1c0,0,0,0.1,0,0.1c0,0,0,0.1,0,0.2
			c0,0,0,0.1,0,0.2c0,0,0,0,0,0.1c0,0,0,0,0,0.1l0,0c0,0,0,0.1-0.1,0.1c0,0,0,0-0.1,0c0,0,0,0,0,0c0,0,0,0-0.1,0c0,0,0,0-0.1,0
			c0,0-0.1,0-0.1,0c0,0-0.1,0-0.1,0C226.5,188.4,226.5,188.4,226.4,188.4C226.4,188.4,226.4,188.4,226.4,188.4z"/>
	</g>
	<g>
		<path class="st0" d="M104.3,452c-0.1,0-0.1,0-0.1,0c0,0,0,0,0,0c0,0,0,0,0,0c0,0,0,0-0.1,0l0,0c0,0-0.1,0-0.1,0c0,0,0,0,0,0
			s0,0,0,0c-0.1,0-0.2,0-0.2,0c0,0-0.1,0-0.1,0c0,0,0,0-0.1,0c-0.1,0-0.1,0-0.2,0c-0.1,0-0.2-0.1-0.3-0.2c0,0-0.1,0-0.1-0.1
			c0,0,0,0,0,0c0,0,0,0-0.1-0.1c0,0,0,0,0,0c0-0.1,0-0.1,0-0.1c0,0,0,0,0,0c0,0,0-0.1,0-0.1c0,0,0-0.1,0-0.1s0-0.1,0-0.1s0,0,0-0.1
			c0,0,0,0,0-0.1s0-0.1,0-0.1c0,0,0-0.1,0-0.1c0,0,0,0,0,0c0,0,0-0.1,0-0.1c0,0,0,0,0-0.1c0,0,0,0,0-0.1s0,0,0-0.1c0,0,0.1,0,0.1,0
			c0,0,0-0.1,0.1-0.1l0-0.1c0,0,0.1,0,0.1-0.1c0,0,0,0,0,0c0,0,0,0,0.1,0c0.1-0.1,0.1-0.1,0.2-0.2c0,0,0.1,0,0.1-0.1
			c0,0,0.1,0,0.1,0c0.1,0,0.1,0,0.2,0c0,0,0,0,0,0c0.1,0,0.2,0,0.3,0c0,0,0.1,0,0.1,0c0,0,0,0,0,0c0,0,0,0,0.1,0c0.1,0,0.2,0,0.3,0
			c0,0,0,0,0,0c0,0,0.1,0,0.1,0.1c0.1,0,0.1,0,0.2,0.1c0,0,0,0,0,0c0.1,0.1,0.1,0.1,0.2,0.2c0,0,0.1,0.1,0.1,0.1
			c0.1,0.1,0.1,0.2,0.2,0.3c0,0,0,0,0,0.1c0,0.1,0,0.1,0,0.2c0,0.1,0,0.2,0,0.2c0,0.1,0,0.2,0,0.2c0,0,0,0.1,0,0.1c0,0,0,0.1,0,0.1
			l0,0c0,0-0.1,0.1-0.1,0.1c0,0,0,0-0.1,0c0,0,0,0,0,0c0,0-0.1,0.1-0.1,0.1s-0.1,0.1-0.1,0.1c0,0-0.1,0-0.1,0.1c0,0-0.1,0-0.1,0.1
			c0,0-0.1,0-0.2,0.1C104.4,452,104.3,452,104.3,452z"/>
		<path class="st0" d="M115.3,449.6c-0.1,0-0.1,0-0.1,0c0,0,0,0,0,0c0,0,0,0,0,0c0,0,0,0-0.1,0l0,0c0,0-0.1,0-0.1,0c0,0,0,0,0,0
			s0,0,0,0c-0.1,0-0.2,0-0.2,0c0,0-0.1,0-0.1,0c0,0,0,0-0.1,0c-0.1,0-0.1,0-0.2,0c-0.1,0-0.2-0.1-0.3-0.2c0,0-0.1,0-0.1-0.1
			c0,0,0,0,0,0c0,0,0,0-0.1-0.1c0,0,0,0,0,0c0-0.1,0-0.1,0-0.1c0,0,0,0,0,0c0,0,0-0.1,0-0.1c0,0,0-0.1,0-0.1s0-0.1,0-0.1s0,0,0-0.1
			c0,0,0,0,0-0.1s0-0.1,0-0.1c0,0,0-0.1,0-0.1c0,0,0,0,0,0c0,0,0-0.1,0-0.1c0,0,0,0,0-0.1c0,0,0,0,0-0.1s0,0,0-0.1c0,0,0.1,0,0.1,0
			c0,0,0-0.1,0.1-0.1l0-0.1c0,0,0.1,0,0.1-0.1c0,0,0,0,0,0c0,0,0,0,0.1,0c0.1-0.1,0.1-0.1,0.2-0.2c0,0,0.1,0,0.1-0.1
			c0,0,0.1,0,0.1,0c0.1,0,0.1,0,0.2,0c0,0,0,0,0,0c0.1,0,0.2,0,0.3,0c0,0,0.1,0,0.1,0c0,0,0,0,0,0c0,0,0,0,0.1,0c0.1,0,0.2,0,0.3,0
			c0,0,0,0,0,0c0,0,0.1,0,0.1,0.1c0.1,0,0.1,0,0.2,0.1c0,0,0,0,0,0c0.1,0.1,0.1,0.1,0.2,0.2c0,0,0.1,0.1,0.1,0.1
			c0.1,0.1,0.1,0.2,0.2,0.3c0,0,0,0,0,0.1c0,0.1,0,0.1,0,0.2c0,0.1,0,0.2,0,0.2c0,0.1,0,0.2,0,0.2c0,0,0,0.1,0,0.1c0,0,0,0.1,0,0.1
			l0,0c0,0-0.1,0.1-0.1,0.1c0,0,0,0-0.1,0c0,0,0,0,0,0c0,0-0.1,0.1-0.1,0.1s-0.1,0.1-0.1,0.1c0,0-0.1,0-0.1,0.1c0,0-0.1,0-0.1,0.1
			c0,0-0.1,0-0.2,0.1C115.3,449.6,115.3,449.6,115.3,449.6z"/>
		<path class="st0" d="M109.7,448.4C109.7,448.4,109.6,448.4,109.7,448.4c-0.1,0-0.1,0-0.1,0h0c0,0,0,0,0,0l0,0c0,0-0.1,0-0.1,0
			c0,0,0,0,0,0c0,0,0,0,0,0c-0.1,0-0.1,0-0.2,0c0,0-0.1,0-0.1,0c0,0,0,0,0,0c0,0-0.1,0-0.1,0c-0.1,0-0.1-0.1-0.2-0.1
			c0,0-0.1,0-0.1-0.1c0,0,0,0,0,0c0,0,0,0,0,0l0,0c0,0,0-0.1,0-0.1c0,0,0,0,0,0c0,0,0-0.1,0-0.1c0,0,0-0.1,0-0.1c0,0,0,0,0-0.1
			c0,0,0,0,0,0c0,0,0,0,0,0c0,0,0,0,0-0.1c0,0,0-0.1,0-0.1c0,0,0,0,0,0c0,0,0,0,0-0.1c0,0,0,0,0-0.1c0,0,0,0,0,0c0,0,0,0,0,0
			c0,0,0,0,0,0c0,0,0-0.1,0.1-0.1l0,0c0,0,0,0,0-0.1l0,0c0,0,0,0,0,0c0,0,0.1-0.1,0.1-0.1c0,0,0.1,0,0.1,0c0,0,0,0,0.1,0
			c0,0,0.1,0,0.1,0c0,0,0,0,0,0c0.1,0,0.1,0,0.2,0c0,0,0,0,0.1,0c0,0,0,0,0,0s0,0,0,0c0.1,0,0.2,0,0.2,0c0,0,0,0,0,0
			c0,0,0.1,0,0.1,0c0,0,0.1,0,0.1,0c0,0,0,0,0,0c0,0,0.1,0.1,0.1,0.1c0,0,0.1,0,0.1,0.1c0,0.1,0.1,0.1,0.1,0.2c0,0,0,0,0,0
			c0,0,0,0.1,0,0.1c0,0,0,0.1,0,0.2c0,0,0,0.1,0,0.2c0,0,0,0,0,0.1c0,0,0,0,0,0.1l0,0c0,0,0,0-0.1,0.1c0,0,0,0-0.1,0c0,0,0,0,0,0
			c0,0,0,0-0.1,0.1s0,0-0.1,0c0,0,0,0-0.1,0c0,0-0.1,0-0.1,0S109.8,448.4,109.7,448.4C109.7,448.4,109.7,448.4,109.7,448.4z"/>
		<path class="st0" d="M109,454.1C109,454.1,109,454.1,109,454.1c-0.1,0-0.1,0-0.1,0h0c0,0,0,0,0,0l0,0c0,0-0.1,0-0.1,0c0,0,0,0,0,0
			c0,0,0,0,0,0c-0.1,0-0.1,0-0.2,0c0,0-0.1,0-0.1,0c0,0,0,0,0,0c0,0-0.1,0-0.1,0c-0.1,0-0.1-0.1-0.2-0.1c0,0-0.1,0-0.1-0.1
			c0,0,0,0,0,0c0,0,0,0,0,0l0,0c0,0,0-0.1,0-0.1c0,0,0,0,0,0c0,0,0-0.1,0-0.1c0,0,0-0.1,0-0.1c0,0,0,0,0-0.1c0,0,0,0,0,0
			c0,0,0,0,0,0c0,0,0,0,0-0.1c0,0,0-0.1,0-0.1c0,0,0,0,0,0c0,0,0,0,0-0.1c0,0,0,0,0-0.1c0,0,0,0,0,0c0,0,0,0,0,0c0,0,0,0,0,0
			c0,0,0-0.1,0.1-0.1l0,0c0,0,0,0,0-0.1l0,0c0,0,0,0,0,0c0,0,0.1-0.1,0.1-0.1c0,0,0.1,0,0.1,0c0,0,0,0,0.1,0c0,0,0.1,0,0.1,0
			c0,0,0,0,0,0c0.1,0,0.1,0,0.2,0c0,0,0,0,0.1,0c0,0,0,0,0,0s0,0,0,0c0.1,0,0.2,0,0.2,0c0,0,0,0,0,0c0,0,0.1,0,0.1,0
			c0,0,0.1,0,0.1,0c0,0,0,0,0,0c0,0,0.1,0.1,0.1,0.1c0,0,0.1,0,0.1,0.1c0,0.1,0.1,0.1,0.1,0.2c0,0,0,0,0,0c0,0,0,0.1,0,0.1
			c0,0,0,0.1,0,0.2c0,0,0,0.1,0,0.2c0,0,0,0,0,0.1c0,0,0,0,0,0.1l0,0c0,0,0,0-0.1,0.1c0,0,0,0-0.1,0c0,0,0,0,0,0c0,0,0,0-0.1,0.1
			s0,0-0.1,0c0,0,0,0-0.1,0c0,0-0.1,0-0.1,0S109.1,454.1,109,454.1C109.1,454.2,109,454.2,109,454.1z"/>
		<path class="st0" d="M116.2,454.3C116.1,454.3,116.1,454.2,116.2,454.3c-0.1,0-0.1,0-0.1,0h0c0,0,0,0,0,0l0,0c0,0-0.1,0-0.1,0
			c0,0,0,0,0,0c0,0,0,0,0,0c-0.1,0-0.1,0-0.2,0c0,0-0.1,0-0.1,0c0,0,0,0,0,0c0,0-0.1,0-0.1,0c-0.1,0-0.1-0.1-0.2-0.1
			c0,0-0.1,0-0.1-0.1c0,0,0,0,0,0c0,0,0,0,0,0l0,0c0,0,0-0.1,0-0.1c0,0,0,0,0,0c0,0,0-0.1,0-0.1c0,0,0-0.1,0-0.1c0,0,0,0,0-0.1
			c0,0,0,0,0,0s0,0,0,0c0,0,0,0,0-0.1c0,0,0-0.1,0-0.1c0,0,0,0,0,0c0,0,0,0,0-0.1c0,0,0,0,0-0.1c0,0,0,0,0,0c0,0,0,0,0,0
			c0,0,0,0,0,0c0,0,0-0.1,0.1-0.1l0,0c0,0,0,0,0-0.1l0,0c0,0,0,0,0,0c0,0,0.1-0.1,0.1-0.1c0,0,0.1,0,0.1,0c0,0,0,0,0.1,0
			c0,0,0.1,0,0.1,0c0,0,0,0,0,0c0.1,0,0.1,0,0.2,0c0,0,0,0,0.1,0c0,0,0,0,0,0s0,0,0,0c0.1,0,0.2,0,0.2,0c0,0,0,0,0,0
			c0,0,0.1,0,0.1,0c0,0,0.1,0,0.1,0c0,0,0,0,0,0c0,0,0.1,0.1,0.1,0.1c0,0,0.1,0,0.1,0.1c0,0.1,0.1,0.1,0.1,0.2c0,0,0,0,0,0
			c0,0,0,0.1,0,0.1c0,0,0,0.1,0,0.2c0,0,0,0.1,0,0.2c0,0,0,0,0,0.1c0,0,0,0,0,0.1l0,0c0,0,0,0-0.1,0.1c0,0,0,0-0.1,0c0,0,0,0,0,0
			c0,0,0,0-0.1,0.1s0,0-0.1,0c0,0,0,0-0.1,0c0,0-0.1,0-0.1,0S116.2,454.3,116.2,454.3C116.2,454.3,116.2,454.3,116.2,454.3z"/>
		<path class="st0" d="M120.8,451.4C120.7,451.4,120.7,451.4,120.8,451.4c-0.1,0-0.1,0-0.1,0h0c0,0,0,0,0,0l0,0c0,0-0.1,0-0.1,0
			c0,0,0,0,0,0c0,0,0,0,0,0c-0.1,0-0.1,0-0.2,0c0,0-0.1,0-0.1,0c0,0,0,0,0,0c0,0-0.1,0-0.1,0c-0.1,0-0.1-0.1-0.2-0.1
			c0,0-0.1,0-0.1-0.1c0,0,0,0,0,0c0,0,0,0,0,0l0,0c0,0,0-0.1,0-0.1c0,0,0,0,0,0c0,0,0-0.1,0-0.1c0,0,0-0.1,0-0.1c0,0,0,0,0-0.1
			c0,0,0,0,0,0c0,0,0,0,0,0c0,0,0,0,0-0.1c0,0,0-0.1,0-0.1c0,0,0,0,0,0c0,0,0,0,0-0.1c0,0,0,0,0-0.1c0,0,0,0,0,0c0,0,0,0,0,0
			c0,0,0,0,0,0c0,0,0-0.1,0.1-0.1l0,0c0,0,0,0,0-0.1l0,0c0,0,0,0,0,0c0,0,0.1-0.1,0.1-0.1c0,0,0.1,0,0.1,0c0,0,0,0,0.1,0
			c0,0,0.1,0,0.1,0c0,0,0,0,0,0c0.1,0,0.1,0,0.2,0c0,0,0,0,0.1,0c0,0,0,0,0,0s0,0,0,0c0.1,0,0.2,0,0.2,0c0,0,0,0,0,0
			c0,0,0.1,0,0.1,0c0,0,0.1,0,0.1,0c0,0,0,0,0,0c0,0,0.1,0.1,0.1,0.1c0,0,0.1,0,0.1,0.1c0,0.1,0.1,0.1,0.1,0.2c0,0,0,0,0,0
			c0,0,0,0.1,0,0.1c0,0,0,0.1,0,0.2c0,0,0,0.1,0,0.2c0,0,0,0,0,0.1c0,0,0,0,0,0.1l0,0c0,0,0,0-0.1,0.1c0,0,0,0-0.1,0c0,0,0,0,0,0
			c0,0,0,0-0.1,0.1s0,0-0.1,0c0,0,0,0-0.1,0c0,0-0.1,0-0.1,0S120.8,451.4,120.8,451.4C120.8,451.4,120.8,451.4,120.8,451.4z"/>
	</g>
	<g>
		<path class="st0" d="M328.4,306.6c0-0.1,0-0.1,0-0.1c0,0,0,0,0,0c0,0,0,0,0,0c0,0,0,0,0-0.1l0,0c0,0,0-0.1,0-0.1c0,0,0,0,0,0
			s0,0,0,0c0-0.1,0-0.2,0-0.2c0,0,0-0.1,0-0.1c0,0,0,0,0-0.1c0,0,0-0.1,0-0.2c0-0.1,0.1-0.2,0.1-0.3c0,0,0-0.1,0.1-0.1c0,0,0,0,0,0
			c0,0,0,0,0-0.1c0,0,0,0,0,0c0.1,0,0.1,0,0.1,0c0,0,0,0,0,0c0,0,0.1,0,0.1,0c0,0,0.1,0,0.1,0c0,0,0.1,0,0.1,0s0,0,0.1,0
			c0,0,0,0,0.1,0c0,0,0.1,0,0.1,0c0,0,0.1,0,0.1,0c0,0,0,0,0,0c0,0,0.1,0,0.1,0c0,0,0,0,0.1,0c0,0,0,0,0.1,0c0,0,0,0,0.1,0
			c0,0,0,0,0,0c0,0,0.1,0,0.1,0l0.1,0c0,0,0.1,0,0.1,0c0,0,0,0,0,0c0,0,0,0,0,0c0.1,0,0.2,0.1,0.2,0.2c0,0,0.1,0.1,0.1,0.1
			c0,0,0,0.1,0,0.1c0,0,0,0.1,0,0.2c0,0,0,0,0,0c0,0.1,0,0.2,0.1,0.3c0,0,0,0,0,0.1c0,0,0,0,0,0c0,0,0,0,0,0.1c0,0.1,0,0.2,0,0.3
			c0,0,0,0,0,0c0,0,0,0.1,0,0.1c0,0,0,0.1,0,0.2c0,0,0,0,0,0c0,0.1-0.1,0.1-0.1,0.2c0,0-0.1,0.1-0.1,0.1c-0.1,0.1-0.2,0.1-0.3,0.2
			c0,0,0,0-0.1,0c-0.1,0-0.1,0-0.2,0.1c-0.1,0-0.2,0-0.2,0.1c-0.1,0-0.2,0-0.2,0c0,0-0.1,0-0.1,0s-0.1,0-0.1,0l0,0c0,0-0.1,0-0.1,0
			c0,0,0,0-0.1-0.1c0,0,0,0,0,0c0,0-0.1,0-0.1-0.1c0,0-0.1,0-0.1-0.1c0,0-0.1,0-0.1-0.1c0,0-0.1-0.1-0.1-0.1
			C328.4,306.8,328.4,306.7,328.4,306.6C328.4,306.6,328.4,306.6,328.4,306.6z"/>
		<path class="st0" d="M332.9,316.9c0-0.1,0-0.1,0-0.1c0,0,0,0,0,0c0,0,0,0,0,0c0,0,0,0,0-0.1l0,0c0,0,0-0.1,0-0.1c0,0,0,0,0,0
			s0,0,0,0c0-0.1,0-0.2,0-0.2c0,0,0-0.1,0-0.1c0,0,0,0,0-0.1c0,0,0-0.1,0-0.2c0-0.1,0.1-0.2,0.1-0.3c0,0,0-0.1,0.1-0.1c0,0,0,0,0,0
			c0,0,0,0,0-0.1c0,0,0,0,0,0c0.1,0,0.1,0,0.1,0c0,0,0,0,0,0c0,0,0.1,0,0.1,0c0,0,0.1,0,0.1,0c0,0,0.1,0,0.1,0s0,0,0.1,0
			c0,0,0,0,0.1,0c0,0,0.1,0,0.1,0c0,0,0.1,0,0.1,0c0,0,0,0,0,0c0,0,0.1,0,0.1,0c0,0,0,0,0.1,0c0,0,0,0,0.1,0c0,0,0,0,0.1,0
			c0,0,0,0,0,0c0,0,0.1,0,0.1,0l0.1,0c0,0,0.1,0,0.1,0c0,0,0,0,0,0c0,0,0,0,0,0c0.1,0,0.2,0.1,0.2,0.2c0,0,0.1,0.1,0.1,0.1
			c0,0,0,0.1,0,0.1c0,0,0,0.1,0,0.2c0,0,0,0,0,0c0,0.1,0,0.2,0.1,0.3c0,0,0,0,0,0.1c0,0,0,0,0,0c0,0,0,0,0,0.1c0,0.1,0,0.2,0,0.3
			c0,0,0,0,0,0c0,0,0,0.1,0,0.1c0,0,0,0.1,0,0.2c0,0,0,0,0,0c0,0.1-0.1,0.1-0.2,0.2c0,0-0.1,0.1-0.1,0.1c-0.1,0.1-0.2,0.1-0.3,0.2
			c0,0,0,0-0.1,0c-0.1,0-0.1,0-0.2,0.1c-0.1,0-0.2,0-0.2,0.1c-0.1,0-0.2,0-0.2,0c0,0-0.1,0-0.1,0s-0.1,0-0.1,0l0,0c0,0-0.1,0-0.1,0
			c0,0,0,0-0.1-0.1c0,0,0,0,0,0c0,0-0.1,0-0.1-0.1c0,0-0.1,0-0.1-0.1c0,0-0.1,0-0.1-0.1c0,0-0.1-0.1-0.1-0.1
			C332.9,317.1,332.9,317,332.9,316.9C332.9,316.9,332.9,316.9,332.9,316.9z"/>
		<path class="st0" d="M333,311.2C333,311.1,333,311.1,333,311.2c0-0.1,0-0.1,0-0.1v0c0,0,0,0,0,0l0,0c0,0,0,0,0-0.1c0,0,0,0,0,0
			c0,0,0,0,0,0c0,0,0-0.1,0-0.2c0,0,0,0,0-0.1c0,0,0,0,0,0c0,0,0-0.1,0-0.1c0-0.1,0-0.1,0.1-0.2c0,0,0-0.1,0.1-0.1c0,0,0,0,0,0
			c0,0,0,0,0,0l0,0c0,0,0.1,0,0.1,0c0,0,0,0,0,0c0,0,0.1,0,0.1,0c0,0,0.1,0,0.1,0s0,0,0.1,0c0,0,0,0,0,0c0,0,0,0,0,0s0,0,0.1,0
			c0,0,0,0,0.1,0c0,0,0,0,0,0c0,0,0,0,0.1,0c0,0,0,0,0.1,0c0,0,0,0,0,0s0,0,0,0c0,0,0,0,0,0c0,0,0.1,0,0.1,0l0,0c0,0,0,0,0.1,0l0,0
			c0,0,0,0,0,0c0,0,0.1,0.1,0.1,0.1c0,0,0,0,0,0.1c0,0,0,0,0,0.1c0,0,0,0.1,0,0.1c0,0,0,0,0,0c0,0.1,0,0.1,0,0.2c0,0,0,0,0,0
			c0,0,0,0,0,0c0,0,0,0,0,0c0,0.1,0,0.1,0,0.2c0,0,0,0,0,0c0,0,0,0,0,0.1s0,0.1,0,0.1c0,0,0,0,0,0c0,0-0.1,0.1-0.1,0.1
			c0,0,0,0.1-0.1,0.1c0,0-0.1,0.1-0.2,0.1c0,0,0,0,0,0c0,0-0.1,0-0.1,0c0,0-0.1,0-0.2,0c0,0-0.1,0-0.2,0c0,0,0,0-0.1,0
			c0,0,0,0-0.1,0l0,0c0,0-0.1,0-0.1,0c0,0,0,0,0,0c0,0,0,0,0,0c0,0,0,0-0.1,0c0,0,0,0-0.1,0s0,0-0.1,0s0-0.1-0.1-0.1
			S333,311.3,333,311.2C333,311.2,333,311.2,333,311.2z"/>
		<path class="st0" d="M327.2,311.6C327.2,311.6,327.2,311.6,327.2,311.6c0-0.1,0-0.1,0-0.1v0c0,0,0,0,0,0l0,0c0,0,0,0,0-0.1
			c0,0,0,0,0,0c0,0,0,0,0,0c0,0,0-0.1,0-0.2c0,0,0,0,0-0.1c0,0,0,0,0,0c0,0,0-0.1,0-0.1c0-0.1,0-0.1,0.1-0.2c0,0,0-0.1,0.1-0.1
			c0,0,0,0,0,0c0,0,0,0,0,0l0,0c0,0,0.1,0,0.1,0c0,0,0,0,0,0c0,0,0.1,0,0.1,0c0,0,0.1,0,0.1,0s0,0,0.1,0c0,0,0,0,0,0c0,0,0,0,0,0
			s0,0,0.1,0c0,0,0,0,0.1,0c0,0,0,0,0,0c0,0,0,0,0.1,0c0,0,0,0,0.1,0c0,0,0,0,0,0c0,0,0,0,0,0c0,0,0,0,0,0c0,0,0.1,0,0.1,0l0,0
			c0,0,0,0,0.1,0l0,0c0,0,0,0,0,0c0,0,0.1,0.1,0.1,0.1c0,0,0,0,0,0.1c0,0,0,0,0,0.1c0,0,0,0.1,0,0.1c0,0,0,0,0,0c0,0.1,0,0.1,0,0.2
			c0,0,0,0,0,0c0,0,0,0,0,0c0,0,0,0,0,0c0,0.1,0,0.1,0,0.2c0,0,0,0,0,0c0,0,0,0,0,0.1s0,0.1,0,0.1c0,0,0,0,0,0c0,0-0.1,0.1-0.1,0.1
			c0,0,0,0.1-0.1,0.1c0,0-0.1,0.1-0.2,0.1c0,0,0,0,0,0c0,0-0.1,0-0.1,0c0,0-0.1,0-0.2,0c0,0-0.1,0-0.2,0c0,0,0,0-0.1,0
			c0,0,0,0-0.1,0l0,0c0,0-0.1,0-0.1,0c0,0,0,0,0,0c0,0,0,0,0,0c0,0,0,0-0.1,0c0,0,0,0-0.1,0s0,0-0.1,0s0,0-0.1-0.1
			C327.2,311.8,327.2,311.8,327.2,311.6C327.2,311.7,327.2,311.6,327.2,311.6z"/>
		<path class="st0" d="M328.5,318.7C328.5,318.6,328.5,318.6,328.5,318.7c0-0.1,0-0.1,0-0.1v0c0,0,0,0,0,0l0,0c0,0,0,0,0-0.1
			c0,0,0,0,0,0c0,0,0,0,0,0c0,0,0-0.1,0-0.2c0,0,0,0,0-0.1c0,0,0,0,0,0c0,0,0-0.1,0-0.1c0-0.1,0-0.1,0.1-0.2c0,0,0-0.1,0.1-0.1
			c0,0,0,0,0,0c0,0,0,0,0,0l0,0c0,0,0.1,0,0.1,0c0,0,0,0,0,0c0,0,0.1,0,0.1,0c0,0,0.1,0,0.1,0s0,0,0.1,0c0,0,0,0,0,0c0,0,0,0,0,0
			s0,0,0.1,0c0,0,0,0,0.1,0c0,0,0,0,0,0c0,0,0,0,0.1,0c0,0,0,0,0.1,0c0,0,0,0,0,0s0,0,0,0c0,0,0,0,0,0c0,0,0.1,0,0.1,0l0,0
			c0,0,0,0,0.1,0l0,0c0,0,0,0,0,0c0,0,0.1,0.1,0.1,0.1c0,0,0,0,0,0.1c0,0,0,0,0,0.1c0,0,0,0.1,0,0.1c0,0,0,0,0,0c0,0.1,0,0.1,0,0.2
			c0,0,0,0,0,0c0,0,0,0,0,0c0,0,0,0,0,0c0,0.1,0,0.1,0,0.2c0,0,0,0,0,0c0,0,0,0,0,0.1s0,0.1,0,0.1c0,0,0,0,0,0c0,0-0.1,0.1-0.1,0.1
			c0,0,0,0.1-0.1,0.1c0,0-0.1,0.1-0.2,0.1c0,0,0,0,0,0c0,0-0.1,0-0.1,0c0,0-0.1,0-0.2,0c0,0-0.1,0-0.2,0c0,0,0,0-0.1,0
			c0,0,0,0-0.1,0l0,0c0,0-0.1,0-0.1,0c0,0,0,0,0,0c0,0,0,0,0,0c0,0,0,0-0.1,0c0,0,0,0-0.1,0s0,0-0.1,0s0,0-0.1-0.1
			C328.6,318.8,328.5,318.8,328.5,318.7C328.5,318.7,328.5,318.7,328.5,318.7z"/>
		<path class="st0" d="M332.3,322.6C332.3,322.6,332.3,322.5,332.3,322.6c0-0.1,0-0.1,0-0.1v0c0,0,0,0,0,0l0,0c0,0,0,0,0-0.1
			c0,0,0,0,0,0c0,0,0,0,0,0c0,0,0-0.1,0-0.2c0,0,0,0,0-0.1c0,0,0,0,0,0c0,0,0-0.1,0-0.1c0-0.1,0-0.1,0.1-0.2c0,0,0-0.1,0.1-0.1
			c0,0,0,0,0,0c0,0,0,0,0,0l0,0c0,0,0.1,0,0.1,0c0,0,0,0,0,0c0,0,0.1,0,0.1,0s0.1,0,0.1,0s0,0,0.1,0c0,0,0,0,0,0c0,0,0,0,0,0
			s0,0,0.1,0c0,0,0,0,0.1,0c0,0,0,0,0,0c0,0,0,0,0.1,0c0,0,0,0,0.1,0c0,0,0,0,0,0c0,0,0,0,0,0c0,0,0,0,0,0c0,0,0.1,0,0.1,0l0,0
			c0,0,0,0,0.1,0l0,0c0,0,0,0,0,0c0,0,0.1,0.1,0.1,0.1c0,0,0,0,0,0.1c0,0,0,0,0,0.1c0,0,0,0.1,0,0.1c0,0,0,0,0,0c0,0.1,0,0.1,0,0.2
			c0,0,0,0,0,0c0,0,0,0,0,0c0,0,0,0,0,0c0,0.1,0,0.1,0,0.2c0,0,0,0,0,0c0,0,0,0,0,0.1s0,0.1,0,0.1c0,0,0,0,0,0c0,0-0.1,0.1-0.1,0.1
			c0,0,0,0.1-0.1,0.1c0,0-0.1,0.1-0.2,0.1c0,0,0,0,0,0c0,0-0.1,0-0.1,0c0,0-0.1,0-0.2,0c0,0-0.1,0-0.2,0c0,0-0.1,0-0.1,0
			c0,0,0,0-0.1,0l0,0c0,0-0.1,0-0.1,0c0,0,0,0,0,0c0,0,0,0,0,0c0,0,0,0-0.1,0c0,0,0,0-0.1,0s0,0-0.1,0s0,0-0.1-0.1
			C332.3,322.8,332.3,322.7,332.3,322.6C332.3,322.6,332.3,322.6,332.3,322.6z"/>
	</g>
	<g>
		<path class="st0" d="M349.3,450.4c0,0,0.1-0.1,0.1-0.1c0,0,0,0,0,0c0,0,0,0,0,0c0,0,0,0,0,0l0,0c0,0,0-0.1,0.1-0.1c0,0,0,0,0,0
			c0,0,0,0,0,0c0.1-0.1,0.1-0.1,0.2-0.2c0,0,0-0.1,0-0.1c0,0,0,0,0,0c0,0,0.1-0.1,0.1-0.1c0.1-0.1,0.2-0.1,0.3-0.1c0,0,0.1,0,0.1,0
			c0,0,0,0,0,0c0,0,0,0,0.1,0c0,0,0,0,0,0c0,0.1,0.1,0.1,0.1,0.1c0,0,0,0,0,0c0,0,0.1,0,0.1,0.1c0,0,0.1,0,0.1,0.1s0,0.1,0.1,0.1
			c0,0,0,0,0.1,0c0,0,0.1,0,0.1,0c0,0,0,0,0.1,0c0,0,0.1,0,0.1,0.1c0,0,0,0,0,0c0,0,0.1,0,0.1,0.1c0,0,0,0,0.1,0.1c0,0,0,0,0,0
			s0,0,0.1,0c0,0,0,0,0,0.1c0,0,0,0.1,0,0.1l0,0.1c0,0,0,0.1,0,0.1c0,0,0,0,0,0c0,0,0,0,0,0.1c0,0.1,0,0.2,0,0.3c0,0,0,0.1,0,0.1
			c0,0,0,0,0,0.1c0,0,0,0.1-0.1,0.1c0,0,0,0,0,0c0,0.1-0.1,0.1-0.2,0.2c0,0,0,0,0,0.1c0,0,0,0,0,0c0,0,0,0.1,0,0.1
			c-0.1,0.1-0.2,0.2-0.3,0.2c0,0,0,0,0,0c0,0-0.1,0-0.1,0c0,0-0.1,0-0.2,0.1c0,0,0,0,0,0c-0.1,0-0.2,0-0.3,0c-0.1,0-0.1,0-0.2,0
			c-0.1,0-0.2,0-0.3-0.1c0,0,0,0-0.1,0c-0.1,0-0.1-0.1-0.2-0.1c-0.1,0-0.1-0.1-0.2-0.2c-0.1,0-0.1-0.1-0.2-0.2c0,0,0-0.1-0.1-0.1
			c0,0,0-0.1-0.1-0.1l0,0c0,0,0-0.1,0-0.1c0,0,0,0,0-0.1c0,0,0,0,0,0c0,0,0-0.1,0-0.1s0-0.1,0-0.1s0-0.1,0-0.1c0,0,0-0.1,0-0.1
			C349.2,450.6,349.2,450.5,349.3,450.4C349.3,450.4,349.3,450.4,349.3,450.4z"/>
		<path class="st0" d="M343.8,460.2c0,0,0.1-0.1,0.1-0.1c0,0,0,0,0,0c0,0,0,0,0,0c0,0,0,0,0,0l0,0c0,0,0-0.1,0.1-0.1c0,0,0,0,0,0
			c0,0,0,0,0,0c0.1-0.1,0.1-0.1,0.2-0.2c0,0,0-0.1,0-0.1c0,0,0,0,0,0c0,0,0.1-0.1,0.1-0.1c0.1-0.1,0.2-0.1,0.3-0.1c0,0,0.1,0,0.1,0
			c0,0,0,0,0,0c0,0,0,0,0.1,0c0,0,0,0,0,0c0,0.1,0.1,0.1,0.1,0.1c0,0,0,0,0,0c0,0,0.1,0,0.1,0.1c0,0,0.1,0,0.1,0.1s0,0.1,0.1,0.1
			c0,0,0,0,0.1,0c0,0,0.1,0,0.1,0c0,0,0,0,0.1,0c0,0,0.1,0,0.1,0.1c0,0,0,0,0,0c0,0,0.1,0,0.1,0.1c0,0,0,0,0.1,0.1c0,0,0,0,0,0
			s0,0,0.1,0c0,0,0,0,0,0.1c0,0,0,0.1,0,0.1l0,0.1c0,0,0,0.1,0,0.1c0,0,0,0,0,0c0,0,0,0,0,0.1c0,0.1,0,0.2,0,0.3c0,0,0,0.1,0,0.1
			c0,0,0,0,0,0.1c0,0,0,0.1-0.1,0.1c0,0,0,0,0,0c0,0.1-0.1,0.1-0.2,0.2c0,0,0,0,0,0.1c0,0,0,0,0,0c0,0,0,0.1,0,0.1
			c-0.1,0.1-0.2,0.2-0.3,0.2c0,0,0,0,0,0c0,0-0.1,0-0.1,0c0,0-0.1,0-0.2,0.1c0,0,0,0,0,0c-0.1,0-0.2,0-0.3,0c-0.1,0-0.1,0-0.2,0
			c-0.1,0-0.2,0-0.3-0.1c0,0,0,0-0.1,0c-0.1,0-0.1-0.1-0.2-0.1c-0.1,0-0.1-0.1-0.2-0.2c-0.1,0-0.1-0.1-0.2-0.2c0,0,0-0.1-0.1-0.1
			c0,0,0-0.1-0.1-0.1l0,0c0,0,0-0.1,0-0.1c0,0,0,0,0-0.1c0,0,0,0,0,0c0,0,0-0.1,0-0.1s0-0.1,0-0.1s0-0.1,0-0.1c0,0,0-0.1,0-0.1
			C343.7,460.4,343.7,460.4,343.8,460.2C343.8,460.2,343.8,460.2,343.8,460.2z"/>
		<path class="st0" d="M348.4,456.9C348.5,456.8,348.5,456.8,348.4,456.9L348.4,456.9L348.4,456.9c0.1-0.1,0.1-0.1,0.1-0.1l0,0
			c0,0,0,0,0-0.1c0,0,0,0,0,0c0,0,0,0,0,0c0,0,0.1-0.1,0.1-0.1c0,0,0,0,0-0.1c0,0,0,0,0,0c0,0,0-0.1,0.1-0.1c0.1,0,0.1-0.1,0.2-0.1
			c0,0,0.1,0,0.1,0h0c0,0,0,0,0.1,0l0,0c0,0,0,0,0.1,0c0,0,0,0,0,0c0,0,0,0,0.1,0c0,0,0,0,0.1,0c0,0,0,0,0,0c0,0,0,0,0,0
			c0,0,0,0,0,0c0,0,0,0,0,0c0,0,0,0,0.1,0c0,0,0,0,0,0c0,0,0,0,0,0.1c0,0,0,0,0,0c0,0,0,0,0,0c0,0,0,0,0,0c0,0,0,0,0,0
			c0,0,0,0.1,0,0.1l0,0c0,0,0,0,0,0.1l0,0c0,0,0,0,0,0c0,0.1,0,0.1,0,0.2c0,0,0,0.1,0,0.1c0,0,0,0,0,0c0,0,0,0.1-0.1,0.1l0,0
			c0,0-0.1,0.1-0.1,0.1c0,0,0,0,0,0c0,0,0,0,0,0c0,0,0,0,0,0c0,0.1-0.1,0.1-0.2,0.1c0,0,0,0,0,0c0,0,0,0-0.1,0c0,0-0.1,0-0.1,0
			c0,0,0,0,0,0c-0.1,0-0.1,0-0.2,0c0,0-0.1,0-0.1,0c-0.1,0-0.1,0-0.2-0.1c0,0,0,0,0,0c0,0-0.1,0-0.1-0.1c0,0-0.1-0.1-0.1-0.1
			c0,0-0.1-0.1-0.1-0.1c0,0,0,0,0-0.1c0,0,0,0,0-0.1l0,0c0,0,0-0.1,0-0.1c0,0,0,0,0-0.1c0,0,0,0,0,0c0,0,0-0.1,0-0.1s0,0,0-0.1
			s0,0,0-0.1c0,0,0-0.1,0-0.1C348.3,456.9,348.4,456.9,348.4,456.9C348.4,456.9,348.4,456.9,348.4,456.9z"/>
		<path class="st0" d="M344.6,452.5C344.6,452.5,344.6,452.5,344.6,452.5L344.6,452.5L344.6,452.5c0.1-0.1,0.1-0.1,0.1-0.1l0,0
			c0,0,0,0,0-0.1c0,0,0,0,0,0c0,0,0,0,0,0c0,0,0.1-0.1,0.1-0.1c0,0,0,0,0-0.1c0,0,0,0,0,0c0,0,0-0.1,0.1-0.1c0.1,0,0.1-0.1,0.2-0.1
			c0,0,0.1,0,0.1,0h0c0,0,0,0,0.1,0l0,0c0,0,0,0,0.1,0c0,0,0,0,0,0c0,0,0,0,0.1,0c0,0,0,0,0.1,0c0,0,0,0,0,0c0,0,0,0,0,0
			c0,0,0,0,0,0c0,0,0,0,0,0c0,0,0,0,0.1,0c0,0,0,0,0,0c0,0,0,0,0,0.1c0,0,0,0,0,0c0,0,0,0,0,0c0,0,0,0,0,0c0,0,0,0,0,0
			c0,0,0,0.1,0,0.1l0,0c0,0,0,0,0,0.1l0,0c0,0,0,0,0,0c0,0.1,0,0.1,0,0.2c0,0,0,0.1,0,0.1c0,0,0,0,0,0c0,0,0,0.1-0.1,0.1l0,0
			c0,0-0.1,0.1-0.1,0.1c0,0,0,0,0,0c0,0,0,0,0,0c0,0,0,0,0,0c0,0-0.1,0.1-0.2,0.1c0,0,0,0,0,0c0,0,0,0-0.1,0c0,0-0.1,0-0.1,0
			c0,0,0,0,0,0c-0.1,0-0.1,0-0.2,0c0,0-0.1,0-0.1,0c-0.1,0-0.1,0-0.2-0.1c0,0,0,0,0,0c0,0-0.1,0-0.1-0.1c0,0-0.1-0.1-0.1-0.1
			c0,0-0.1-0.1-0.1-0.1c0,0,0,0,0-0.1c0,0,0,0,0-0.1l0,0c0,0,0-0.1,0-0.1c0,0,0,0,0-0.1c0,0,0,0,0,0c0,0,0-0.1,0-0.1s0,0,0-0.1
			s0,0,0-0.1c0,0,0-0.1,0-0.1C344.5,452.6,344.5,452.6,344.6,452.5C344.6,452.5,344.6,452.5,344.6,452.5z"/>
		<path class="st0" d="M339.7,457.8C339.8,457.8,339.8,457.8,339.7,457.8L339.7,457.8L339.7,457.8c0.1-0.1,0.1-0.1,0.1-0.1l0,0
			c0,0,0,0,0-0.1c0,0,0,0,0,0h0c0,0,0.1-0.1,0.1-0.1c0,0,0,0,0-0.1c0,0,0,0,0,0c0,0,0-0.1,0.1-0.1c0.1,0,0.1-0.1,0.2-0.1
			c0,0,0.1,0,0.1,0h0c0,0,0,0,0.1,0l0,0c0,0,0,0,0.1,0c0,0,0,0,0,0c0,0,0,0,0.1,0c0,0,0,0,0.1,0c0,0,0,0,0,0c0,0,0,0,0,0
			c0,0,0,0,0,0c0,0,0,0,0,0c0,0,0,0,0.1,0c0,0,0,0,0,0c0,0,0,0,0,0.1c0,0,0,0,0,0c0,0,0,0,0,0c0,0,0,0,0,0c0,0,0,0,0,0
			c0,0,0,0.1,0,0.1l0,0c0,0,0,0,0,0.1l0,0c0,0,0,0,0,0c0,0.1,0,0.1,0,0.2c0,0,0,0.1,0,0.1c0,0,0,0,0,0c0,0,0,0.1-0.1,0.1l0,0
			c0,0-0.1,0.1-0.1,0.1c0,0,0,0,0,0c0,0,0,0,0,0c0,0,0,0,0,0c0,0.1-0.1,0.1-0.2,0.1c0,0,0,0,0,0c0,0,0,0-0.1,0c0,0-0.1,0-0.1,0
			c0,0,0,0,0,0c-0.1,0-0.1,0-0.2,0c0,0-0.1,0-0.1,0c-0.1,0-0.1,0-0.2-0.1c0,0,0,0,0,0c0,0-0.1,0-0.1-0.1c0,0-0.1-0.1-0.1-0.1
			c0,0-0.1-0.1-0.1-0.1c0,0,0,0,0-0.1c0,0,0,0,0-0.1l0,0c0,0,0-0.1,0-0.1c0,0,0,0,0-0.1c0,0,0,0,0,0c0,0,0-0.1,0-0.1s0,0,0-0.1
			s0,0,0-0.1c0,0,0-0.1,0-0.1C339.7,457.9,339.7,457.8,339.7,457.8C339.7,457.8,339.7,457.8,339.7,457.8z"/>
		<path class="st0" d="M338.8,463.1C338.9,463.1,338.9,463.1,338.8,463.1L338.8,463.1L338.8,463.1c0.1-0.1,0.1-0.1,0.1-0.1l0,0
			c0,0,0,0,0-0.1c0,0,0,0,0,0h0c0,0,0.1-0.1,0.1-0.1c0,0,0,0,0-0.1c0,0,0,0,0,0c0,0,0-0.1,0.1-0.1c0.1,0,0.1-0.1,0.2-0.1
			c0,0,0.1,0,0.1,0h0c0,0,0,0,0.1,0l0,0c0,0,0,0,0.1,0c0,0,0,0,0,0c0,0,0,0,0.1,0c0,0,0,0,0.1,0c0,0,0,0,0,0c0,0,0,0,0,0
			c0,0,0,0,0,0c0,0,0,0,0,0c0,0,0,0,0.1,0c0,0,0,0,0,0c0,0,0,0,0,0.1c0,0,0,0,0,0c0,0,0,0,0,0c0,0,0,0,0,0c0,0,0,0,0,0
			c0,0,0,0.1,0,0.1l0,0c0,0,0,0,0,0.1l0,0c0,0,0,0,0,0c0,0.1,0,0.1,0,0.2c0,0,0,0.1,0,0.1c0,0,0,0,0,0c0,0,0,0.1-0.1,0.1l0,0
			c0,0-0.1,0.1-0.1,0.1c0,0,0,0,0,0c0,0,0,0,0,0c0,0,0,0,0,0c0,0.1-0.1,0.1-0.2,0.1c0,0,0,0,0,0c0,0,0,0-0.1,0c0,0-0.1,0-0.1,0
			c0,0,0,0,0,0c-0.1,0-0.1,0-0.2,0c0,0-0.1,0-0.1,0c-0.1,0-0.1,0-0.2-0.1c0,0,0,0,0,0c0,0-0.1,0-0.1-0.1c0,0-0.1-0.1-0.1-0.1
			c0,0-0.1-0.1-0.1-0.1c0,0,0,0,0-0.1c0,0,0,0,0-0.1l0,0c0,0,0-0.1,0-0.1c0,0,0,0,0-0.1c0,0,0,0,0,0c0,0,0-0.1,0-0.1s0,0,0-0.1
			s0,0,0-0.1c0,0,0-0.1,0-0.1C338.7,463.2,338.8,463.2,338.8,463.1C338.8,463.2,338.8,463.1,338.8,463.1z"/>
	</g>
</g>
</svg>
