<?xml version="1.0" encoding="utf-8"?>
<!-- Generator: Adobe Illustrator 25.0.1, SVG Export Plug-In . SVG Version: 6.00 Build 0)  -->
<svg version="1.1" id="Layer_1" xmlns="http://www.w3.org/2000/svg" xmlns:xlink="http://www.w3.org/1999/xlink" x="0px" y="0px"
	 viewBox="0 0 512 512" style="enable-background:new 0 0 512 512;" xml:space="preserve">
<style type="text/css">
	.st0{fill:#F1E5D7;stroke:#171717;stroke-miterlimit:100;}
	.st1{fill:none;stroke:#171717;stroke-miterlimit:100;}
	.st2{fill:#90B4D6;stroke:#171717;stroke-miterlimit:100;}
	.st3{fill:#E1EAF1;}
	.st4{fill:#8FB3D5;}
	.st5{fill:#FEF4CC;}
	.st6{fill:#EFE3D5;}
	.st7{fill:#67C2D7;}
	.st8{fill:#90B4D6;}
	.st9{fill:#FFFFFF;}
	.st10{fill:#283033;}
	.st11{fill:#020203;}
	.st12{fill:#8CD2EF;}
	.st13{fill:#FBD2BC;}
	.st14{fill:#F8BD9D;}
	.st15{fill:#B5D1E3;}
	.st16{fill:#6FC9ED;}
	.st17{fill:#F8BD9C;}
	.st18{fill:#F18C9E;}
	.st19{opacity:0.6;fill:#FFFFFF;enable-background:new    ;}
	.st20{fill:#EEECED;}
	.st21{fill:#F8F6F7;}
	.st22{fill:#E3E0E3;}
	.st23{fill:#D5CFD4;}
	.st24{fill:#CFEBF8;}
	.st25{fill:#ACDDF2;}
</style>
<g>
	<path class="st11" d="M160.34,505.77c-3.47-2.14-4.5-5.23-4.48-9.29c0.2-37.22,15.88-66.07,46.55-86.94
		c0.59-0.4,1.39-0.59,1.52-1.78c-13.67-4.22-26.88-9.75-39.24-17.14c-39.98-23.89-67.38-57.9-81.74-102.25
		c-1.07-3.3-2.41-4.5-5.94-4.81c-26.94-2.31-46.51-24.24-45.98-51.19c0.49-25.04,20.29-46.32,45.29-48.25
		c4.03-0.31,5.75-1.58,6.92-5.44c6.86-22.54,18.18-42.71,33.11-60.91c2.97-3.62,6.16-4.83,10.38-2.49c3.87,2.52,4.69,5.76,2.36,9.67
		c-1.21,2.03-2.85,3.76-4.3,5.61c-20.61,26.4-32.44,56.24-35.06,89.68c-0.4,5.15-0.39,5.2,4.82,5.21
		c25.95,0.05,51.9-0.04,77.84,0.04c25.09,0.07,50.19,0.49,75.27-0.13c20.38-0.5,40.09-5.35,58.83-13.36
		c51.16-21.87,85.65-59.48,104.33-111.75c1.09-3.06,1.99-6.18,2.88-9.3c0.91-3.19-0.16-5.78-2.57-7.93
		c-2.5-2.23-5.27-2.39-8.25-1.13c-1.23,0.52-2.35,1.24-3.47,1.94c-31,19.43-64.64,31.47-101,35.74c-7.02,0.83-14.08,1.5-21.19,1.18
		c-5.97-0.27-8.88-2.59-9.03-7.45c-0.15-4.74,3.13-8.03,9.08-8.1c11.85-0.14,23.54-1.57,35.16-3.71
		c10.72-1.97,21.31-4.53,32.45-8.72c-6.02-4.71-12.22-7.51-18.31-10.5c-17.42-8.1-35.69-12.91-54.84-14.76
		c-29.81-2.88-58.18,2.33-85.39,14.45c-13.28,5.92-25.44,13.71-36.66,22.95c-1.6,1.32-3.13,2.72-5.06,3.54
		c-3.83,1.61-6.66,0.65-8.89-2.97c-2.13-3.91-0.99-6.98,2.28-9.7c38.51-32.03,82.71-46.52,132.7-42.87
		c32.79,2.39,62.57,13.4,89.44,32.26c2.11,1.48,3.67,1.59,5.95,0.49c9.95-4.81,19.46-10.39,28.91-16.11
		c8.27-5,16.74-4.45,24.43,1.29c7.64,5.7,10.75,13.46,8.5,22.97c-1.46,6.17-3.64,12.11-5.9,18.02c-2.95,7.7-6.32,15.22-10.34,22.42
		c-1.28,2.29-1.48,3.91,0.01,6.32c7.6,12.32,13.44,25.5,17.64,39.35c0.87,2.87,2.06,3.85,5.07,4.08
		c28.03,2.15,47.97,25.1,46.5,53.28c-1.21,23.28-20.58,43.98-43.74,46.02c-5.26,0.46-7.11,2.33-8.82,7.18
		c-20.58,58.48-60.41,97.5-119.31,116.98c-0.37,0.12-0.72,0.28-1.48,0.57c3.89,2.86,7.59,5.45,11.15,8.22
		c4.37,3.4,4.81,5.43,2.65,10.68c-1.46,3.52-4.27,3.64-7.35,2.83c-1.88-0.49-3.43-1.68-4.96-2.84c-3.05-2.32-6.25-4.45-9.5-6.47
		c-7.73-4.8-7.82-4.82-12.77,2.6c-6.8,10.21-16.19,17.41-26.73,23.29c-2.96,1.65-5.91,1.34-8.83-0.32
		c-5.4-3.07-10.44-6.64-15.24-10.56c-5.33-4.92-10.02-10.39-13.58-16.73c-1.33-2.36-2.74-2.62-5-1.42
		c-15.09,7.99-26.82,19.47-35.65,34.03c-1.59,2.62-0.6,4.38,1.51,6.03c5.93,4.62,12,9.07,18.49,12.84c5.23,3.04,7.79,7.04,7.6,13.27
		c-0.25,8.24-1.53,8.13,8.55,7.79c26.08-0.1,52.17-0.02,78.24-0.05c6.37-0.01,6.72-0.05,6.31-6.39c-0.45-6.86,2.16-11.48,8-14.92
		c5.96-3.51,11.6-7.56,17.04-11.86c3.85-3.05,4.01-3.87,1.66-8.11c-1.07-1.93-2.42-3.79-2.82-5.97c-0.56-3.06-0.29-5.93,3.3-7.17
		c5.61-1.94,7.56-1.28,10.68,3.6c11.3,17.65,16.22,37.01,15.79,57.88c-0.07,3.56-1.96,5.61-4.46,7.51
		C287.89,505.77,224.11,505.77,160.34,505.77z"/>
	<path class="st3" d="M172.75,226.84c-10.91,0.08-21.83,0.19-32.74,0.22c-16.09,0.04-32.17-0.02-48.26,0.04
		c-2.52,0.01-4.06-0.09-3.8-3.5c2.68-36.23,15.18-68.54,38.15-96.74c4.15-5.1,4.25-6.91,0.63-11.59c3.31-2.99,7.05-5.58,9.02-9.8
		c4.19,3.82,6.84,3.87,11.5-0.06c22.43-18.91,48-31.35,76.81-36.78c35.61-6.71,70.03-2.92,102.91,12.76
		c-4.3,2.22-9.11,2.07-13.7,2.87c-13.22,2.32-26.56,4.11-39.47,7.92c-37.63,11.09-66.67,33.32-86.85,67.04
		c-6.33,10.59-10.92,21.88-14.37,33.7c-2.94,10.06-3.24,20.03-0.05,30.06C172.94,224.24,173.48,225.52,172.75,226.84z"/>
	<path class="st12" d="M329.66,436.78c-3.17,3.44-3.03,6.86-0.53,10.76c4.72,7.36,4.67,7.56-2.44,12.72
		c-5.71,4.15-11.51,8.22-17.52,11.92c-3.82,2.36-5.64,5.23-5.36,9.74c0.21,3.34,1.16,7.86-0.55,9.79
		c-2.03,2.29-6.64,0.72-10.13,0.72c-25.36,0.02-50.71-0.06-76.07-0.11c-1.52-3.57-0.46-7.24-0.08-10.75
		c1.71-15.9,7.53-30.36,16.18-43.74c0.87-1.34,1.72-2.77,3.46-3.18c4.87,3.56,9.61,7.28,14.9,10.24c3,1.68,5.67,1.84,8.71,0.11
		c11.91-6.73,21.95-15.41,28.74-27.43c1.41-2.49,2.52-2.75,5-1.48c5.8,2.97,11.26,6.39,16.37,10.42c4.49,3.54,6.4,3.55,11.03,0.39
		C324.14,430.2,326.9,433.49,329.66,436.78z"/>
	<path class="st13" d="M247.99,240.18c33.39-2.3,64.45-11.91,92.82-29.81c2.05-1.29,3.22-0.95,4.94,0.39
		c22.24,17.29,47.38,27.17,75.51,29.2c2.82,0.2,2.92,1.36,2.76,3.6c-4.92,72.85-53.22,132.51-123.62,152.47
		c-10.93,3.1-22.05,5.32-33.5,5.35c-1.94,0.19-3.78-0.31-5.58-0.91c-47.16-15.9-82.27-45.86-105.08-90.15
		c-0.94-1.82-2.79-3.68-1.06-6.06c1.53-0.9,3.12-0.48,4.73-0.28c9.67,1.19,18.45-1.21,26.13-7.1c5.86-4.49,8.7-10.6,8.06-18.1
		c-0.14-1.67-0.1-3.24,1.14-4.53c4.82-4.15,6.45-15.09,3.15-20.58c-1.89-3.15-7.36-4.05-9.73,1.34c-0.81,1.68-0.45,3.49-0.59,5.24
		c-0.33,4.13-1.39,4.84-4.95,2.81c-5.51-3.14-11.35-4.79-17.67-5.02c-6.82-0.25-13.1,1.53-19.12,4.6c-1.68,0.86-3.41,2.79-5.48,0.56
		c-2.53-6.31-2.16-13.04-2.73-19.61c-0.18-2.07,0.92-3.32,3.24-3.14c1.17,0.1,2.36,0.02,3.54,0.02c32.75,0,65.51,0,98.27-0.01
		C244.77,240.46,246.41,240.73,247.99,240.18z"/>
	<path class="st4" d="M172.75,226.84c-6.69-15.52-3.28-30.52,2.29-45.42c8.63-23.08,22.25-42.86,40.68-59.04
		c18.4-16.15,39.68-27.27,63.66-32.88c15.7-3.67,31.56-6.41,47.59-8.1c7.25,2.87,13.82,6.95,21.04,11.48
		c-10.3,4.11-20.21,6.71-30.23,8.83c-13,2.75-26.15,4.48-39.46,4.69c-0.89,0.01-1.78,0.02-2.65,0.13c-4.46,0.59-6.88,3.32-6.54,7.34
		c0.32,3.8,2.88,5.89,7.41,5.86c14.8-0.11,29.41-1.93,43.87-4.99c28.4-6,54.8-16.89,79.27-32.5c5.1-3.26,8.74-3.4,12.19-0.57
		c3.88,3.19,4,7.18,2.53,11.62c-23.26,70.38-70.56,114.4-143.2,130.52c-9.64,2.14-19.52,3.13-29.43,3.13
		C218.76,226.94,195.76,226.88,172.75,226.84z"/>
	<path class="st14" d="M155.01,304.62c4.68,12.38,11.91,23.28,19.93,33.64c17.48,22.58,39.17,40.08,64.82,52.63
		c8.74,4.28,18.03,7.15,27.13,10.5c-9.71,1.56-19.44,0.78-29.07-0.33c-40.3-4.64-74.81-21.46-102.93-50.68
		c-28.7-29.83-44.11-65.69-46.96-107c-0.24-3.52,1.77-2.97,3.8-2.98c18.74-0.02,37.48-0.03,56.22-0.05
		c33.35-0.05,66.69-0.11,100.04-0.16c-1.55,1.29-3.4,0.73-5.1,0.73c-32.98,0.05-65.97,0.11-98.95-0.01
		c-4.18-0.02-5.06,0.79-4.38,5.24c0.9,5.89,1.21,11.91,2.18,17.83c0.46,2.13-1.3,3.12-2.34,4.44c-7.31,9.25-5.73,21.55,3.68,28.78
		c2.82,2.17,5.93,3.75,9.17,5.17C153.34,302.84,155.03,302.72,155.01,304.62z"/>
	<path class="st15" d="M402.21,150.71c6.54,11.04,11.22,22.4,14.84,34.2c3.87,12.59,5.98,25.51,6.99,38.64
		c0.19,2.46-0.25,3.44-2.96,3.21c-23.77-2.11-45.23-10.29-64.49-24.34c-2.99-2.18-0.05-2.85,0.99-3.66
		c12.48-9.79,23.72-20.84,33.56-33.27C394.86,160.79,398.33,155.9,402.21,150.71z"/>
	<path class="st16" d="M236.63,434.65c-9.71,14.04-16.23,29.38-18.53,46.36c-0.51,3.74,0.04,7.61-1.04,11.31
		c-8.93,0.49-9.3,0.47-8.81-8.22c0.36-6.28-1.84-10.16-7.32-13.17c-7.1-3.89-13.5-8.94-19.89-13.95c-1.74-1.37-2.46-2.42-1.17-4.65
		c9.23-16.02,21.9-28.39,38.49-36.65c1.36-0.68,2.73-1.71,3.89,0.63C225.78,423.39,231.19,429.04,236.63,434.65z"/>
	<path class="st14" d="M44.28,233.68c0.04-17.25,12.19-32.3,29.01-35.94c4.75-1.03,4.87-0.88,4,4.06
		c-3.78,21.4-3.78,42.8,0.01,64.19c0.83,4.65,0.67,4.83-3.79,3.9C56.51,266.31,44.25,251.13,44.28,233.68z"/>
	<path class="st14" d="M467.72,233.87c-0.02,17.57-12.8,33-29.85,36.13c-2.95,0.54-4.14,0.36-3.42-3.38
		c4.19-21.63,4.06-43.33,0.25-65.01c-0.83-4.75-0.7-4.9,4.21-3.81C455.76,201.58,467.74,216.57,467.72,233.87z"/>
	<path class="st14" d="M182.19,492.48c-3.24,0-6.49-0.12-9.73,0.04c-2.36,0.12-3.46-0.38-3.19-3.09c0.63-6.31,1.42-12.56,3.16-18.69
		c0.59-2.07,1.04-2.89,3.06-1.28c5.65,4.5,11.66,8.48,17.65,12.5c3.56,2.39,1.56,6.28,1.45,9.36c-0.08,2.19-2.89,0.96-4.45,1.09
		C187.51,492.64,184.84,492.48,182.19,492.48z"/>
	<path class="st13" d="M329.94,492.48c-2.06,0-4.2,0.32-6.18-0.09c-2.2-0.45-5.34,1.9-6.5-1.38c-1.51-4.28,0.18-8.06,3.66-10.46
		c5.22-3.59,10.38-7.27,15.49-11.01c1.77-1.3,2.44-1.41,3.12,1.06c1.74,6.29,2.62,12.68,3.19,19.14c0.19,2.13-0.41,2.88-2.6,2.78
		C336.74,492.36,333.34,492.48,329.94,492.48z"/>
	<path class="st17" d="M236.62,414.22c13.34,1.59,25.59,1.4,38.65,0.12c-5.1,7.6-11.25,12.66-18.04,17.04
		c-0.83,0.54-1.58,0.55-2.43,0.01C247.98,427.04,241.86,421.94,236.62,414.22z"/>
	<path class="st18" d="M155.01,304.62c-6.52-2.62-13.11-5.12-17.29-11.34c-6.29-9.38-5.47-19.05,2.36-27.25
		c0.61-0.63,1.11-1.36,1.66-2.04c7.19-4.61,14.85-7.51,23.59-7.19c6.6,0.24,12.74,1.77,18.36,5.27c0.85,0.53,1.57,1.37,2.81,1.12
		c1.12-2.86-0.73-6.12,1.12-8.88c2.14,2.03,1.67,4.76,1.26,7.05c-1.13,6.34-0.18,11.32,6.78,13.43c-2.03,2.77,0.52,5.57-0.19,8.53
		c-2.76,11.46-10.92,18.9-23.48,21.43C166.24,305.89,160.66,305.35,155.01,304.62z"/>
	<path class="st18" d="M324.38,254.3c1.76,2.71,0.17,5.79,1.11,9.04c5.03-2.57,9.94-5.4,15.66-6.12
		c12.23-1.53,23.27,0.83,31.75,10.33c8.91,9.97,6.62,22.75-4.33,31.16c-12.92,9.93-35.07,9.01-46.12-3.27
		c-4.67-5.19-7.32-11.01-5.73-18.14c0.22-0.98-0.02-1.72-0.37-2.52c0.3-0.54,0.77-0.85,1.33-1.08c5.28-2.11,6.1-3.62,5.68-9.27
		C323.09,261.03,321.89,257.46,324.38,254.3z"/>
	<path class="st11" d="M255.87,281.94c-8.07-0.05-14.89-3-20.42-8.86c-3.09-3.28-3.22-7-0.46-9.77c2.77-2.78,6.37-2.63,9.78,0.41
		c7.57,6.74,14.93,6.78,22.36,0.12c3.47-3.11,6.97-3.34,9.78-0.65c2.94,2.81,2.78,6.64-0.53,10.1
		C270.8,279.12,263.91,281.93,255.87,281.94z"/>
	<path class="st11" d="M195.67,274.78c-6.21-0.11-8.31-2.1-8.31-8.14c0-4.11,0.18-8.23,0.27-12.34c1.67-3.45,4.33-5.33,8.19-4.24
		c3.63,1.02,4.88,3.94,4.84,7.53c-0.03,3.24-0.01,6.48,0,9.72C200.65,270.9,199.23,273.55,195.67,274.78z"/>
	<path class="st11" d="M324.38,254.3c0.1,4.11,0.28,8.23,0.27,12.34c-0.02,6.04-2.11,8.03-8.31,8.14c-3.56-1.23-4.99-3.87-4.98-7.48
		c0.01-3.24,0.03-6.48,0-9.72c-0.04-3.59,1.21-6.5,4.84-7.53C320.04,248.97,322.7,250.85,324.38,254.3z"/>
</g>
</svg>
