<?xml version="1.0" encoding="utf-8"?>
<!-- Generator: Adobe Illustrator 25.0.1, SVG Export Plug-In . SVG Version: 6.00 Build 0)  -->
<svg version="1.1" id="Layer_1" xmlns="http://www.w3.org/2000/svg" xmlns:xlink="http://www.w3.org/1999/xlink" x="0px" y="0px"
	 viewBox="0 0 512 512" style="enable-background:new 0 0 512 512;" xml:space="preserve">
<style type="text/css">
	.st0{fill:#F1E5D7;stroke:#171717;stroke-miterlimit:100;}
	.st1{fill:none;stroke:#171717;stroke-miterlimit:100;}
	.st2{fill:#90B4D6;stroke:#171717;stroke-miterlimit:100;}
	.st3{fill:#E1EAF1;}
	.st4{fill:#8FB3D5;}
	.st5{fill:#FEF4CC;}
	.st6{fill:#EFE3D5;}
	.st7{fill:#67C2D7;}
	.st8{fill:#90B4D6;}
	.st9{fill:#FFFFFF;}
	.st10{fill:#283033;}
	.st11{fill:#020203;}
	.st12{fill:#8CD2EF;}
	.st13{fill:#FBD2BC;}
	.st14{fill:#F8BD9D;}
	.st15{fill:#B5D1E3;}
	.st16{fill:#6FC9ED;}
	.st17{fill:#F8BD9C;}
	.st18{fill:#F18C9E;}
	.st19{opacity:0.6;fill:#FFFFFF;enable-background:new    ;}
	.st20{fill:#EEECED;}
	.st21{fill:#F8F6F7;}
	.st22{fill:#E3E0E3;}
	.st23{fill:#D5CFD4;}
	.st24{fill:#CFEBF8;}
	.st25{fill:#ACDDF2;}
	.st26{fill:#030304;}
	.st27{fill:#B0DFF9;}
	.st28{fill:#572020;}
	.st29{fill:#020303;}
</style>
<path class="st11" d="M313.52,367.69c-10.88,0-21.76-0.02-32.63,0.02c-1.54,0.01-3.38-0.77-3.54,2.22
	c-1.51,28.28-12.51,52.94-29.13,75.41c-1.68,2.28-3.37,4.56-5.16,6.75c-3.61,4.42-7.8,4.52-11.45,0.25
	c-15.75-18.46-25.86-39.7-30.79-63.4c-1.28-6.13-2.31-12.36-2.7-18.59c-0.21-3.36-1.39-3.66-4.16-3.65
	c-21.12,0.09-42.25,0.05-63.38,0.05c-8.34,0-10.3-1.9-10.22-10.22c0.2-20.64-0.51-41.32,1.06-61.91
	c1.91-25.11,10.99-47.96,23.86-69.38c3.81-6.34,7.91-12.59,13.09-17.84c5.28-5.35,8.25-11.37,9.2-18.79
	c1.35-10.55,4.12-20.87,7.8-30.81c12.96-35.08,31.21-66.96,57.92-93.56c4.32-4.3,7.37-4.33,11.66,0.02
	c25.63,26,44.73,56.14,56.21,90.82c4.55,13.74,8.12,27.86,10.15,42.25c0.32,2.26,1.31,3.67,2.68,5.19
	c17.48,19.24,30.17,41.2,36.45,66.51c4.98,20.08,6.32,40.66,5.18,61.25c-0.53,9.59-0.31,19.14-0.58,28.71
	c-0.18,6.38-2.34,8.68-8.89,8.7C335.27,367.72,324.4,367.69,313.52,367.69z"/>
<path class="st11" d="M313.34,419.37c0,10.07,0.01,20.14,0,30.21c-0.01,4.8-2.82,8.08-6.96,8.22c-4.42,0.15-7.36-2.74-7.09-7.93
	c1.11-20.87,0.6-41.74,0.78-62.61c0.03-3.88,2.81-6.76,6.27-6.87c3.76-0.13,6.92,2.99,6.97,7.36
	C313.42,398.29,313.34,408.83,313.34,419.37z"/>
<path class="st11" d="M193.2,454.32c0,7.08,0.04,14.17-0.01,21.25c-0.04,5.07-2.44,7.81-6.7,7.83c-4.42,0.02-6.56-2.46-6.56-7.8
	c0.01-14.32,0.08-28.64,0.12-42.96c0.01-3.76,1.16-6.92,5.11-8c4.76-1.3,7.9,1.61,8.01,7.49
	C193.31,439.52,193.2,446.92,193.2,454.32z"/>
<path class="st11" d="M284.28,471.62c0,6.76,0.07,13.52-0.03,20.27c-0.07,5-2.28,7.43-6.46,7.46c-3.99,0.03-6.83-2.7-6.87-7.26
	c-0.12-13.83-0.13-27.67,0-41.5c0.04-4.56,2.87-7.24,6.9-7.21c4.21,0.03,6.36,2.41,6.44,7.48
	C284.36,457.78,284.28,464.7,284.28,471.62z"/>
<path class="st26" d="M186.99,396.69c3.67,0.03,6.44,2.89,6.43,6.64c-0.01,3.61-2.95,6.72-6.41,6.77c-3.53,0.06-7.07-3.52-6.92-7
	C180.24,399.71,183.52,396.66,186.99,396.69z"/>
<path class="st27" d="M306.68,322.14c-4.82,0.42-6.79,3.11-6.69,7.87c0.15,6.93-0.08,13.87,0.09,20.8c0.07,2.7-0.81,3.51-3.47,3.47
	c-27.85-0.38-55.7-0.7-83.55-0.96c-11.19-0.11-22.38-0.13-33.56,0.05c-3.33,0.05-4.21-0.99-4.17-4.27
	c0.44-39.82,0.55-79.65,1.16-119.47c0.32-20.44,2.86-40.72,9.22-60.23c11.21-34.37,28.03-65.6,53.48-91.88
	c24.27,25.79,42.04,55.48,52.02,89.43c9.12,31.02,10.74,63.01,9.77,95.17c-0.09,2.99,0.09,5.99-0.04,8.98
	c-0.21,4.76,1.95,7.39,6.68,7.91c2.58,4.71-0.08,9.41-0.03,14.12c-0.53,1.45-1.97,1.9-3.05,2.76c-3.84,3.07-3.88,6.14-0.11,9.18
	c1.19,0.97,2.73,1.57,3.24,3.23C308.01,312.97,309.33,317.7,306.68,322.14z"/>
<path class="st5" d="M306.68,322.14c0.05-4.91,0.1-9.83,0.15-14.75c0.41-0.93,1.36-1.21,2.12-1.73c4.28-2.97,4.28-7.12,0-10.1
	c-0.75-0.52-1.7-0.8-2.11-1.73c-0.56-4.98,0.89-9.85,0.8-14.81c4.98-0.77,6.69-3.96,6.67-8.68c-0.06-14.96-0.02-29.92-0.02-44.88
	c1.33-0.47,1.62,0.66,2.1,1.34c11.43,16.24,19.62,34.06,23.07,53.55c2.36,13.38,3.53,27.02,2.44,40.79
	c-0.76,9.55-0.34,19.22-0.06,28.82c0.11,3.67-1.06,4.51-4.51,4.38c-6.92-0.27-13.86-0.16-20.79-0.03c-2.44,0.04-3.3-0.72-3.24-3.22
	c0.14-6.93,0.04-13.86,0.05-20.8C313.35,325.73,311.44,322.78,306.68,322.14z"/>
<path class="st5" d="M163.08,228.74c-0.08,22.85,0.46,45.71-0.43,68.53c-0.68,17.3-0.32,34.58-0.53,51.87
	c-0.04,3.28-0.88,4.35-4.2,4.24c-7.08-0.23-14.18-0.08-21.27-0.07c-1.67,0-3.08,0.02-3.08-2.37c0.03-21.55-0.82-43.24,2.46-64.53
	c3.49-22.67,12.58-43.53,26.02-62.31C164.49,225.19,163.13,227.11,163.08,228.74z"/>
<path class="st5" d="M237.29,437.43c-13.48-16.16-20.39-35.05-24.19-55.28c-0.75-4-1.18-8.06-1.81-12.09
	c-0.35-2.24,0.03-3.42,2.81-3.37c15.85,0.32,31.72-0.08,47.57,0.92c3.71,0.24,2.48,2.56,2.33,4.25
	c-1.43,16.77-7.04,32.25-14.71,47.09C245.89,425.5,241.95,431.69,237.29,437.43z"/>
<path class="st28" d="M163.08,228.74c-0.81-1.45,0.78-3.42-1.03-4.64c0.45-1.15,1.25-2.23,1.72-0.25
	C164.14,225.37,164.26,227.25,163.08,228.74z"/>
<path class="st11" d="M238.32,251.39c18.51,0.02,33.49,15.07,33.4,33.55c-0.09,18.13-15.1,33.05-33.43,33.21
	c-18.27,0.16-33.71-15.18-33.67-33.48C204.64,266.23,219.69,251.37,238.32,251.39z"/>
<path class="st11" d="M205.41,189.19c0.36-16.82,14.04-33.14,33.56-33.06c19.39,0.08,33,14.31,33.31,30.59
	c0.45,23.15-14.29,36.49-32.65,36.15C217.69,222.45,204.92,205.71,205.41,189.19z"/>
<path class="st29" d="M306.83,293.83c3.9,0.46,6.51,2.26,6.63,6.52c0.12,4.51-2.57,6.44-6.63,7.04c-3.93-0.6-6.51-2.93-6.5-6.81
	C300.33,296.72,302.84,294.33,306.83,293.83z"/>
<path class="st9" d="M238.23,304.58c-11.16,0-20.22-8.87-20.27-19.84c-0.04-10.87,9.19-20.07,20.15-20.08
	c11.01-0.02,20.17,9,20.28,19.97C258.52,295.46,249.3,304.58,238.23,304.58z"/>
<path class="st9" d="M238.66,209.75c-10.83-0.28-20.24-10.1-19.74-20.61c0.52-11.1,10.03-20.13,20.69-19.63
	c11.15,0.52,20.21,9.98,19.74,20.59C258.86,201.08,249.43,210.04,238.66,209.75z"/>
</svg>
