<?xml version="1.0" encoding="utf-8"?>
<!-- Generator: Adobe Illustrator 25.0.1, SVG Export Plug-In . SVG Version: 6.00 Build 0)  -->
<svg version="1.1" id="Layer_1" xmlns="http://www.w3.org/2000/svg" xmlns:xlink="http://www.w3.org/1999/xlink" x="0px" y="0px"
	 viewBox="0 0 512 512" style="enable-background:new 0 0 512 512;" xml:space="preserve">
<style type="text/css">
	.st0{fill:#F1E5D7;stroke:#171717;stroke-miterlimit:100;}
	.st1{fill:none;stroke:#171717;stroke-miterlimit:100;}
	.st2{fill:#90B4D6;stroke:#171717;stroke-miterlimit:100;}
	.st3{fill:#E1EAF1;}
	.st4{fill:#8FB3D5;}
	.st5{fill:#FEF4CC;}
	.st6{fill:#EFE3D5;}
	.st7{fill:#67C2D7;}
	.st8{fill:#90B4D6;}
	.st9{fill:#FFFFFF;}
	.st10{fill:#283033;}
	.st11{fill:#020203;}
	.st12{fill:#8CD2EF;}
	.st13{fill:#FBD2BC;}
	.st14{fill:#F8BD9D;}
	.st15{fill:#B5D1E3;}
	.st16{fill:#6FC9ED;}
	.st17{fill:#F8BD9C;}
	.st18{fill:#F18C9E;}
	.st19{opacity:0.6;fill:#FFFFFF;enable-background:new    ;}
	.st20{fill:#EEECED;}
	.st21{fill:#F8F6F7;}
	.st22{fill:#E3E0E3;}
	.st23{fill:#D5CFD4;}
	.st24{fill:#CFEBF8;}
	.st25{fill:#ACDDF2;}
</style>
<g>
	<polygon class="st2" points="391.2,136.44 396.99,97.85 431.19,63.25 432.53,82.63 431.3,79.15 429.76,64.7 441.76,52.56 
		444.27,82.75 	"/>
	<polygon class="st2" points="448.7,87.03 395.32,140.41 433.87,134.4 447.54,120.73 462.65,105.62 466.83,101.44 468.68,99.59 
		478.89,89.37 	"/>
	<path class="st0" d="M219.67,378.19c-19.29,0-37.42-7.51-51.06-21.15c-13.64-13.64-21.15-31.77-21.15-51.06
		c0-19.29,7.51-37.42,21.15-51.06c13.64-13.64,31.77-21.15,51.06-21.15c14.26,0,28.04,4.15,39.87,12c3.55,2.35,4.51,7.14,2.16,10.68
		c-2.35,3.55-7.14,4.51-10.68,2.16c-9.29-6.17-20.13-9.43-31.35-9.43c-31.32,0-56.8,25.48-56.8,56.8s25.48,56.8,56.8,56.8
		s56.8-25.48,56.8-56.8c0-7.13-1.3-14.08-3.87-20.65c-1.55-3.97,0.41-8.44,4.37-9.98c3.97-1.55,8.44,0.41,9.98,4.37
		c3.27,8.37,4.93,17.2,4.93,26.26c0,19.29-7.51,37.42-21.15,51.06C257.09,370.69,238.96,378.19,219.67,378.19z"/>
	<path class="st0" d="M219.67,439c-17.95,0-35.37-3.52-51.78-10.46c-15.84-6.7-30.06-16.29-42.28-28.5
		c-12.21-12.21-21.8-26.44-28.5-42.28c-6.94-16.4-10.46-33.82-10.46-51.78c0-17.95,3.52-35.37,10.46-51.78
		c6.7-15.84,16.29-30.06,28.5-42.28c12.21-12.21,26.44-21.8,42.28-28.5c16.4-6.94,33.82-10.46,51.78-10.46
		c15.56,0,30.8,2.66,45.3,7.92c14.01,5.08,27.01,12.44,38.61,21.89c3.3,2.69,3.8,7.54,1.11,10.84c-2.69,3.3-7.54,3.8-10.84,1.11
		c-20.87-16.99-47.22-26.35-74.18-26.35c-64.84,0-117.6,52.76-117.6,117.6c0,64.84,52.76,117.6,117.6,117.6
		c64.85,0,117.6-52.76,117.6-117.6c0-22.9-6.58-45.09-19.03-64.17c-2.33-3.57-1.32-8.34,2.24-10.67c3.57-2.33,8.34-1.32,10.67,2.24
		c14.09,21.59,21.54,46.7,21.54,72.59c0,17.95-3.52,35.37-10.46,51.78c-6.7,15.84-16.29,30.06-28.5,42.28
		c-12.21,12.21-26.44,21.8-42.28,28.5C255.04,435.48,237.63,439,219.67,439z"/>
	<path class="st0" d="M219.67,492.55c-25.18,0-49.61-4.93-72.62-14.67c-22.22-9.4-42.17-22.85-59.3-39.98
		c-17.13-17.13-30.58-37.08-39.98-59.3c-9.73-23.01-14.67-47.44-14.67-72.62c0-25.18,4.93-49.62,14.67-72.62
		c9.4-22.22,22.85-42.17,39.98-59.3c17.13-17.13,37.08-30.58,59.3-39.98c23.01-9.73,47.44-14.67,72.62-14.67
		c22.83,0,45.13,4.08,66.29,12.12c20.44,7.77,39.22,19,55.81,33.38c3.22,2.79,3.57,7.65,0.78,10.87c-2.79,3.22-7.65,3.57-10.87,0.78
		c-31.07-26.92-70.85-41.74-112.01-41.74c-94.37,0-171.15,76.78-171.15,171.15s76.78,171.15,171.15,171.15
		c94.38,0,171.15-76.78,171.15-171.15c0-37.17-11.71-72.51-33.86-102.21c-2.54-3.41-1.84-8.24,1.57-10.79
		c3.41-2.54,8.24-1.84,10.79,1.57c11.76,15.76,20.89,33.16,27.16,51.72c6.48,19.19,9.76,39.28,9.76,59.72
		c0,25.18-4.93,49.61-14.67,72.62c-9.4,22.22-22.85,42.17-39.98,59.3c-17.13,17.13-37.08,30.58-59.3,39.98
		C269.29,487.62,244.86,492.55,219.67,492.55z"/>
	<circle class="st2" cx="219.88" cy="305.76" r="53.39"/>
	<path class="st0" d="M223.07,318.75c-1.76,0-3.53-0.67-4.88-2c-2.73-2.69-2.75-7.09-0.06-9.81L444.63,77.82
		c2.69-2.73,7.09-2.75,9.81-0.06c2.73,2.69,2.75,7.09,0.06,9.81L228.01,316.69C226.65,318.06,224.86,318.75,223.07,318.75z"/>
</g>
</svg>
