<?xml version="1.0" encoding="utf-8"?>
<!-- Generator: Adobe Illustrator 25.0.1, SVG Export Plug-In . SVG Version: 6.00 Build 0)  -->
<svg version="1.1" id="Layer_1" xmlns="http://www.w3.org/2000/svg" xmlns:xlink="http://www.w3.org/1999/xlink" x="0px" y="0px"
	 viewBox="0 0 512 512" style="enable-background:new 0 0 512 512;" xml:space="preserve">
<style type="text/css">
	.st0{fill:#F1E5D7;stroke:#171717;stroke-miterlimit:100;}
	.st1{fill:none;stroke:#171717;stroke-miterlimit:100;}
	.st2{fill:#90B4D6;stroke:#171717;stroke-miterlimit:100;}
	.st3{fill:#E1EAF1;}
	.st4{fill:#8FB3D5;}
	.st5{fill:#FEF4CC;}
	.st6{fill:#EFE3D5;}
	.st7{fill:#67C2D7;}
	.st8{fill:#90B4D6;}
	.st9{fill:#FFFFFF;}
	.st10{fill:#283033;}
	.st11{fill:#020203;}
	.st12{fill:#8CD2EF;}
	.st13{fill:#FBD2BC;}
	.st14{fill:#F8BD9D;}
	.st15{fill:#B5D1E3;}
	.st16{fill:#6FC9ED;}
	.st17{fill:#F8BD9C;}
	.st18{fill:#F18C9E;}
	.st19{opacity:0.6;fill:#FFFFFF;enable-background:new    ;}
	.st20{fill:#EEECED;}
	.st21{fill:#F8F6F7;}
	.st22{fill:#E3E0E3;}
	.st23{fill:#D5CFD4;}
	.st24{fill:#CFEBF8;}
	.st25{fill:#ACDDF2;}
</style>
<g>
	<path class="st0" d="M287.43,402.66l-23.31,15.44l-171.2,21.69L52.63,219.14l15.02-50.58c0,0,149.95-35.07,194.59,5.65
		L287.43,402.66z"/>
	<polygon class="st0" points="295.05,160.81 289.71,403.82 309.42,422.05 472.83,412.5 474.86,379.53 433.84,152.57 	"/>
	<g>
		<path class="st0" d="M293.75,363.22l-33-228.13l32.52,1.43l26.3,224.3L293.75,363.22z"/>
		<path class="st2" d="M57.63,198.44l-24.57,5.73l43.3,231.14l124.48-3.01l71.65-6.13c0,0,17.22,13.08,35.12-0.93l166.28-11.02
			l-4.28-39.03l-4.24,26.26c0,0-29.28-7.54-80.4-1.27c-28.73,3.53-69.45,17.19-74.45,11.92c-1.75-1.85-22.79-8.57-22.79-8.57
			s-13.04,8.8-20.31,10.97c-7.27,2.18-38.16-0.1-63.1,1.13c-48.51,2.4-107.4,9.3-107.4,9.3L55.04,218.05L57.63,198.44z"/>
		<path class="st2" d="M85.53,179.45l5.73,40.67c0,0,62.74,5.25,73.06-5.34c10.32-10.59-4.16-41.41-4.16-41.41
			S114.53,165.18,85.53,179.45z"/>
		<g>
			<path class="st2" d="M100.95,406.03c-1.02,0-1.91-0.73-2.09-1.77L63.31,191.31c-0.19-1.15,0.59-2.25,1.74-2.44
				c1.16-0.19,2.25,0.59,2.44,1.74l35.56,212.95c0.19,1.15-0.59,2.25-1.74,2.44C101.19,406.02,101.07,406.03,100.95,406.03z"/>
		</g>
		<g>
			<path class="st2" d="M275.13,415.43c-0.84,0-1.64-0.5-1.97-1.33c-0.44-1.09,0.09-2.32,1.18-2.76c0.29-0.12,0.57-0.33,0.93-0.61
				c0.43-0.33,0.96-0.75,1.66-1.08c0.85-0.41,1.69-0.8,2.53-1.19c1.73-0.8,3.37-1.56,5.05-2.49c0.37-0.21,0.74-0.42,1.11-0.64
				c1.62-0.96,3.45-2.05,5.78-2.14c1.18-0.05,2.16,0.86,2.2,2.03c0.05,1.17-0.86,2.16-2.03,2.2c-1.27,0.05-2.44,0.75-3.79,1.55
				c-0.41,0.24-0.81,0.48-1.23,0.71c-1.81,1-3.59,1.82-5.32,2.62c-0.82,0.38-1.64,0.76-2.48,1.16c-0.3,0.14-0.56,0.35-0.89,0.61
				c-0.49,0.38-1.11,0.86-1.95,1.2C275.66,415.38,275.39,415.43,275.13,415.43z"/>
		</g>
		<g>
			<path class="st2" d="M280.65,418.52c-0.98,0-1.96-0.01-2.93-0.03c-0.95-0.02-1.98-0.16-3.07-0.31c-1.51-0.2-3.22-0.44-4.14-0.21
				c-1.14,0.28-2.29-0.4-2.57-1.54c-0.29-1.13,0.4-2.29,1.54-2.57c1.72-0.43,3.77-0.15,5.75,0.12c0.97,0.13,1.88,0.26,2.58,0.27
				c6.89,0.14,13.9-0.24,20.84-1.13c4.48-0.59,9.13-1.79,9.93-2.58c0.79-0.87,2.12-0.93,2.99-0.14c0.87,0.79,0.93,2.13,0.14,3
				c-2.13,2.35-9.46,3.54-12.52,3.93C293.01,418.12,286.79,418.52,280.65,418.52z"/>
		</g>
		<g>
			<path class="st2" d="M279.05,415.76c-0.79,0-1.55-0.45-1.91-1.21c-0.5-1.06-0.05-2.32,1.01-2.82c3.02-1.44,5.81-3.08,8.75-4.81
				c1.98-1.16,4.02-2.37,6.13-3.49c1.03-0.55,2.32-0.16,2.87,0.87c0.55,1.03,0.16,2.32-0.87,2.87c-2.03,1.08-4.03,2.26-5.97,3.41
				c-2.9,1.71-5.9,3.47-9.09,4.99C279.66,415.7,279.35,415.76,279.05,415.76z"/>
		</g>
		<g>
			<path class="st2" d="M283.84,416.53c-0.59,0-1.18-0.25-1.6-0.73c-0.77-0.88-0.67-2.22,0.22-2.99c0.96-0.83,2.56-1.5,4.38-2.23
				c0.41-0.16,0.76-0.3,0.98-0.41c3.27-1.53,6.71-3.23,9.6-5.72c0.89-0.76,2.22-0.66,2.99,0.22c0.76,0.89,0.66,2.23-0.22,2.99
				c-3.3,2.84-7.19,4.77-10.57,6.35c-0.27,0.13-0.7,0.3-1.21,0.51c-0.87,0.35-2.68,1.07-3.18,1.5
				C284.82,416.36,284.33,416.53,283.84,416.53z"/>
		</g>
		<g>
			<path class="st2" d="M291.04,416.47c-0.82,0-1.6-0.48-1.94-1.27c-0.47-1.07,0.02-2.32,1.1-2.79c3.93-1.71,7.87-3.69,12.05-6.04
				c1.02-0.57,2.31-0.21,2.89,0.81c0.57,1.02,0.21,2.31-0.81,2.89c-4.3,2.42-8.37,4.46-12.44,6.23
				C291.61,416.41,291.32,416.47,291.04,416.47z"/>
		</g>
		<g>
			<path class="st2" d="M104.74,399.53c-0.58,0-1.15-0.18-1.63-0.52c-0.63-0.44-1.05-1.13-1.17-1.89
				C90.58,320.54,68.8,174.38,67.71,169.35c-0.28-1.29,0.24-2.61,1.41-3.51c5.74-4.47,48.8-8.3,85.42-9.07
				c30.55-0.64,85.51,0.1,110.22,12.38c1.4,0.69,1.97,2.39,1.27,3.79c-0.69,1.4-2.39,1.97-3.79,1.27
				c-17.19-8.54-56.2-12.85-107.04-11.8c-41.5,0.85-74.82,4.85-81.66,7.44c3.35,20.07,29.69,197.44,33.57,223.54
				c18.25-3.36,117.83-20.63,179.08-9.53c1.54,0.28,2.56,1.75,2.28,3.28c-0.28,1.54-1.75,2.56-3.28,2.28
				c-66.23-12-178.76,9.84-179.89,10.06C105.1,399.51,104.92,399.53,104.74,399.53z"/>
		</g>
		<g>
			<path class="st2" d="M286.42,389.29c-0.87,0-1.74-0.41-2.29-1.17c-0.92-1.26-0.63-3.03,0.63-3.95
				c38.63-28.01,164.2-18.62,187.49-16.6c-1.67-12.52-7.67-56.67-15-101.07c-5.06-30.62-9.75-55.36-13.96-73.53
				c-7.28-31.47-11.24-34.96-11.96-35.33c-6.44-3.18-33.41-3.65-68.72-1.2c-35.64,2.47-60.72,6.53-64.37,9.03
				c-1.29,0.88-3.05,0.55-3.93-0.73s-0.55-3.05,0.73-3.93c6.87-4.7,45.46-8.51,67.17-10.01c13.99-0.97,60.51-3.71,71.61,1.78
				c3.29,1.62,7.64,7.51,14.91,38.89c4.23,18.26,8.96,43.13,14.05,73.92c8.66,52.36,15.46,104.44,15.53,104.96
				c0.11,0.85-0.17,1.71-0.77,2.33c-0.6,0.62-1.44,0.94-2.3,0.85c-1.47-0.14-147.14-13.78-187.16,15.23
				C287.58,389.11,287,389.29,286.42,389.29z"/>
		</g>
		<g>
			<path class="st2" d="M313.28,416.36c-3,0-5.79-2.27-8.49-4.47c-1.78-1.45-3.8-3.09-5.17-3.41c-3.01-0.69-5.12-1.01-6.82-1.27
				c-2.81-0.43-4.66-0.71-6.38-2.28c-7.82-7.1-2.81-17.05-1.15-19.14c0.93-1.16,2.63-1.44,3.85-0.59c1.22,0.85,1.53,2.6,0.76,3.88
				c-0.08,0.14-0.18,0.27-0.28,0.39c-0.72,1.18-3.98,7.1,0.62,11.28c0.43,0.39,1.19,0.53,3.43,0.87c1.7,0.26,4.03,0.61,7.24,1.35
				c2.65,0.61,5.1,2.61,7.47,4.53c1.57,1.28,3.93,3.2,4.91,3.2c4.84-0.11,15.38-2.74,26.53-5.52c12.73-3.17,27.16-6.76,37.89-7.89
				c35.43-3.73,66.51-4.38,86.03-1.83c0.97-5.54,3.54-17.84,8.22-24.37c0.91-1.27,2.67-1.56,3.94-0.65
				c1.27,0.91,1.56,2.67,0.65,3.94c-5.21,7.28-7.64,24.49-7.67,24.66c-0.1,0.75-0.51,1.43-1.11,1.88c-0.61,0.45-1.37,0.64-2.12,0.52
				c-18.81-2.93-50.64-2.39-87.35,1.47c-10.34,1.09-24.56,4.63-37.11,7.76c-11.97,2.98-22.3,5.56-27.75,5.69
				C313.37,416.36,313.33,416.36,313.28,416.36z"/>
		</g>
		<g>
			<path class="st2" d="M98.22,427.26c-0.84,0-1.64-0.37-2.18-1.03c-0.58-0.7-0.79-1.64-0.55-2.51c0.55-2.1,1.36-4.59,2.22-7.23
				c2.12-6.52,4.76-14.63,4.5-20.24c-0.07-1.56,1.14-2.88,2.7-2.95c1.54-0.08,2.88,1.14,2.95,2.7c0.3,6.64-2.51,15.29-4.77,22.24
				c-0.35,1.07-0.69,2.12-1.01,3.12c19.42-1.23,104.5-6.57,161.81-8.9c5.65-0.23,8.56-3.05,11.65-6.03
				c3.24-3.12,6.9-6.67,13.35-6.08c1.55,0.14,2.7,1.51,2.56,3.07c-0.14,1.55-1.51,2.71-3.07,2.56c-3.68-0.33-5.69,1.41-8.91,4.52
				c-3.37,3.25-7.55,7.3-15.35,7.61c-64.65,2.63-164.71,9.09-165.71,9.15C98.35,427.26,98.29,427.26,98.22,427.26z"/>
		</g>
		<g>
			<path class="st2" d="M96.12,427.17c-1.14,0-2.22-0.7-2.65-1.83c-2.29-6.1-13.27-61.31-22.08-106.56
				c-0.19-0.98-18.98-97.75-18.77-99.64c0.77-6.87,8.59-31.3,15.02-50.58c0.49-1.48,2.1-2.28,3.57-1.79
				c1.48,0.49,2.28,2.1,1.79,3.57c-8.79,26.37-14,43.76-14.73,49.12c0.66,4.33,9.46,50.98,18.96,99.76
				c12.04,61.82,19.88,99.77,21.53,104.14c0.55,1.46-0.19,3.09-1.65,3.64C96.79,427.12,96.45,427.17,96.12,427.17z"/>
		</g>
		<g>
			<path class="st2" d="M286.94,387.74c-1.44,0-2.68-1.1-2.81-2.57l-13.7-151.3c-0.14-1.55,1.01-2.93,2.56-3.07
				c1.54-0.15,2.93,1.01,3.07,2.56l13.7,151.3c0.14,1.55-1.01,2.93-2.56,3.07C287.11,387.74,287.03,387.74,286.94,387.74z"/>
		</g>
		<g>
			<path class="st2" d="M292.43,369.21c-0.6,0-1.19-0.19-1.68-0.55c-0.61-0.45-1.01-1.12-1.12-1.87l-32.64-227.9
				c-0.11-0.78,0.11-1.57,0.6-2.18c0.49-0.61,1.22-0.99,2-1.04l32.98-2.28c1.51-0.1,2.83,0.99,3,2.49l26.43,225.91
				c0.18,1.51-0.87,2.88-2.36,3.12l-26.78,4.26C292.72,369.2,292.58,369.21,292.43,369.21z M263.02,141.1l31.8,222.05l21.27-3.38
				l-25.8-220.54L263.02,141.1z"/>
		</g>
		<g>
			<path class="st2" d="M92.92,439.79c-12.9,0-13.87-0.83-14.64-1.49c-1.31-1.11-2.79-2.36-13.5-56.17
				c-6.09-30.61-13.26-68.66-19.59-102.22c-6.66-35.33-12.95-68.7-13.96-71.59c-0.52-1.51-0.32-3.07,0.58-4.41
				c3.62-5.41,20.57-6.91,27.69-7.31c1.57-0.09,2.89,1.11,2.98,2.67c0.09,1.56-1.11,2.89-2.67,2.98c-10.71,0.6-21.21,2.71-23.12,4.6
				c1.29,4.42,6.01,29.33,14.06,72.03c10.94,58.05,27.33,145.01,31.3,154.94c11.78,2.03,119.8-4.13,191.17-8.87
				c0.34-0.02,0.68,0.02,1,0.11c0.22,0.06,21.8,6.36,33.69-2.44c0.44-0.33,0.98-0.52,1.53-0.55c60.74-3.28,151.14-8.36,163.41-9.56
				c0.49-4.39-1.35-19.35-3.54-32c-0.27-1.54,0.76-3,2.3-3.27c1.54-0.27,3,0.76,3.27,2.3c0.01,0.09,1.5,8.68,2.57,17.29
				c2.08,16.77,1.12,20.03-1.83,20.97c-3.22,1.03-115.82,7.21-165.05,9.87c-13.24,9.08-33.87,3.95-37.46,2.95
				c-5.16,0.34-49.76,3.27-94.36,5.72C130.51,438.96,105.78,439.79,92.92,439.79z"/>
		</g>
		<g>
			<path class="st2" d="M103.1,412.19c-1.16,0-2.24-0.72-2.66-1.87c-0.53-1.47,0.23-3.09,1.7-3.62c12.46-4.5,133.29-24.35,182.13-7
				c1.47,0.52,2.24,2.14,1.72,3.61c-0.52,1.47-2.14,2.24-3.61,1.72c-25.34-9-69.97-7.33-102.95-4.35
				c-38.14,3.45-70.53,9.59-75.37,11.33C103.74,412.13,103.42,412.19,103.1,412.19z"/>
		</g>
		<g>
			<path class="st2" d="M289.71,403.82c-0.87,0-1.73-0.4-2.28-1.16c-0.92-1.26-0.65-3.03,0.61-3.95
				c13.97-10.23,73.48-21.6,97.54-21.91c1.54-0.03,2.84,1.23,2.86,2.79c0.02,1.56-1.23,2.84-2.79,2.86
				c-25.45,0.32-82.23,12-94.27,20.81C290.87,403.65,290.29,403.82,289.71,403.82z"/>
		</g>
		<g>
			<path class="st2" d="M468.27,387.58c-0.3,0-0.59-0.05-0.89-0.15c-6.47-2.14-45.09-7.47-62.35-5.24c-1.54,0.2-2.96-0.89-3.17-2.44
				c-0.2-1.55,0.89-2.96,2.44-3.17c17.84-2.31,56.65,2.76,64.85,5.48c1.48,0.49,2.29,2.09,1.79,3.57
				C470.56,386.82,469.45,387.58,468.27,387.58z"/>
		</g>
		<g>
			<path class="st2" d="M117.83,224.19c-3.34,0-6.57-0.06-9.59-0.19c-16.45-0.68-18.54-2.86-19.44-3.79
				c-3.96-4.13-5.13-14.38-6.34-28.41c-0.37-4.34-0.73-8.43-1.21-11.41c-0.98-6.03,8.33-8.47,11.84-9.39
				c11.49-3.01,28.64-4.24,40.85-4.4c27.03-0.34,28.52,3.7,29.15,5.43c1.8,4.92,9.87,36.36,3.89,44.76
				c-0.94,1.32-3.43,4.82-28.17,6.64C131.96,223.93,124.68,224.19,117.83,224.19z M92.82,216.23c1.9,1.29,14.26,2.85,35.05,2.12
				c21.15-0.75,32.9-3.3,34.53-4.88c3.45-5.02-1.43-30.4-4.49-39.1c-4.5-2.82-37.93-3.21-59.5,1.2c-9.08,1.86-11.17,3.71-11.55,4.16
				c0.49,3.15,0.85,7.25,1.22,11.59C88.84,200.01,89.97,213.13,92.82,216.23z"/>
		</g>
		<g>
			<path class="st2" d="M257.4,193.76c-0.26,0-0.51-0.03-0.77-0.11c-12.49-3.54-70.05-6.03-79.07-4.11
				c-1.53,0.33-3.03-0.65-3.35-2.18c-0.32-1.53,0.65-3.03,2.18-3.35c11.1-2.35,69.19,0.63,81.79,4.2c1.5,0.42,2.37,1.99,1.95,3.49
				C259.76,192.95,258.63,193.76,257.4,193.76z"/>
		</g>
		<g>
			<path class="st2" d="M261.82,212.04c-0.38,0-0.76-0.08-1.12-0.23c-8.75-3.79-67.77-5.49-80.95-2.32
				c-1.52,0.36-3.04-0.57-3.41-2.09c-0.36-1.52,0.57-3.04,2.09-3.41c13.3-3.19,73.8-2.01,84.52,2.64c1.43,0.62,2.09,2.28,1.47,3.72
				C263.96,211.41,262.92,212.04,261.82,212.04z"/>
		</g>
		<g>
			<path class="st2" d="M371.27,285.8c-11.07,0-12.18-0.8-12.84-1.27c-2.76-1.98-4.4-10.06-7.62-37.6
				c-0.56-4.77-1.04-8.88-1.33-10.36c-0.66-3.4,1.96-6.2,7.8-8.31c10.92-3.95,32.43-5.83,47.54-6.24
				c9.06-0.25,17.47-0.05,23.68,0.56c10.3,1.01,12.65,2.85,13.65,4.68c4.02,7.34,9.46,42.53,6.05,51.04
				c-0.64,1.61-1.64,2.63-2.95,3.05c-3.55,1.13-28.6,2.73-43.56,3.48C387.13,285.54,377.58,285.8,371.27,285.8z M361.8,279.82
				c8.35,1.49,73.2-2.14,81.22-3.75c2.24-5.2-1.86-38.43-5.74-45.93c-4.19-3.19-41.67-3.91-67.54,0.8
				c-11.63,2.12-14.2,4.3-14.66,4.82c0.32,1.8,0.75,5.49,1.34,10.51C357.47,255.23,359.87,275.77,361.8,279.82z"/>
		</g>
		<g>
			<path class="st2" d="M301.5,190.48c-0.96,0-1.89-0.49-2.42-1.36c-0.81-1.33-0.38-3.07,0.95-3.88c6.87-4.16,33.77-6.5,49.19-7.53
				c1.56-0.1,2.9,1.08,3.01,2.63c0.1,1.56-1.08,2.9-2.63,3.01c-24.63,1.64-42.5,4.22-46.64,6.73
				C302.5,190.34,302,190.48,301.5,190.48z"/>
		</g>
		<g>
			<path class="st2" d="M377.07,181.77c-1.38,0-2.59-1.01-2.79-2.42c-0.23-1.54,0.84-2.98,2.39-3.21
				c7.62-1.12,44.42-2.76,53.57-1.09c1.54,0.28,2.55,1.75,2.27,3.29c-0.28,1.54-1.75,2.55-3.29,2.27c-7.96-1.45-44.06,0-51.74,1.12
				C377.35,181.76,377.21,181.77,377.07,181.77z"/>
		</g>
		<g>
			<path class="st2" d="M305.98,215.07c-1.18,0-2.29-0.75-2.68-1.93c-0.49-1.48,0.31-3.08,1.79-3.57
				c7.74-2.57,90.96-12.77,112.38-11.41c1.56,0.1,2.74,1.44,2.64,3c-0.1,1.56-1.44,2.72-3,2.64c-20.24-1.29-102.9,8.69-110.24,11.13
				C306.58,215.03,306.27,215.07,305.98,215.07z"/>
		</g>
		<g>
			<path class="st2" d="M306.6,246.38c-0.96,0-1.89-0.49-2.42-1.37c-0.81-1.34-0.38-3.07,0.96-3.88c2.34-1.41,5.2-1.96,7.72-2.45
				c0.35-0.07,0.7-0.13,1.03-0.2c5.98-1.2,12.02-1.52,17.87-1.83c2.53-0.13,5.14-0.27,7.68-0.48c1.55-0.13,2.92,1.03,3.04,2.59
				c0.13,1.55-1.03,2.92-2.59,3.04c-2.62,0.22-5.28,0.35-7.84,0.49c-5.9,0.31-11.48,0.6-17.05,1.73c-0.35,0.07-0.71,0.14-1.08,0.21
				c-2.06,0.4-4.39,0.84-5.87,1.73C307.6,246.25,307.09,246.38,306.6,246.38z"/>
		</g>
		<g>
			<path class="st2" d="M312.73,287.36c-1.29,0-2.46-0.89-2.75-2.2c-0.34-1.52,0.61-3.04,2.13-3.38c7.25-1.64,15.03-2.56,21.9-2.59
				c1.57,0,2.83,1.26,2.84,2.81c0.01,1.56-1.25,2.83-2.81,2.84c-6.47,0.03-13.81,0.9-20.67,2.45
				C313.15,287.34,312.94,287.36,312.73,287.36z"/>
		</g>
		<g>
			<path class="st2" d="M315.16,312.86c-1.29,0-2.46-0.89-2.75-2.2c-0.34-1.52,0.61-3.04,2.13-3.38c5.65-1.28,11.5-1.63,17.15-1.97
				c3.59-0.22,7.3-0.44,10.82-0.9c8.14-1.06,16.53-1.57,24.64-2.07l0.49-0.03c0.99-0.06,1.94-0.03,2.87,0
				c0.95,0.03,1.85,0.06,2.66-0.02c5.03-0.51,10.64-0.77,17.15-0.8c1.57,0,2.83,1.26,2.84,2.82c0.01,1.56-1.25,2.83-2.82,2.84
				c-6.33,0.02-11.76,0.28-16.6,0.77c-1.19,0.12-2.33,0.08-3.43,0.05c-0.82-0.03-1.6-0.06-2.32-0.01l-0.5,0.03
				c-8.02,0.49-16.31,1-24.25,2.04c-3.72,0.49-7.53,0.72-11.21,0.94c-5.43,0.33-11.04,0.66-16.24,1.84
				C315.57,312.83,315.36,312.86,315.16,312.86z"/>
		</g>
		<g>
			<path class="st2" d="M418.43,305.59c-1.56,0-2.82-1.26-2.83-2.82c-0.01-1.56,1.26-2.83,2.82-2.83c2.31-0.01,4.61-0.21,7.05-0.43
				c2.44-0.22,4.96-0.44,7.5-0.45c1.51-0.01,3.03,0.07,4.5,0.14c2.28,0.11,4.43,0.22,6.51,0.05c1.57-0.12,2.92,1.04,3.04,2.59
				c0.12,1.56-1.04,2.92-2.59,3.04c-2.44,0.2-4.88,0.08-7.24-0.03c-1.46-0.07-2.83-0.13-4.21-0.13c-2.3,0.01-4.59,0.21-7.01,0.43
				C423.53,305.36,421,305.59,418.43,305.59C418.44,305.59,418.44,305.59,418.43,305.59z"/>
		</g>
		<g>
			<path class="st2" d="M321.69,342.66c-1.29,0-2.46-0.89-2.75-2.2c-0.35-1.52,0.61-3.04,2.13-3.38c0.77-0.17,1.55-0.36,2.34-0.54
				c4.16-0.97,8.47-1.97,12.79-2.45c1.11-0.12,2.21-0.17,3.27-0.21c1.18-0.05,2.29-0.09,3.35-0.24c2.72-0.38,5.44-0.78,8.16-1.18
				c8.56-1.25,17.41-2.54,26.21-3.35c7.02-0.65,14.15-1.02,21.04-1.38c2.41-0.13,4.81-0.25,7.21-0.39
				c11.14-0.64,20.14-0.84,28.34-0.61c1.12,0.03,2.28,0.02,3.5,0.01c3.49-0.03,7.1-0.06,10.54,0.79c1.51,0.37,2.44,1.9,2.07,3.42
				c-0.37,1.51-1.9,2.44-3.42,2.07c-2.75-0.68-6-0.65-9.14-0.63c-1.22,0.01-2.48,0.02-3.7-0.01c-8.04-0.22-16.9-0.03-27.87,0.6
				c-2.41,0.14-4.82,0.27-7.24,0.39c-6.84,0.36-13.91,0.73-20.82,1.37c-8.65,0.8-17.43,2.08-25.91,3.31
				c-2.73,0.4-5.46,0.8-8.19,1.18c-1.33,0.19-2.64,0.24-3.9,0.29c-1.01,0.04-1.96,0.08-2.86,0.18c-3.99,0.45-8.13,1.41-12.14,2.34
				c-0.8,0.19-1.58,0.37-2.37,0.55C322.11,342.64,321.9,342.66,321.69,342.66z"/>
		</g>
		<g>
			<path class="st2" d="M98.81,250.4c-0.34,0-0.7-0.03-1.08-0.09c-1.54-0.26-2.57-1.72-2.32-3.26c0.26-1.54,1.72-2.58,3.26-2.31
				c0.24,0.04,0.48-0.03,1.23-0.3c0.4-0.15,0.86-0.32,1.39-0.46c2.61-0.7,5.34-1.03,7.99-1.34c1.28-0.15,2.49-0.29,3.66-0.48
				c9.07-1.4,18.27-2.43,27.16-3.43l4.41-0.5c8.22-0.93,16.58-1.07,24.66-1.2c4.1-0.07,8.34-0.14,12.48-0.31
				c11.4-0.48,23.45-0.41,37.92,0.24c1.41,0.06,2.86-0.04,4.38-0.15c1.63-0.11,3.32-0.23,5.09-0.15c1.56,0.07,2.77,1.39,2.7,2.95
				c-0.07,1.56-1.4,2.78-2.95,2.7c-1.45-0.06-2.9,0.04-4.45,0.15c-1.62,0.11-3.29,0.23-5.03,0.15c-14.3-0.64-26.2-0.72-37.43-0.24
				c-4.21,0.18-8.49,0.25-12.62,0.32c-7.95,0.13-16.17,0.27-24.12,1.17l-4.41,0.5c-8.84,0.99-17.97,2.02-26.93,3.39
				c-1.27,0.2-2.59,0.35-3.86,0.5c-2.44,0.29-4.96,0.59-7.18,1.18c-0.28,0.08-0.58,0.19-0.89,0.3
				C101.08,250.03,100.07,250.4,98.81,250.4z"/>
		</g>
		<g>
			<path class="st2" d="M266.63,245.81c-0.16,0-0.32-0.01-0.48-0.04c-4.55-0.77-9.36-1.16-13.91-1.5c-0.46-0.03-0.99-0.01-1.55,0.03
				c-0.93,0.06-1.98,0.12-3.14-0.08c-1.54-0.27-2.57-1.73-2.3-3.27s1.73-2.57,3.27-2.3c0.51,0.09,1.13,0.05,1.84,0.01
				c0.69-0.04,1.47-0.09,2.3-0.02c4.67,0.34,9.64,0.75,14.43,1.57c1.54,0.26,2.57,1.72,2.31,3.26
				C269.18,244.83,267.99,245.81,266.63,245.81z"/>
		</g>
		<g>
			<path class="st2" d="M273.43,269.34c-0.03,0-0.06,0-0.09,0c-1.8-0.06-3.49-0.6-4.98-1.07c-0.68-0.22-1.33-0.42-1.93-0.57
				c-3.95-0.95-8.06-1.82-12.2-2.59c-10.17-1.9-20.39-2.83-30.83-3.69c-18.4-1.51-36.56-0.46-56.68,0.96
				c-13.92,0.98-25.49,2.31-36.4,4.18c-1.3,0.22-2.58,0.59-3.95,0.98c-1.39,0.4-2.82,0.8-4.34,1.08c-1.53,0.27-3.01-0.75-3.28-2.28
				c-0.28-1.54,0.75-3.01,2.28-3.28c1.24-0.22,2.48-0.58,3.78-0.95c1.45-0.42,2.96-0.84,4.55-1.12c11.09-1.9,22.84-3.25,36.95-4.24
				c20.36-1.43,38.74-2.49,57.54-0.95c10.6,0.87,20.98,1.82,31.41,3.77c4.24,0.79,8.44,1.68,12.48,2.65
				c0.8,0.19,1.58,0.44,2.33,0.68c1.25,0.4,2.43,0.77,3.45,0.81c1.56,0.05,2.78,1.36,2.73,2.92
				C276.2,268.13,274.95,269.34,273.43,269.34z"/>
		</g>
		<g>
			<path class="st2" d="M113.98,316.01c-0.13,0-0.25,0-0.38-0.01c-1.56-0.05-2.78-1.36-2.73-2.92s1.36-2.78,2.92-2.73
				c1.01,0.05,2.04-0.21,3.24-0.49c1.09-0.26,2.33-0.54,3.66-0.62c3.85-0.24,7.58-0.8,11.52-1.39l0.96-0.14
				c6.08-0.9,12.35-1.31,18.41-1.7c2.53-0.16,5.15-0.33,7.68-0.54c0.94-0.08,1.9-0.17,2.87-0.27c3.97-0.4,8.07-0.8,12.13-0.09
				c1.54,0.27,2.57,1.73,2.3,3.27c-0.27,1.54-1.74,2.56-3.27,2.3c-3.29-0.58-7-0.21-10.59,0.15c-1.01,0.1-2,0.2-2.98,0.28
				c-2.58,0.21-5.22,0.38-7.77,0.54c-5.95,0.39-12.1,0.79-17.95,1.65l-0.95,0.14c-4.07,0.61-7.91,1.18-12.01,1.44
				c-0.86,0.05-1.76,0.26-2.72,0.49C117.03,315.67,115.58,316.01,113.98,316.01z"/>
		</g>
		<g>
			<path class="st2" d="M278.54,305.98c-0.18,0-0.36-0.02-0.55-0.05c-2.65-0.52-5.7-0.56-8.65-0.6c-1.69-0.02-3.44-0.05-5.12-0.16
				c-1.71-0.12-3.38-0.38-4.99-0.65c-1.34-0.22-2.6-0.42-3.85-0.54c-2.92-0.27-5.98-0.37-8.93-0.45c-2.14-0.06-4.35-0.13-6.53-0.27
				c-3.44-0.22-6.98-0.12-10.41-0.03c-2.73,0.07-5.55,0.15-8.37,0.07c-1.15-0.03-2.32-0.07-3.5-0.11
				c-6.62-0.22-13.47-0.45-19.65,0.73c-1.53,0.3-3.01-0.71-3.31-2.25c-0.29-1.53,0.71-3.01,2.25-3.31c6.8-1.3,13.97-1.06,20.9-0.83
				c1.17,0.04,2.32,0.08,3.47,0.11c2.67,0.07,5.41,0,8.07-0.07c3.55-0.09,7.22-0.19,10.91,0.04c2.09,0.13,4.25,0.19,6.35,0.26
				c3.04,0.09,6.19,0.19,9.28,0.48c1.43,0.13,2.85,0.36,4.23,0.58c1.56,0.25,3.03,0.49,4.47,0.58c1.54,0.1,3.13,0.12,4.82,0.15
				c3.2,0.04,6.5,0.09,9.65,0.7c1.53,0.3,2.53,1.78,2.23,3.32C281.05,305.05,279.86,305.98,278.54,305.98z"/>
		</g>
		<g>
			<path class="st2" d="M158.75,338.07c-1.4,0-2.61-1.04-2.8-2.46c-0.2-1.55,0.89-2.97,2.43-3.17c7.26-0.95,15.71-2.01,24.12-2.6
				c2.12-0.14,4.23-0.15,6.27-0.14c2.06,0,4,0.01,5.95-0.13c2.02-0.14,4.12-0.36,6.15-0.56c3.55-0.36,7.22-0.74,10.86-0.76
				c5.75-0.03,11.57,0.28,17.19,0.59c4.04,0.22,8.21,0.45,12.3,0.54c4.95,0.12,9.89,0.52,14.67,0.9c2.06,0.17,4.11,0.33,6.18,0.48
				c2.29,0.16,4.72,0.15,7.08,0.14c1.17-0.01,2.33-0.01,3.48,0c0.42,0.01,0.86-0.01,1.3-0.03c1.62-0.06,3.46-0.14,5.31,0.62
				c1.44,0.59,2.13,2.25,1.54,3.69c-0.59,1.44-2.25,2.13-3.69,1.54c-0.7-0.29-1.78-0.24-2.93-0.2c-0.54,0.02-1.07,0.04-1.6,0.03
				c-1.11-0.01-2.25-0.01-3.38,0c-2.46,0.01-5.01,0.03-7.51-0.15c-2.08-0.15-4.16-0.31-6.23-0.48c-4.7-0.38-9.55-0.77-14.34-0.89
				c-4.17-0.09-8.39-0.32-12.48-0.54c-5.54-0.3-11.26-0.61-16.85-0.58c-3.37,0.02-6.9,0.38-10.31,0.73
				c-2.07,0.21-4.22,0.43-6.34,0.58c-2.14,0.15-4.28,0.14-6.35,0.15c-2.04-0.01-3.96-0.01-5.88,0.12
				c-8.25,0.57-16.59,1.62-23.77,2.56C159,338.07,158.88,338.07,158.75,338.07z"/>
		</g>
		<g>
			<path class="st2" d="M110.55,348.46c-1.15,0-2.24-0.71-2.65-1.86c-0.54-1.47,0.22-3.09,1.69-3.62c3.48-1.27,7.19-2.33,11.01-3.16
				c0.65-0.14,1.34-0.41,2.08-0.69c1.1-0.42,2.35-0.9,3.78-1.08c1.55-0.2,2.96,0.89,3.16,2.44s-0.89,2.96-2.44,3.16
				c-0.77,0.1-1.61,0.42-2.49,0.76c-0.86,0.33-1.83,0.7-2.9,0.93c-3.57,0.77-7.03,1.76-10.27,2.95
				C111.2,348.41,110.87,348.46,110.55,348.46z"/>
		</g>
		<g>
			<path class="st2" d="M140.21,371.85c-1.15,0-2.24-0.72-2.66-1.86c-0.53-1.47,0.23-3.09,1.69-3.62c3.83-1.39,7.74-1.95,11.53-2.49
				c1.26-0.18,2.56-0.36,3.81-0.58c5.58-0.94,11.22-1.61,16.68-2.25c2.75-0.33,5.59-0.66,8.39-1.03
				c15.45-2.01,30.31-1.89,48.14-1.51c11.72,0.25,22.86,1.32,34.65,2.46l3.46,0.33c1.74,0.17,3.52,0.3,5.25,0.42
				c4.08,0.3,8.29,0.61,12.48,1.42c1.53,0.3,2.53,1.78,2.24,3.31c-0.3,1.53-1.77,2.54-3.31,2.24c-3.86-0.75-7.73-1.03-11.82-1.33
				c-1.76-0.13-3.57-0.26-5.37-0.44l-3.46-0.33c-11.68-1.13-22.72-2.19-34.22-2.43c-17.59-0.37-32.24-0.5-47.29,1.46
				c-2.83,0.37-5.69,0.71-8.46,1.04c-5.39,0.64-10.96,1.3-16.41,2.21c-1.33,0.22-2.66,0.41-3.95,0.6c-3.66,0.52-7.12,1.01-10.4,2.2
				C140.86,371.8,140.53,371.85,140.21,371.85z"/>
		</g>
	</g>
</g>
</svg>
