<?xml version="1.0" encoding="utf-8"?>
<!-- Generator: Adobe Illustrator 25.0.1, SVG Export Plug-In . SVG Version: 6.00 Build 0)  -->
<svg version="1.1" id="Layer_1" xmlns="http://www.w3.org/2000/svg" xmlns:xlink="http://www.w3.org/1999/xlink" x="0px" y="0px"
	 viewBox="0 0 512 512" style="enable-background:new 0 0 512 512;" xml:space="preserve">
<style type="text/css">
	.st0{fill:#F1E5D7;stroke:#171717;stroke-miterlimit:100;}
	.st1{fill:none;stroke:#171717;stroke-miterlimit:100;}
	.st2{fill:#90B4D6;stroke:#171717;stroke-miterlimit:100;}
	.st3{fill:#E1EAF1;}
	.st4{fill:#8FB3D5;}
	.st5{fill:#FEF4CC;}
	.st6{fill:#EFE3D5;}
	.st7{fill:#67C2D7;}
	.st8{fill:#90B4D6;}
	.st9{fill:#FFFFFF;}
	.st10{fill:#283033;}
	.st11{fill:#020203;}
	.st12{fill:#8CD2EF;}
	.st13{fill:#FBD2BC;}
	.st14{fill:#F8BD9D;}
	.st15{fill:#B5D1E3;}
	.st16{fill:#6FC9ED;}
	.st17{fill:#F8BD9C;}
	.st18{fill:#F18C9E;}
	.st19{opacity:0.6;fill:#FFFFFF;enable-background:new    ;}
	.st20{fill:#EEECED;}
	.st21{fill:#F8F6F7;}
	.st22{fill:#E3E0E3;}
	.st23{fill:#D5CFD4;}
	.st24{fill:#CFEBF8;}
	.st25{fill:#ACDDF2;}
</style>
<g>
	<path class="st4" d="M57.94,323.57c0.88-11.48,4.15-22.3,9.39-32.48c10.61-20.63,20.27-41.72,30.48-62.54
		c2.47-5.04,3.65-5.67,9.08-4.79c3.91,1.97,4.86,4.42,3.03,8.47c-1.6,3.53-3.05,7.13-4.82,10.59c-1.69,3.3-3.4,6.6-5.15,10.38
		c13.04-8.09,26.69-13.26,41.6-14.73c16.67-1.64,32.76,0.62,48.1,7.53c3.31,1.49,5.57,3.79,4.88,7.86
		c-2.19,5.34-4.99,6.71-10.29,4.51c-7.33-3.04-14.92-4.95-22.74-6.09c-12.66-1.61-25.17-0.47-37.02,4.05
		c-29.22,11.13-47.52,32.12-53.25,62.95c-8.28,44.5,22.81,87.67,67.63,94.64c6.35,0.99,12.8,1.88,19.27,0.67
		c20.6-1.65,38.13-10.02,52.35-24.85c12.52-13.05,20.05-28.71,22.02-46.83c2.89-26.49-5.21-49.11-24.01-67.95
		c-1.28-1.28-2.59-2.52-3.82-3.86c-3.18-3.46-3.28-6.09-0.43-9.95c3.91-2.48,6.25-2.75,9.12-0.21c7.44,6.59,14.32,13.71,19.31,22.42
		c0.31,0.55,0.62,1.13,0.72,2.64c-0.29-5.98-0.09-11.11-0.22-16.24c-0.06-17.68,0-35.36-0.04-53.04
		c-0.05-26.02-17.95-48.1-43.46-53.63c-22.65-5.44-48.72,6.59-59.25,27.37c-2.86,5.64-5.63,11.33-8.47,16.98
		c-1.06,2.11-2.28,4.09-4.46,5.2c-1.79,0.91-3.64,1.57-5.15-0.55c-2.82-1.86-4.3-4.57-2.8-7.63c5.77-11.78,10.3-24.29,19.76-33.94
		c4.46-4.55,9.23-8.74,14.82-11.75c2.92-1.57,4.79-3.63,6.03-6.59c3.86-9.25,9.36-17.26,18.01-22.69
		c14.8-9.3,30.24-10.26,45.58-1.99c15.18,8.19,23.21,21.48,23.44,38.76c0.14,9.97-0.06,19.78,5.01,28.84
		c0.92,1.64,1.2,3.67,1.68,5.53c1.62,6.31,1.61,6.32,8.35,6.32c3.75,0,7.52-0.21,11.25,0.07c2.7,0.21,3.54-0.94,3.91-3.31
		c0.84-5.39,2.45-10.6,4.99-15.39c1.77-3.34,2.27-6.69,2.24-10.37c-0.08-9.02-0.74-18.12,2.81-26.78
		c7.12-17.4,20.06-27.51,38.71-28.87c18.37-1.33,32.82,6.62,41.83,22.65c4.05,7.2,8.26,13.23,15.49,17.78
		c9.78,6.14,16.4,15.52,21.42,25.99c14.99,31.27,29.95,62.55,45.23,93.68c5.01,10.21,10.02,20.28,12.5,31.51
		c11.37,51.52-24.53,104.26-76.58,112.3c-53.04,8.19-100.77-26.57-109.01-79.41c-0.34-2.17-0.86-4.4-0.66-6.54
		c0.4-4.3-1.29-5.49-5.42-5.06c-3.97,0.41-8.02,0.25-12.02,0.03c-2.52-0.14-3.07,0.68-3.28,3.15
		c-3.36,38.69-22.55,66.75-58.25,81.92c-55.5,23.6-118.4-11.56-128.76-71.02c-0.31-1.78,0.19-3.88-1.36-5.39c0-4.14,0-8.28,0-12.42
		c0.82-1.33,0.21-2.79,0.4-4.18C57.78,326.04,57.43,324.78,57.94,323.57z"/>
	<path class="st20" d="M193.83,253.76c0.08-3.73-1.84-5.82-5.25-7.19c-30.05-12.06-58.97-9.83-86.79,6.68
		c-1.09,0.65-2.15,1.37-4.19,2.68c2.44-5.15,4.43-9.37,6.44-13.57c1.45-3.02,2.8-6.09,4.43-9.01c2.05-3.7,1.75-6.85-1.57-9.59
		c1.21-4.18,3.62-7.79,5.45-11.67c4.08,1.2,6.66-0.51,8.38-4.16c2.58-5.48,5.16-10.97,7.91-16.36
		c11.39-22.26,35.23-34.16,59.79-29.92c0.36,0.06,0.69,0.32,1.03,0.48c-0.66,1.86-2.44,2.17-3.95,2.81
		c-15.36,6.5-26.39,17.35-33.13,32.62c-2.4,5.44-5.25,10.68-7.9,16c-1,2-1.7,4.03-1.57,6.32c0.26,4.64,3.11,7.54,7.76,8.14
		c7.17,0.92,14.43,0.8,21.55,2.35c23.82,5.17,43.77,16.72,59.54,35.39c1.12,1.32,1.96,2.7,2.35,4.37c0,5.5,0,10.99,0,16.96
		c-2.83-4.07-5.33-7.85-8.01-11.48c-3.53-4.77-7.76-8.91-12.08-12.98c-2.93-2.76-5.88-3.5-9.3-1.04c-1.14,0.87-2.21,0.33-3.2-0.25
		c-2.21-1.3-4.33-2.74-6.55-4.02C193.52,256.51,193.07,255.3,193.83,253.76z"/>
	<path class="st21" d="M234.09,270.13c-17.27-21.91-39.58-35.17-67.18-39.67c-5.24-0.85-10.55-1.05-15.73-1.19
		c-6.17-0.17-11.78-6.78-8.7-13.47c4.42-9.59,8.42-19.48,14.25-28.33c7.26-11.03,16.95-19.31,29.57-23.82
		c1.09-0.39,2.1-1.01,3.14-1.52c18.17,3.47,30.87,14.09,39.22,30.23c3.29,6.37,5.29,13.28,5.38,20.42
		C234.27,231.9,234.1,251.02,234.09,270.13z"/>
	<path class="st21" d="M326.58,161.48c12.24-2.16,23.56,0.74,34.22,6.56c8.55,4.66,15.68,11.13,20.29,19.72
		c8.94,16.67,16.88,33.85,24.79,51.03c-0.44,2.64-2.11,1.05-3.07,0.72c-3.17-1.09-6.24-2.47-9.43-3.53
		c-23.96-7.99-47.68-7.27-71.19,1.86c-0.96,0.38-1.91,0.77-2.88,1.14c-10.07,3.77-18.78-1.83-19.34-12.58
		c-0.29-5.54-0.34-11.11,0.01-16.65c1.08-16.92,7.42-31.49,19.72-43.34C321.78,164.41,323.96,162.67,326.58,161.48z"/>
	<path class="st20" d="M326.58,161.48c-4.17,4.34-9,7.98-12.62,12.92c-6.84,9.33-11.25,19.45-12.32,31.11
		c-0.75,8.23-1.42,16.44,0.12,24.58c1.37,7.21,9.37,11.05,16.27,8.24c11.97-4.88,24.23-8.04,37.3-8.7
		c16.67-0.84,32.34,2.43,47.56,8.79c0.9,0.38,1.81,1.82,2.99,0.38c2.69,5.35,5.38,10.7,8.07,16.06
		c-23.39-14.5-48.29-19.51-74.97-13.29c-26.71,6.22-46.74,21.86-61.01,45.76c0-25.99-1.36-51.47,0.38-76.73
		c1.74-25.2,19.78-43.39,44.01-48.66C323.74,161.62,325.17,161.62,326.58,161.48z"/>
	<path class="st22" d="M370.19,251.46c18.89,1.85,35.09,9.74,48.19,23.19c23.3,23.92,30.72,52.54,20.33,84.22
		c-10.43,31.81-33.49,50.28-66.46,56.24c-1.64,0.3-3.34,0.19-5.01,0.28c-1.46,0.54-2.87,0-4.12-0.53
		c-6.21-2.61-12.01-5.96-17.28-10.17c-0.85-0.68-2-1.37-1.36-2.83c2.81-1.5,5.58-0.04,8.32,0.22c20.52,1.92,38.55-3.75,53.89-17.56
		c13.35-12.02,21.04-27.05,22.59-44.93c1.6-18.4-3.42-34.99-14.87-49.59c-5.92-7.55-13.36-13.16-21.63-17.89
		c-4.89-2.8-9.52-4.64-14.31-0.02c-4.15-0.74-8.3-1.41-12.4-2.42c-2.53-6.14-7.73-5.8-12.96-5.3c-2.04,0.19-4.03,0.83-6.11,0.48
		c-3.34-1.01-1.64-2.5-0.23-3.67c4.08-3.36,8.74-5.81,13.42-8.22C363.39,251.32,366.65,250.63,370.19,251.46z"/>
	<path class="st22" d="M193.83,253.76c0.15,0.85-0.14,1.95,0.89,2.36c3.57,1.4,6.14,4.58,9.98,5.48c-2.61,4.48-2.32,6.16,1.84,9.99
		c18.94,17.43,28.19,39.03,27.62,64.74c-0.89,40.36-34.66,76.33-74.16,79.11c-0.51,0.04-1.02-0.03-1.54-0.05
		c-1.59,0.54-3.09-0.05-4.44-0.64c-5.98-2.62-11.65-5.82-16.76-9.91c-0.9-0.73-2.33-1.39-1.46-3.05c2.69-1.37,5.34-0.02,7.97,0.23
		c21.11,1.98,39.62-3.83,55.09-18.47c14.99-14.19,22.41-31.72,21.85-52.35c-0.43-15.74-5.62-29.9-15.91-41.95
		c-16.65-19.51-37.87-27.4-63.25-24.44c-1.16,0.14-2.32,0.21-3.48,0.01c-1.61-0.42-2.52-1.57-1.01-2.66
		c7.34-5.3,14.15-11.91,24.37-10.7c7.85,0.35,15.17,2.82,22.37,5.7C189.27,259.34,191.11,258.76,193.83,253.76z"/>
	<path class="st23" d="M344.45,401.98c6.54,6.26,14.38,10.31,22.79,13.4c-12.19,1.69-23.96-0.33-35.33-4.56
		c-34.91-12.99-57.21-47.64-54.05-83.69c3.36-38.43,31.01-68.81,68.84-75.39c7.76-1.35,15.64-1.83,23.49-0.3
		c-9.68,0.18-16.52,6.44-23.97,11.32c-1.28,0.84,0.2,1.01,0.76,1.27c-0.57,1.91-2.38,1.78-3.78,2.17
		c-29.13,8.12-48.94,30.75-51.83,60.79c-1.94,20.23,4.27,38.22,18.3,53.25c8.75,9.37,19.18,15.96,31.51,19.57
		C342.41,400.2,344.16,400.07,344.45,401.98z"/>
	<path class="st23" d="M161.43,251.45c-9.69,0.16-16.51,6.45-23.97,11.32c-1.29,0.84,0.16,1.02,0.74,1.28
		c-0.55,1.93-2.37,1.79-3.77,2.18c-29.27,8.16-48.92,30.61-51.82,60.8c-1.95,20.37,4.22,38.47,18.56,53.53
		c8.75,9.19,19.07,15.71,31.26,19.29c1.23,0.36,2.99,0.22,3.25,2.15c6.55,6.24,14.38,10.31,22.79,13.39
		c-12.06,1.7-23.72-0.28-34.98-4.4c-34.86-12.77-56.68-46.2-54.47-83.08c2.16-36.05,28.17-66.63,64-75.13
		C142.38,250.56,151.86,249.82,161.43,251.45z"/>
	<path class="st22" d="M245.85,270.87c0-16.28,0.09-32.57-0.08-48.85c-0.03-2.96,0.76-3.77,3.64-3.6c4.38,0.25,8.8,0.29,13.17-0.01
		c3.07-0.21,3.54,0.93,3.54,3.71c-0.1,27.66-0.06,55.31-0.06,82.97c0,5.3-0.11,10.6,0.05,15.89c0.07,2.27-0.71,2.8-2.84,2.74
		c-4.78-0.15-9.57-0.21-14.34,0.02c-2.64,0.13-3.15-0.8-3.14-3.24C245.9,303.95,245.85,287.41,245.85,270.87z"/>
	<path class="st23" d="M225.55,168.26c-17.77-16.11-38.02-22-61.21-17.69c5.1-12.06,21.54-19.37,35.82-16.09
		C215.38,137.97,226.09,151.94,225.55,168.26z"/>
	<path class="st23" d="M347.59,150.52c-25.61-3.53-40.56,0.76-60.84,17.31c-2.71-11.99,7.88-27.68,21.9-32.45
		C323.51,130.32,341.35,137.16,347.59,150.52z"/>
	<path class="st24" d="M366.2,269.35c4.38-0.08,8.65,0.34,12.54,2.61c1.35,4.09,4.38,6.1,8.2,7.96
		c29.29,14.22,41.58,50.1,26.98,79.2c-11.72,23.37-31.27,34.42-57.16,33.76c-12.02-0.31-22.93-4.77-32.49-12.22
		c-0.92-0.72-1.81-1.47-2.38-2.52c-5.82-11.04-9.93-22.6-11.33-35.09c-1.82-16.16,0.75-31.56,7.39-46.34
		c1.21-2.7,2.76-5.25,3.86-8.01c2.84-4.29,7.36-6.45,11.67-8.67c7.55-3.87,15.59-6.4,24.17-6.18
		C361.55,273.94,363.6,271.33,366.2,269.35z"/>
	<path class="st4" d="M366.2,269.35c-1.12,3.94-3.82,5.3-7.79,5.41c-13.52,0.41-25.57,4.8-35.74,13.9
		c-3.68,5.76-9.02,10.15-12.51,16.16c-12.32,21.27-9.01,50.26,8.18,67.76c1.64,1.67,2.94,3.59,4.38,5.39
		c23.33,21.54,62.99,17.71,83.41-8.06c23.91-30.19,13.47-73.88-21.59-89.99c-3.59-1.65-6.3-3.54-5.8-7.98
		c2.77-4.44,4.92-5.15,9.59-3.1c28.99,12.7,45.25,41.71,41.86,71.5c-3.72,32.67-27.58,57.43-58.76,62.39
		c-9.06,1.44-18.03,0.74-26.99-0.76c-13.52-3.81-25.66-10.04-35.19-20.59c-18.07-20.01-23.88-43.27-15.85-68.95
		c7.97-25.47,25.78-41.32,51.79-47.75c0.61-0.15,1.19-0.43,1.78-0.65c3.8-0.32,7.6-0.78,11.41-0.92
		C363.65,262.93,365.08,264.18,366.2,269.35z"/>
	<path class="st4" d="M135.68,402c-14.21-3.95-26.6-10.88-36.56-21.97c-35.7-39.75-14.93-104.04,37.29-115.33
		c0.61-0.13,1.19-0.43,1.78-0.65c13.93-2,27.49-1.02,40.65,4.46c27.68,11.53,45.63,41.04,42.78,70.72
		c-3.02,31.45-26.06,57.1-56.31,62.99C155.37,404.15,145.55,403.68,135.68,402z"/>
	<path class="st25" d="M322.72,377.98c-23.03-17.37-27.9-53.19-10.57-78.08c2.95-4.24,6.22-8.23,10.51-11.24
		c-1.66,5.57-5.02,10.39-6.81,15.93c-4.51,13.92-5.97,27.97-3.67,42.51C313.9,358.07,318.2,368.04,322.72,377.98z"/>
	<path class="st24" d="M113.89,288.64c15.2-14.73,42.42-18.3,63.04-8.28c25.22,12.25,38.4,40.46,31.51,67.46
		c-6.9,27.07-32.28,45.71-60.39,44.02c-12.83-0.77-24.4-5.15-34.11-13.84c-7.02-9.38-9.99-20.34-11.73-31.6
		c-2.79-17.93-0.1-35.16,7.77-51.58C111.06,292.57,112.8,290.84,113.89,288.64z"/>
</g>
</svg>
